<?xml version="1.0" encoding="UTF-8"?>
<svg id="Layer_2" data-name="Layer 2" xmlns="http://www.w3.org/2000/svg" viewBox="0 0 1479.82 601">
  <defs>
    <style>
      .cls-1 {
        fill: #f3eae5;
      }
    </style>
  </defs>
  <g id="Landing_Page" data-name="Landing Page">
    <g id="ArieVina">
      <g>
        <path class="cls-1" d="M488.56,319.02c2.24-3.98,4.58-8,7.01-12.06,2.43-4.06,4.73-8.18,6.9-12.36,6.91-12.03,13.61-24.02,20.1-36,6.49-11.97,13.05-24.03,19.7-36.18,10.07-18.81,19.68-36.51,28.84-53.08,9.15-16.57,18.17-31.36,27.04-44.37,8.87-13,17.72-23.9,26.57-32.67,8.84-8.77,17.95-14.85,27.31-18.26,.77-.3,1.41-.1,1.9,.6,.49,.7,.53,1.36,.09,1.97-.94,1.03-3.41,6-7.41,14.89-4.01,8.9-9.13,20.51-15.38,34.84-6.24,14.33-13.34,30.77-21.28,49.31-7.95,18.55-16.32,37.99-25.14,58.32-4.98,11.28-9.87,22.64-14.67,34.07-4.81,11.44-9.62,22.98-14.45,34.65,11.88-4.38,22.99-9.58,33.35-15.6,10.35-6.02,19.71-13.03,28.06-21.06,8.35-8.02,15.65-17.19,21.89-27.51,6.24-10.32,11.18-21.97,14.83-34.96,.21-1.19,.81-1.65,1.81-1.37,1,.28,1.4,1.02,1.19,2.21-3.89,13.53-9.05,25.6-15.51,36.22-6.45,10.63-14.08,20.09-22.88,28.4-8.8,8.31-18.62,15.56-29.46,21.77-10.84,6.2-22.43,11.48-34.77,15.81-7.2,17.04-14.19,33.6-20.97,49.69-6.78,16.1-13.1,31.23-18.96,45.41-5.86,14.18-11.11,26.89-15.76,38.16-4.65,11.26-8.35,20.54-11.08,27.83-.36,.81-1.04,1.07-2.03,.79-1-.28-1.26-.96-.79-2.03,2.81-7.1,6.49-16.26,11.05-27.49,4.55-11.23,9.67-23.72,15.35-37.5,5.68-13.77,11.83-28.62,18.46-44.55,6.63-15.92,13.48-32.27,20.56-49.03-8.86,2.99-18.01,5.65-27.46,7.97-9.45,2.33-19.33,4.27-29.63,5.81-12.59,23.8-25.46,46.43-38.62,67.89-13.16,21.46-28.25,41.83-45.26,61.11-26.22,29.97-55.45,55.05-87.69,75.22-32.24,20.18-66.68,37.58-103.29,52.22-13.67,5.52-28.41,10.4-44.24,14.64-15.83,4.24-31.78,6.86-47.86,7.87-16.08,1-31.84-.01-47.25-3.05-15.42-3.04-29.46-9.11-42.12-18.23-9.25-6.65-16.69-14.34-22.3-23.07-5.61-8.73-9.56-18.05-11.84-27.96-2.28-9.91-2.97-20.16-2.07-30.75,.9-10.59,3.28-20.97,7.13-31.14,4.76-12.97,11.95-25.72,21.57-38.24,9.61-12.52,21.62-24.18,36.01-34.99,14.39-10.81,31.29-20.48,50.69-29,19.4-8.52,41.4-15.21,66-20.07,24.53-5.05,50.61-8.38,78.27-9.97,27.65-1.59,55.61-2.97,83.87-4.13,24.98-1,49.68-2.17,74.09-3.51,24.41-1.33,47.93-3.83,70.55-7.48ZM216.65,575.32c36.42-14.57,69.72-32.87,99.9-54.92,30.18-22.05,58.16-47.75,83.96-77.11,16.07-18.25,31.1-37.48,45.07-57.7,13.97-20.22,27.53-41.22,40.68-63.01-22.24,3.5-45.35,5.89-69.33,7.18-23.99,1.29-48.28,2.35-72.87,3.21-28.26,1.16-56.15,2.57-83.67,4.22-27.52,1.65-53.44,4.97-77.77,9.95-23.75,4.76-45.09,11.3-64,19.63-18.92,8.33-35.36,17.88-49.33,28.64-13.97,10.76-25.62,22.34-34.94,34.74-9.33,12.41-16.31,24.97-20.96,37.67-3.73,9.91-6.06,19.99-6.97,30.25-.92,10.26-.32,20.15,1.82,29.68,2.13,9.52,5.9,18.53,11.3,27,5.4,8.48,12.59,15.99,21.58,22.52,12.12,8.88,25.64,14.77,40.57,17.66,14.92,2.9,30.17,3.77,45.76,2.63,15.58-1.15,31.07-3.81,46.48-8,15.4-4.19,29.64-8.93,42.73-14.23ZM649.07,78.52c-8.75,3.84-17.3,10.21-25.64,19.12-8.35,8.91-16.74,19.68-25.2,32.3-8.46,12.63-17.06,26.92-25.78,42.88-8.73,15.96-17.85,32.91-27.37,50.84-6.45,12.07-12.87,24.08-19.26,36.01-6.39,11.94-12.72,23.91-18.97,35.9-2.05,3.91-4.08,7.71-6.1,11.38-2.03,3.68-3.96,7.44-5.82,11.27,10.23-1.74,20.07-3.77,29.52-6.1,9.45-2.33,18.56-5.08,27.34-8.26,4.94-11.93,9.98-23.78,15.09-35.56,5.12-11.78,10.15-23.63,15.09-35.56,7.67-18.11,15.14-35.58,22.41-52.42,7.27-16.84,13.88-32.09,19.83-45.75,5.94-13.65,11.08-25.38,15.41-35.18,4.32-9.8,7.47-16.75,9.44-20.85Z"/>
        <path class="cls-1" d="M593.43,350.15c-.75,.96-1.51,1.14-2.29,.55-.78-.58-.9-1.32-.35-2.2,3.17-5.01,6.56-10.22,10.14-15.62,3.58-5.4,7.08-10.87,10.5-16.42-2.64-1.65-4.32-3.11-5.04-4.39-.87-1.67-.79-3.47,.23-5.43,1.02-1.95,2.48-3.63,4.39-5.04,3.54-2.93,6.56-4.04,9.05-3.34,2.49,.7,2.52,3.64,.08,8.82-.59,1.35-1.25,2.66-1.98,3.94-.73,1.28-1.55,2.77-2.45,4.45,2.91,1.77,5.31,3.95,7.21,6.55,1.9,2.6,3,5.74,3.31,9.4,.02,4.66-1.06,9.48-3.25,14.45-2.19,4.97-4.39,9.77-6.6,14.41-1.93,3.64-3.56,6.89-4.9,9.75-1.34,2.86-1.71,5.06-1.11,6.61,.45,1.16,1.23,1.75,2.35,1.76,1.12,.02,2.16-.17,3.13-.54,2.51-.97,5.73-2.89,9.63-5.74,3.9-2.85,8.13-6.16,12.68-9.92,4.86-4.11,9.88-8.67,15.06-13.68,5.18-5.01,10.07-9.91,14.67-14.7,4.6-4.79,8.72-9.22,12.37-13.31,3.64-4.08,6.43-7.38,8.34-9.91,.82-.76,1.62-.85,2.4-.26,.78,.59,.8,1.36,.06,2.31-2.11,2.6-4.99,5.94-8.63,10.02-3.65,4.08-7.77,8.52-12.37,13.31-4.6,4.79-9.49,9.69-14.67,14.7-5.18,5.01-10.2,9.58-15.06,13.68-4.67,4.04-9.02,7.45-13.06,10.24-4.04,2.79-7.61,4.79-10.7,5.98-1.55,.6-3.12,.87-4.69,.82-1.58-.06-2.94-.97-4.07-2.76-1.63-2.48-1.76-5.83-.38-10.03,1.37-4.21,3.19-8.86,5.44-13.96,1.58-3.95,3.15-7.95,4.69-12,1.55-4.05,2.53-7.82,2.95-11.33,.23-3.43-.19-6.1-1.27-8.02-1.08-1.92-2.8-3.64-5.18-5.17-3.29,5.28-6.71,10.67-10.26,16.16-3.55,5.5-7,10.79-10.37,15.87Zm19.64-36.32c.9-1.69,1.72-3.17,2.45-4.45,.72-1.28,1.33-2.46,1.8-3.54,1.54-3.49,1.69-5.11,.46-4.85-1.24,.26-2.86,1.22-4.89,2.9-1.33,1.18-2.37,2.37-3.13,3.55-.77,1.19-.96,2.26-.58,3.23,.23,.58,.69,1.07,1.4,1.46,.71,.39,1.54,.96,2.5,1.7Z"/>
        <path class="cls-1" d="M716.5,280.08c-.25,1.66-.7,3.67-1.34,6.03-.64,2.37-1.48,5.08-2.52,8.15-1.08,3.54-2.29,7.45-3.62,11.75-1.34,4.31-2.53,8.55-3.58,12.74-1.01,3.73-1.77,7.2-2.31,10.41-.54,3.21-.82,5.94-.84,8.17,.08,3.09,.77,4.88,2.08,5.37,1.3,.5,3.27,.12,5.91-1.12,2.71-1.05,5.81-2.8,9.31-5.28,3.49-2.47,7.17-5.33,11.02-8.61,4.86-4.11,9.86-8.72,15-13.83,5.14-5.11,9.97-10.15,14.5-15.14,4.52-4.98,8.59-9.56,12.2-13.74,3.61-4.18,6.47-7.57,8.58-10.17,.82-.76,1.62-.85,2.4-.26,.78,.59,.8,1.36,.06,2.31-2.11,2.6-5.02,6.01-8.72,10.23-3.71,4.22-7.87,8.84-12.49,13.86-4.62,5.02-9.5,10.08-14.64,15.19-5.14,5.11-10.14,9.72-15,13.83-4.04,3.35-7.86,6.28-11.45,8.78-3.59,2.5-6.8,4.41-9.63,5.74-7.36,2.85-11.76,.67-13.23-6.56-.83-5.02-.4-11.64,1.31-19.87,.78-4.31,1.88-8.79,3.29-13.46,1.42-4.66,3.04-9.24,4.86-13.74l-16.59,21.79c-.62,.69-1.4,.71-2.31,.06-.92-.65-.97-1.35-.15-2.11l25.44-32.56c.55-.88,1.15-1.05,1.8-.53,.65,.53,.87,1.39,.67,2.58Zm.01-28.38c1.91-2.52,2.74-4.57,2.47-6.13-.27-1.56-.69-2.79-1.26-3.68-.79-1.47-1.05-2.71-.77-3.71,.28-1,.82-1.6,1.64-1.8,.81-.2,1.63,.04,2.45,.72,.82,.68,1.34,1.88,1.55,3.57,.44,2.28,.27,4.57-.51,6.87s-1.85,4.28-3.21,5.92c-.82,.77-1.62,.85-2.4,.26-.78-.58-.77-1.26,.05-2.02Z"/>
        <path class="cls-1" d="M822.9,250.52c-3.43,3.78-8.02,7.45-13.76,11.01-3.5,2.47-7.14,4.83-10.94,7.08-3.8,2.26-7.27,4.21-10.41,5.87-.62,.69-1.11,1.43-1.47,2.24-.36,.81-.75,1.52-1.18,2.13-1.38,2.76-2.6,5.35-3.67,7.76-1.07,2.42-1.94,4.76-2.62,7.03-1.01,4.85-.9,8.58,.34,11.22,1.09,2.25,2.68,3.75,4.75,4.5,2.08,.75,4.29,1.01,6.64,.76,2.67-.59,5.89-1.89,9.67-3.91,3.78-2.02,8.13-4.99,13.07-8.91,6.18-5.29,13.17-12.23,20.98-20.82,7.8-8.58,16.41-19.38,25.84-32.38,.74-.95,1.52-1.09,2.35-.41,.82,.68,.95,1.47,.41,2.35-9.62,13.08-18.38,23.93-26.28,32.55-7.9,8.63-15.03,15.62-21.41,20.99-5.05,4.19-9.62,7.35-13.69,9.48-4.07,2.13-7.67,3.47-10.8,4.02-3.39,.43-6.45,0-9.18-1.28-2.72-1.28-4.82-3.53-6.29-6.74-1.02-2.05-1.57-4.34-1.66-6.87-.09-2.52,.14-5.11,.66-7.77,.73-2.73,1.66-5.49,2.81-8.27,1.15-2.78,2.47-5.68,3.97-8.72,3.81-6.82,8.46-13.35,13.94-19.59,5.48-6.24,10.84-10.93,16.08-14.08,3.26-1.93,6.23-3.02,8.91-3.29,2.68-.26,4.67,.14,5.97,1.19,1.3,1.06,1.82,2.69,1.57,4.9-.26,2.22-1.79,4.87-4.59,7.96Zm-31.82,18.68c2.56-1.44,5.29-3,8.2-4.68,2.91-1.68,5.67-3.47,8.27-5.37,2.6-1.9,5.06-3.74,7.37-5.53,2.31-1.78,4.25-3.53,5.81-5.26,2.18-2.4,3.37-4.36,3.56-5.89,.19-1.52-.21-2.53-1.18-3.05-.98-.51-2.33-.54-4.05-.1-1.72,.45-3.44,1.33-5.15,2.66-2.53,2.1-5.94,5.64-10.23,10.64-4.29,5-8.5,10.53-12.61,16.57Z"/>
      </g>
      <g>
        <path class="cls-1" d="M1215.09,366.88c0-1.12,.53-1.65,1.55-1.6,1.02,.05,1.52,.63,1.51,1.75,.71,16.19-.79,32.13-4.5,47.82-3.72,15.68-9.22,30.78-16.5,45.29-7.29,14.51-16.15,28.24-26.6,41.19-10.45,12.95-21.92,24.85-34.4,35.7-13.31,11.61-27.49,21.67-42.55,30.18-15.06,8.51-30.62,15.32-46.67,20.43-15.93,4.84-31.88,7.63-47.84,8.36-15.97,.73-31.54-.96-46.71-5.1-19.79-5.68-38.08-15.84-54.88-30.48-16.8-14.63-31.02-34.94-42.65-60.93-6.21-14.29-11.11-29.53-14.71-45.71-3.6-16.18-5.92-32.93-6.95-50.22-1.03-17.3-.77-34.86,.77-52.71,1.54-17.84,4.35-35.57,8.43-53.18,3.8-16.61,8.8-32.84,15-48.72,6.2-15.87,13.42-30.96,21.67-45.29,8.25-14.32,17.59-27.68,28.03-40.08,10.44-12.39,21.9-23.45,34.38-33.19,7.66-6.08,16.48-11.89,26.46-17.43,9.98-5.54,20.23-9.68,30.74-12.42,13.18-3.32,25.54-3.44,37.09-.35,11.55,3.09,21.4,10.29,29.57,21.59,6.34,8.89,10.29,19.22,11.84,30.97,1.55,11.75,1.43,24.37-.35,37.86-1.78,13.49-4.64,27.51-8.57,42.05-3.93,14.55-8.08,29.12-12.43,43.71-2.95,9.61-5.78,19.1-8.49,28.5-2.7,9.39-5.03,18.47-6.97,27.24-2.92,13.15-5.35,25.11-7.29,35.88-1.95,10.77-2.71,19.86-2.29,27.26,.19,6.82,1.58,11.68,4.15,14.58,2.57,2.9,6.83,3.41,12.79,1.55,3.17-1.01,6.97-5.26,11.41-12.77,4.43-7.51,9.37-17.32,14.8-29.44,5.43-12.12,11.29-26.13,17.59-42.04,6.3-15.91,12.96-32.9,19.97-50.98,8.08-20.49,16.47-41.77,25.17-63.84,8.69-22.07,17.67-43.57,26.91-64.52,9.24-20.94,18.67-40.68,28.3-59.21,9.62-18.53,19.31-34.58,29.07-48.16,9.76-13.58,19.46-24.01,29.1-31.31,9.64-7.29,19.19-10.22,28.65-8.77,1.12,.02,1.6,.55,1.46,1.61-.15,1.06-.82,1.48-2.01,1.28-9-1.4-18.21,1.55-27.61,8.87-9.41,7.32-18.84,17.71-28.31,31.17-9.47,13.47-18.92,29.43-28.35,47.88-9.43,18.46-18.71,38.02-27.83,58.7-9.13,20.68-18.02,41.93-26.7,63.77-8.68,21.84-16.96,42.96-24.84,63.38-7.02,18.08-13.73,35.2-20.15,51.38-6.42,16.18-12.42,30.41-18,42.7-5.59,12.29-10.68,22.28-15.27,29.95-4.59,7.68-8.67,12.09-12.22,13.25-7.51,2.46-12.89,1.93-16.14-1.59-3.26-3.53-4.88-9.29-4.87-17.31-.5-7.6,.21-16.83,2.12-27.7,1.91-10.86,4.32-22.87,7.24-36.02,2.06-9.03,4.36-18.6,6.9-28.71,3.76-16.15,7.51-32.73,11.26-49.77,3.75-17.03,6.67-33.47,8.77-49.3,2.09-15.84,2.95-30.57,2.55-44.22-.4-13.64-2.75-25.19-7.09-34.65-2.79-6.04-6.39-10.88-10.8-14.51-4.41-3.63-9.25-6.21-14.51-7.73-5.26-1.52-10.86-2.18-16.8-2-5.94,.19-11.92,1.12-17.95,2.78-10.32,2.66-20.38,6.73-30.16,12.19-9.79,5.46-18.45,11.11-25.99,16.92-12.28,9.66-23.57,20.6-33.85,32.82-10.29,12.22-19.52,25.43-27.71,39.62-8.19,14.19-15.31,29.14-21.35,44.83-6.05,15.7-11.01,31.76-14.88,48.17-4.16,17.42-7.04,34.95-8.66,52.6-1.62,17.65-1.93,35.08-.94,52.28,.99,17.2,3.32,33.83,6.98,49.88,3.66,16.05,8.56,31.12,14.69,45.22,11.48,25.6,25.41,45.62,41.82,60.08,16.4,14.45,34.32,24.37,53.76,29.74,14.99,4.21,30.32,5.88,46.02,5.03,15.69-.86,31.31-3.62,46.86-8.31,15.66-4.96,30.97-11.67,45.94-20.15,14.96-8.47,29.04-18.38,42.23-29.72,12.29-10.77,23.54-22.53,33.73-35.28,10.19-12.75,18.9-26.3,26.13-40.68,7.22-14.38,12.68-29.29,16.38-44.74,3.69-15.45,5.22-31.18,4.58-47.18Z"/>
        <path class="cls-1" d="M1187.77,261.95c-.25,1.66-.7,3.67-1.34,6.03-.64,2.37-1.48,5.08-2.52,8.15-1.08,3.54-2.29,7.45-3.62,11.75-1.34,4.31-2.53,8.55-3.58,12.74-1.01,3.73-1.77,7.2-2.31,10.41-.54,3.21-.82,5.94-.84,8.17,.08,3.09,.77,4.88,2.08,5.37,1.3,.5,3.27,.12,5.91-1.12,2.71-1.05,5.81-2.8,9.31-5.28,3.49-2.47,7.17-5.33,11.02-8.61,4.86-4.11,9.86-8.72,15-13.83,5.14-5.11,9.97-10.15,14.5-15.14,4.52-4.98,8.59-9.56,12.2-13.74,3.61-4.18,6.47-7.57,8.58-10.17,.82-.76,1.62-.85,2.4-.26,.78,.59,.8,1.36,.06,2.31-2.11,2.6-5.02,6.01-8.72,10.23-3.71,4.22-7.87,8.84-12.49,13.86-4.62,5.02-9.5,10.08-14.64,15.19-5.14,5.11-10.14,9.72-15,13.83-4.04,3.35-7.86,6.28-11.45,8.78-3.59,2.5-6.8,4.41-9.63,5.74-7.36,2.85-11.76,.67-13.23-6.56-.83-5.02-.4-11.64,1.31-19.87,.78-4.31,1.88-8.79,3.29-13.46,1.42-4.66,3.04-9.24,4.86-13.74l-16.59,21.79c-.62,.69-1.4,.71-2.31,.06-.92-.65-.97-1.35-.15-2.11l25.44-32.56c.55-.88,1.15-1.05,1.8-.53,.65,.53,.87,1.39,.67,2.58Zm.01-28.38c1.91-2.52,2.74-4.57,2.47-6.13-.27-1.56-.69-2.79-1.26-3.68-.79-1.47-1.05-2.71-.77-3.71,.28-1,.82-1.6,1.64-1.8,.81-.2,1.63,.04,2.45,.72,.82,.68,1.34,1.88,1.55,3.57,.44,2.28,.27,4.57-.51,6.87s-1.85,4.28-3.21,5.92c-.82,.77-1.62,.85-2.4,.26-.78-.58-.77-1.26,.05-2.02Z"/>
        <path class="cls-1" d="M1365.07,212.93c.82-.76,1.62-.85,2.4-.26,.78,.59,.8,1.36,.06,2.31-2.11,2.6-4.92,5.97-8.43,10.11-3.51,4.15-7.48,8.57-11.88,13.28-4.41,4.71-9,9.5-13.8,14.36-4.79,4.86-9.53,9.32-14.19,13.35-4.28,3.89-8.35,7.19-12.19,9.9-3.85,2.71-7.16,4.5-9.94,5.36-5.3,1.83-8.15-.06-8.55-5.7-.05-2.43,.35-5.42,1.19-8.98,.85-3.55,1.95-7.32,3.3-11.3,1.35-3.97,2.83-8.05,4.44-12.24,1.6-4.18,3.24-8.15,4.9-11.91,1.42-3.22,2.66-6.2,3.71-8.95,1.05-2.74,1.83-4.88,2.35-6.42-2.34,2.02-6.07,6.31-11.21,12.86-5.14,6.56-10.79,13.92-16.97,22.1-3.64,4.97-7.28,9.95-10.91,14.91-3.64,4.97-7.01,9.62-10.12,13.94-3.11,4.32-5.76,8.24-7.96,11.77-2.19,3.52-3.71,6.23-4.54,8.1-.9,1.68-1.75,2.23-2.53,1.65-.78-.58-.88-1.55-.29-2.89l27.89-61.56-17.17,22.01c-.62,.69-1.4,.71-2.31,.06-.92-.65-.97-1.35-.15-2.11l24.68-31.93c.94-1.03,1.81-1.37,2.61-1.01s1.24,1.19,1.3,2.5c.21,1.7-.11,3.88-.97,6.55-.86,2.67-2.06,5.75-3.6,9.24-1.97,4.1-4.24,8.6-6.79,13.48-2.56,4.89-5.25,10-8.08,15.32l-1.18,2.13c2.7-3.94,5.55-7.93,8.54-11.99,2.99-4.05,6.07-8.03,9.23-11.93,5.79-8.03,11.34-15.24,16.65-21.64,5.31-6.4,9.44-10.95,12.4-13.65,1.44-1.45,2.98-2.21,4.62-2.29,1.64-.08,2.46,1.33,2.47,4.22-.07,2.7-1.16,6.63-3.28,11.79-2.12,5.16-4.58,10.74-7.38,16.71-2.73,6.18-5.36,12.15-7.91,17.92-2.55,5.78-3.88,10.24-3.99,13.4-.19,2.97,1.44,4.01,4.88,3.12,2.2-.63,5.18-2.28,8.93-4.96,3.75-2.67,7.76-5.96,12.04-9.84,4.48-3.96,9.11-8.37,13.9-13.23,4.79-4.86,9.39-9.65,13.8-14.36,4.4-4.71,8.32-9.12,11.73-13.23,3.42-4.1,6.18-7.45,8.29-10.06Z"/>
        <path class="cls-1" d="M1420.3,178.83c.69,.63,.75,1.38,.21,2.26-.55,.88-1.21,.92-1.97,.09-2.72-1.84-5.94-2.26-9.67-1.26-3.73,1-7.67,3.03-11.83,6.09-4.16,3.06-8.38,6.81-12.67,11.25-4.29,4.45-8.25,9.16-11.89,14.12-2.47,3.41-4.71,6.67-6.72,9.78-2.01,3.12-3.87,6.23-5.56,9.33-1.5,3.03-2.77,5.91-3.82,8.66-1.05,2.74-1.76,5.08-2.13,7-.66,4.04-.13,6.4,1.57,7.07,1.71,.67,3.98-.21,6.82-2.64,3.15-2.78,6.91-7.02,11.26-12.71,4.35-5.69,8.59-11.56,12.7-17.61,4.11-6.04,7.75-11.57,10.93-16.59,3.17-5.01,5.31-8.4,6.41-10.16,1.33-2.3,2.57-4.28,3.71-5.94,1.14-1.66,2.07-2.97,2.82-3.93,.67-1.15,1.58-1.22,2.75-.23,1.16,1,1.39,2.86,.66,5.59-.37,1.93-1.16,4.18-2.38,6.77-1.22,2.59-2.58,5.4-4.08,8.43-2.37,5.37-4.75,10.86-7.14,16.46-2.39,5.6-3.22,9.93-2.48,12.98,.36,2.09,1.28,3.29,2.74,3.61,1.46,.33,2.96,.19,4.51-.41,2.78-.85,6-2.6,9.65-5.24,3.65-2.64,7.6-5.67,11.83-9.09,4.86-4.11,9.86-8.72,15-13.83,5.14-5.11,9.97-10.15,14.5-15.13,4.52-4.98,8.59-9.56,12.2-13.74,3.61-4.18,6.47-7.57,8.58-10.17,.82-.76,1.62-.85,2.4-.26,.78,.59,.8,1.36,.06,2.31-2.11,2.6-5.02,6.01-8.72,10.23-3.71,4.22-7.82,8.82-12.35,13.8-4.53,4.98-9.36,10.03-14.5,15.13-5.14,5.11-10.24,9.76-15.3,13.94-4.36,3.69-8.41,6.88-12.16,9.55-3.75,2.68-7.11,4.48-10.09,5.41-2.79,.86-5.19,.96-7.23,.3-2.04-.65-3.58-2.34-4.63-5.05-1.47-3.21-1.61-7.44-.41-12.69,1.19-5.25,2.97-10.55,5.34-15.93-1.1,1.76-2.93,4.64-5.5,8.64-2.57,4-5.52,8.31-8.84,12.94-3.33,4.63-6.78,9.2-10.38,13.71-3.59,4.51-6.87,8.12-9.83,10.82-4.79,4.3-8.47,5.4-11.08,3.29-2.6-2.11-3.48-6.11-2.65-11.99,.87-5.23,3.09-11.55,6.68-18.95,1.81-3.37,3.84-6.88,6.1-10.54,2.26-3.66,4.61-7.18,7.08-10.59,3.63-4.97,7.59-9.56,11.85-13.78,4.26-4.21,8.59-7.56,12.97-10.04,4.38-2.48,8.67-3.91,12.85-4.31,4.19-.4,8.11,.69,11.79,3.28Z"/>
      </g>
    </g>
  </g>
</svg>