<?xml version="1.0" encoding="UTF-8"?>
<svg id="Layer_2" data-name="Layer 2" xmlns="http://www.w3.org/2000/svg" viewBox="0 0 407.81 69.68">
  <defs>
    <style>
      .cls-1 {
        fill: none;
        stroke: #f3eae5;
        stroke-miterlimit: 10;
      }
    </style>
  </defs>
  <g id="save_the_date" data-name="save the date">
    <g id="Layer_18" data-name="Layer 18">
      <g>
        <g>
          <path class="cls-1" d="M294.02,42.49c.47,.37,1.05,.21,1.17-.35,.08-.36,.05-.74,.1-1.1,.02-.14,.11-.36,.21-.39,.43-.13,.96,.33,.93,.81-.01,.2-.07,.39-.11,.56,.38,.03,.76,0,1.09,.12,.21,.08,.42,.38,.46,.61,.02,.11-.33,.36-.54,.43-.31,.09-.66,.06-1,.09,.44,.98,.16,1.42-1.05,1.56-.02-.36-.05-.72-.05-1.08,.02-.68-.28-.94-.93-.83,.08,.98,.92,1.9,.15,2.99,.17,.08,.36,.26,.48,.22,.8-.3,1.64-.55,2.37-1,.74-.45,1.37-1.09,1.53-2.04,0-.02,.06-.03,.1-.06,.07,.13,.14,.27,.26,.48,.43-.65,.98-.81,1.65-.56,.1,.04,.23,.02,.34,0,.34-.03,.68-.07,1.17-.13-.4,.6-.72,1.05-1.35,1.11-.5,.04-1,.07-1.5,.05-.73-.02-1.37,.46-1.53,1.25,.1-.07,.17-.12,.25-.16,.99-.49,2-.78,3.1-.32,.43,.18,.43,.37,.16,.71-.72,.91-2.55,1.06-3.51,.62-.57-.26-.99-.43-1.59-.03-.35,.24-.88,.2-1.27,.28,.44,1.03,.89,2.07,1.34,3.12,1.06-.17,2.12-.38,3.19-.51,1.01-.12,1.93,.07,2.48,1.07-.21,.1-.44,.18-.63,.31-.97,.63-2.24,.61-3.24-.03-.55-.36-1.13-.68-1.82-.52,.06,.43,.09,.86,.2,1.27,.05,.17,.26,.33,.43,.42,.53,.25,.97-.11,1.43-.28,1.32-.49,2.99,.07,3.8,1.4-.66,.19-1.29,.47-1.93,.54-.88,.09-1.69-.19-2.37-.81-.37-.33-.76-.69-1.35-.42,.02,.42,.04,.83,.07,1.27,2.18-.04,4.19,.25,5.76,2.17-.48,.1-.86,.18-1.25,.25-1.32,.23-2.97-.14-3.72-1.45-.12-.21-.27-.41-.44-.59-.07-.08-.23-.12-.33-.11-.05,0-.11,.18-.12,.28-.04,.3-.03,.6-.1,.89-.19,.83-.4,1.65-.6,2.48,3.33,.45,4.51,2.14,4.35,3.41,.49,.13,.88,.35,1,.92,.09,.4-.02,.54-.4,.59-1.1,.15-1.73-.4-1.7-1.55-.05-.02-.1-.05-.15-.07-.99-.46-2.06-.78-2.37-2.07-.09-.38-.51-.69-.79-1.05-.5,1.09-.96,2.08-1.42,3.08,.52,.23,1.07,.43,1.57,.7,.48,.27,.92,.62,1.37,.94,.03-.04,.06-.08,.09-.12-.24-.21-.48-.42-.73-.62-.35-.27-.86-.4-.81-1.03,.01-.13-.24-.3-.39-.43-.13-.11-.28-.19-.49-.32,1.85-.37,4.35,1.4,4.6,3.44-.65-.11-1.27-.22-1.88-.33,.17,.42,.36,.89,.61,1.51-.48,0-.82,.01-1.16,0-.36-.02-.74,.04-.98-.38-.15-.26-.41-.46-.62-.69,.47,1.04,1.31,1.91,.67,3.16-.43-.18-.85-.35-1.17-.49-.13,.75-.25,1.39-.38,2.14-.91-.6-1.63-1.13-1.73-2.1-.09-.84-.1-1.7-.13-2.55,0-.02,.05-.04,.12-.09,.14,.17,.3,.33,.43,.51,.11,.16,.2,.34,.29,.51q.16-1.96-.32-2.23c-.09,.14-.16,.31-.27,.42-.96,.98-.96,2.09-.53,3.31,.22,.64,.34,1.33,.4,2.01,.06,.61-.46,1.3-.96,1.46-.3,.1-.56,.1-.64-.3-.07-.38-.17-.76-.22-1.14-.24-1.67,.27-3.19,1.05-4.62,.82-1.5,1.78-2.92,2.54-4.45,1.12-2.28,1.65-4.69,1.38-7.26-.18-1.72-.56-3.35-1.52-4.81-.2-.3-.36-.56-.81-.52-.49,.04-.7-.26-.58-.74,.08-.32,0-.51-.29-.7-.61-.4-1.24-.8-1.76-1.3-.28-.27-.52-.32-.84-.3-.63,.05-1.27,.13-1.9,.14-1.93,.03-3.86,.02-5.79,.05-1.77,.03-3.55,.1-5.32,.13-2.05,.04-4.1,.06-6.15,.11-.43,0-.86,.18-1.29,.15-.7-.04-1.29-.35-1.62-1.05-.26,.37-.42,.77-.71,1-.86,.68-1.65,1.47-2.71,1.88-.71,.27-1.34,.73-2.05,.99-1.45,.54-2.91,1.03-4.39,1.48-1.22,.38-2.46,.75-3.71,.99-1.55,.3-3.13,.54-4.7,.68-1.69,.15-3.4,.2-5.1,.21-1.29,0-2.59-.05-3.87-.21-1.8-.23-3.6-.49-5.36-.92-1.65-.4-3.26-.98-4.85-1.57-1.21-.45-2.38-1-3.55-1.55-.61-.29-.73-.63-.54-1.3,.28,.11,.59,.15,.81,.32,1.32,1.06,2.9,1.6,4.45,2.11,2.07,.69,4.21,1.17,6.32,1.74,2.42,.66,4.9,.65,7.36,.67,1.74,0,3.48-.19,5.22-.31,.43-.03,.87-.04,1.29-.13,1.38-.27,2.75-.54,4.12-.86,1.56-.38,3.13-.74,4.64-1.25,1.4-.47,2.74-1.13,4.1-1.72,.07-.03,.11-.14,.16-.21,.19-.23,.36-.47,.57-.68,.51-.52,1.05-1,1.55-1.53,.84-.88,1.6-1.84,2.48-2.66,1.19-1.09,2.43-2.13,3.71-3.11,1.17-.9,2.42-1.76,3.93-1.92,.75-.08,1.64-.49,2.28,.37,.03,.04,.18-.04,.26-.02,.32,.09,.64,.2,.96,.31-.02,.06-.04,.13-.05,.19-.16,.01-.34,0-.49,.05-.11,.04-.18,.18-.27,.27,.12,.03,.25,.1,.36,.07,.2-.05,.38-.16,.64-.28-.28,.57-.87,.82-1.39,.62-.53-.2-.54-.64-.4-1.15-.34-.05-.65-.16-.95-.13-1.49,.14-2.89,.56-4.06,1.53-1.27,1.06-2.52,2.14-3.72,3.27-.77,.73-1.45,1.56-2.18,2.36,.52,.22,.92,.39,1.33,.55,.1,.04,.22,.08,.32,.08,1.54,.04,3.09,.1,4.63,.1,1.72,0,3.44-.05,5.16-.08,2.34-.04,4.67-.07,7.01-.15,1.18-.04,2.35-.2,3.53-.26,.84-.04,1.56-.3,2.15-.91,.15-.15,.38-.23,.65-.38,.05,.86-.84,.93-.98,1.66,.64-.09,1.21-.16,1.79-.24l-.02-.02Zm-1.93,.88c.39,.26,.75,.58,1.12,.87,.13,.1,.33,.31,.41,.27,.24-.11,.53-.27,.63-.49,.22-.48-.24-1.06-.78-1.08-.63-.02-1.29,.25-1.89-.17-.06-.04-.23,.05-.34,.09,0,.04,0,.09,0,.13,.29,.12,.6,.21,.85,.37Zm2.49,17.36s-.37-.03-.45,.06c-.18,.2-.28,.47-.43,.73,.56,.48,1.11,.95,1.73,1.48-.32-.86-.57-1.57-.86-2.27Zm.44-18c.39,.29,.68,.5,.97,.72,.05-.04,.09-.07,.14-.11-.1-.29-.2-.58-.33-.98-.22,.1-.43,.2-.78,.37Z"/>
          <path class="cls-1" d="M294.71,22.05c.33-.61,1.2-.92,1.92-.65-.07,.24-.15,.49-.2,.74-.05,.25-.08,.5-.12,.78,1.47-.58,1.58-.55,1.69,.3,.57,.09,1.32-.02,1.57,.29,.37,.46-.15,1.01-.47,1.46-.11,.15-.14,.35-.24,.61,.45-.07,.75-.16,1.04-.14,.37,.03,.8,.09,1.07,.3,.12,.09-.03,.62-.15,.91-.11,.26-.36,.46-.65,.82,.41,.11,.79,.19,1.15,.32,.3,.11,.67,.22,.83,.46,.2,.3-.43,1.15-.83,1.14-.49,0-.97-.1-1.48-.16,.18-.33,.32-.58,.46-.84-.17,0-.26,.05-.31,.11-.56,.68-1.25,1.17-2.13,1.35-.67,.14-1.34,.3-2.02,.44-.4,.08-.51,.25-.38,.67,.14,.44,.21,.9,.24,1.36,.08,1.08,.19,1.28,1.01,1.54,1.47-1.75,3.78-1.9,4.91-1.1-.64,.91-1.53,1.39-2.62,1.54-1.05,.15-2.09,.17-3.08-.41-.05,.68-.09,1.24-.13,1.8,.41,.18,.74,.12,1.11-.13,.78-.54,1.66-.84,2.6-.95,.63-.08,1.24,.02,1.77,.38,.28,.19,.37,.4,0,.65-.8,.54-1.71,.75-2.64,.86-1.01,.12-1.98,0-2.78-.72-.34,1.22-.66,2.37-.96,3.46,.57,.13,1.12,.27,1.68,.38,.12,.02,.28,0,.37-.07,.69-.53,1.51-.58,2.32-.58,.87,0,1.66,.21,2.19,1.18-.41,.19-.77,.4-1.16,.54-.91,.31-1.58-.27-2.31-.65-.21-.11-.44-.2-.65-.3,.35,.54,.76,.97,1.1,1.44,.35,.48,.63,1,.95,1.5-.3-.18-.62-.4-.76-.71-.56-1.2-1.41-2.01-2.74-2.24-.52-.09-1.03-.18-1.6-.28,.01-.06,.03-.2,.08-.33,.19-.53,.43-1.04,.59-1.57,.55-1.86,.43-3.77,.32-5.67-.03-.51-.17-1.03-.34-1.52-.66-1.84-1.6-3.53-2.69-5.15-.55-.82-1.07-1.66-1.63-2.46-.57-.81-1.15-1.61-1.26-2.63-.03-.3-.03-.6-.05-.89-.05-.76-.1-1.52-.15-2.37,.25,.06,.47,.04,.55,.14,.38,.45,.83,.88,1.04,1.41,.22,.56,.18,1.21,.25,1.83l.02-.02c-.61,.64-.71,1.79-.18,2.4,.06,.07,.2,.07,.3,.11l-.02-.02c.26,.48,.51,.97,.8,1.43,.18,.29,.41,.57,.67,.8,.09,.08,.45,.05,.45,.02,.2-1.04,1.03-1.65,1.38-2.61m3.27,1.89c-1.02,1.17-2.24,1.89-3.79,1.98,.45-.61,.89-1.21,1.37-1.87-.83,.39-1.58,.74-2.4,1.12,.52,.83,1.01,1.66,1.54,2.46,.23,.36,.55,.27,.73-.15,.24-.55,.39-1.18,.77-1.61,.41-.48,1.03-.78,1.56-1.16,.04,.03,.08,.06,.11,.08,.03-.29,.06-.58,.1-.86Zm1.27,1.69s-.05-.03-.08-.04c-.59,.59-1.1,1.29-1.79,1.72-.7,.43-1.57,.59-2.38,.87,.2,.52,.42,1.1,.69,1.8,.25-.31,.55-.54,.68-.86,.7-1.6,1.97-2.13,3.61-2.06,.09,0,.18-.02,.29-.03-.04-.51-.4-.35-.66-.33-.27,.02-.54,.09-.88,.15,.2-.48,.36-.85,.51-1.22Z"/>
          <path class="cls-1" d="M246.52,21.69c-.05,.25-.15,.51-.15,.76,0,1.77-.16,3.52-.84,5.18-1.09,2.67-2.96,4.68-5.43,6.13-2.57,1.51-5.33,2.55-8.3,2.83-1.44,.14-2.91-.07-4.37-.16-1.63-.1-3.14-.65-4.61-1.34-1.43-.67-2.77-1.48-3.95-2.52-.35-.31-.61-.71-.89-1.08-.27-.36-.58-.51-1.15-.33,.34,.44,.61,.88,.95,1.25,1.73,1.9,3.86,3.25,6.27,4.04,2.47,.81,5.04,.97,7.63,.64,1.09-.14,2.21-.2,3.26-.51,1.46-.44,2.91-.98,4.26-1.66,1.15-.58,2.17-1.43,3.24-2.18,1.13-.79,1.84-1.94,2.65-3.01,.94-1.24,1.31-2.65,1.44-4.16,.08-.87,.24-1.74,.31-2.61,.03-.4-.08-.81-.12-1.21-.07-.02-.14-.03-.2-.05Z"/>
          <path class="cls-1" d="M224.57,43.61c-.13-.52-.47-.87-.9-1.19-1.87-1.39-3.82-2.7-5.56-4.24-1.37-1.22-2.51-2.71-3.68-4.14-1.57-1.91-2.79-4.04-3.64-6.35-.31-.85-.4-1.78-.59-2.68-.02-.11-.02-.25-.08-.32-.2-.22-.43-.41-.66-.61-.13,.25-.33,.48-.37,.74-.15,1.15,.29,2.21,.72,3.21,.68,1.6,1.43,3.19,2.36,4.64,1.48,2.3,3.18,4.45,5.35,6.18,1.42,1.13,2.79,2.33,4.25,3.4,.82,.6,1.77,1.01,2.66,1.51,.04-.05,.09-.11,.13-.16Z"/>
          <path class="cls-1" d="M282.45,50.91c-.11-.02-.28-.28-.26-.37,.19-.65,.68-.59,1.29-.36-.11-.3-.13-.52-.25-.66-.08-.1-.4-.16-.44-.1-.42,.52-.94,.46-1.47,.3-.47-.14-.56-.51-.26-.9,.05-.07,.09-.17,.08-.25-.05-1.07,.24-1.46,1.24-1.52,.38-.02,.44-.27,.45-.51,0-.11-.25-.29-.41-.31-.41-.07-.81-.1-1.04,.41-.19,.42-.65,.42-1.04,.37-.16-.02-.44-.28-.41-.37,.07-.31,.21-.62,.41-.87,.36-.46,.78-.12,1.17,0,.46,.14,.91,.45,1.42,.15-.27-.55-.79-.91-1.51-1.12-1.45-.41-2.91-.15-4.36-.1-1.1,.04-2.2,.09-3.29,.06-.7-.02-1.1-.4-1.23-1,.2,.03,.37,.04,.53,.1,.28,.1,.53,.31,.81,.33,.92,.09,1.85,.13,2.78,.16,1.59,.04,3.18-.06,4.76,.09,2.34,.21,3.2,2.66,2.33,4.41-.07,.13-.07,.35-.02,.49,.44,1.13,.67,2.23-.23,3.27-.12,.14-.17,.44-.12,.63,.25,.85-.13,1.46-.75,1.94-.28,.22-.7,.46-.98,.39-.39-.1-.71-.48-1.1-.77,.27-.24,.47-.42,.74-.66-.26-.08-.44-.1-.56-.19-.3-.23-.63-.46-.82-.76-.24-.39,0-.76,.46-.77,.2,0,.4,.06,.59,.11,.5,.13,1.01,.45,1.48,.39,.95-.12,1.52-1.66,.95-2.74-.04,.76-.46,.82-.91,.74Zm1.07-4.11c-.03-.16-.24-.29-.36-.43-.06,.16-.14,.31-.17,.47-.03,.16-.01,.34-.02,.51,0,.77-.09,.89-.92,1.16,.34,.23,.61,.43,.86,.6,.82-.66,.75-1.49,.61-2.31Zm-1.74,7.02c.04,.07,.07,.13,.11,.2,.39-.18,.78-.35,1.15-.56,.04-.02-.06-.27-.12-.53-.46,.36-.8,.63-1.14,.9Zm1.04,.53s-.06-.24-.11-.25c-.33-.08-.56,.05-.66,.4,.34,.23,.59,.14,.77-.15Z"/>
          <path class="cls-1" d="M282.12,37c-.23-.01-.46,0-.7,0,.03,.09,.05,.27,.08,.27,.27,0,.61,.25,.78-.17,.66-.14,.86-.42,.94-1.31,.11-1.24-.8-2.33-1.91-2.3-.05-.13-.1-.38-.15-.38-.21,0-.42,.07-.63,.12,.07,.12,.11,.32,.2,.33,.17,.04,.36-.03,.55-.05-.33,.13-.66,.34-.99,.36-.43,.02-.89-.61-.81-.98,.07-.32,.6-.51,1.06-.36,.25,.08,.48,.22,.72,.31,.31,.11,.64,.19,.96,.29,.03-.07,.06-.15,.09-.22-.17-.09-.35-.17-.52-.27-.42-.26-.88-.48-1.25-.8-.27-.23-.11-.75,.19-.9,.59-.3,1.2-.03,1.41,.59,.08,.27,.15,.54,.25,.8,.18,.45,.28,.98,.58,1.33,.83,.98,.93,2.34,.17,3.37-.08,.11-.14,.3-.11,.43,.1,.37,.29,.72,.39,1.09,.34,1.23-.45,2.74-1.65,3.16-.3,.11-.59,.11-.73-.3,.2-.11,.38-.25,.59-.33,.22-.08,.47-.09,.7-.17,.49-.16,.57-.35,.38-.81-.02,0-.04-.01-.05,0-.06,.04-.12,.08-.19,.12-.67,.37-1.36,.63-2.13,.28-.38-.17-.51-.48-.3-.79,.13-.18,.5-.32,.73-.28,.28,.06,.57,.28,.75,.51,.27,.36,.56,.21,.8,.09,.17-.09,.25-.36,.37-.55-.2-.08-.41-.17-.61-.25-.07-.03-.15-.02-.22-.03-.97-.07-1.26-.5-.88-1.34-.33-.25-.87-.47-.55-.98,.16-.25,.64-.49,.92-.44,.33,.07,.95,0,.94,.66-.06-.04-.12-.12-.18-.12Zm.61,.53c-.08-.11-.53,.03-.82,.15,.7,.37,.73,1.08,1.01,1.65,.26-.65,.18-1.28-.19-1.8Zm-.56,1.49c.06-.02,.12-.04,.17-.07-.05-.2-.07-.43-.17-.61-.05-.09-.25-.1-.38-.15l-.11,.14c.16,.23,.32,.45,.48,.68Z"/>
          <path class="cls-1" d="M260.4,56.61c.28,.09,.55,.17,.86,.27,.05-1.06-.22-1.87-1.34-2.27,.1-.03,.22-.1,.3-.08,.34,.1,.7,.18,.99,.37,.66,.42,1.31,.48,2.02,.18,.09-.04,.21,0,.32,0,.02,.05,.04,.1,.06,.14-.33,.17-.67,.34-1,.51,.31,.54,1.66,1.1,2.25,.9,.15-.05,.35-.25,.35-.38,0-.19-.11-.46-.26-.56-.73-.5-1.49-.95-2.23-1.44-1.08-.71-2.21-.56-3.36-.21-.3,.09-.39,.02-.37-.33,.09-1.15,.22-2.29-.08-3.45-.13-.52-.46-.79-.79-1.1-.25-.24-.54-.44-.83-.68-.52,.21-.59,.45-.09,.75,1.2,.72,1.57,1.77,1.44,3.1-.08,.84-.11,1.68-.16,2.52-.01,.2,0,.41,0,.61,.07,.01,.13,.02,.2,.04,.09-.39,.17-.78,.24-1.09,.47,.71,.97,1.47,1.48,2.22h-.01Z"/>
          <path class="cls-1" d="M294.39,22.28c.15-.6,.35-1.2,.42-1.81,.04-.3-.14-.64-.28-.94-.04-.09-.34-.17-.45-.11-.35,.19-.66,.44-.98,.66-.11-.58-.23-1.16-.35-1.78-.88,.29-1.23,.92-1.55,1.58-.06,.13-.15,.24-.22,.36,0,0,.02-.02,.02-.02,.22,.83,.53,1.65,.12,2.51l-.02-.02c.34-.2,.68-.39,1.13-.65v2.01c.52-.41,.98-.77,1.43-1.14,.26-.21,.49-.45,.73-.67l-.02,.02Z"/>
          <path class="cls-1" d="M302.4,44.58c.43-.11,.7-.16,.97-.25,.41-.14,.68-.49,.49-.86-.16-.3-.57-.48-.9-.66-.07-.04-.28,.1-.36,.2-.29,.37-.55,.76-.85,1.19,.24,.18,.63,.42,.34,.9-.19,.32-.4,.64-.63,.94-.08,.11-.23,.18-.45,.36h1.04q-.56,1.72-1.17,2.21c1.13,0,2.11-.17,2.99-.82,.45-.34,.25-.6-.08-.77-.37-.19-.79-.26-1.19-.38-.13-.04-.26-.07-.44-.11,.36-.14,.67-.23,.94-.38,.22-.13,.59-.46,.56-.5-.2-.32-.46-.61-.74-.87-.11-.1-.3-.12-.53-.21Z"/>
          <path class="cls-1" d="M260.41,56.63c-.32-.18-.64-.36-.99-.55,.05,.4,.1,.83,.15,1.26-.06,.02-.12,.03-.19,.05-.28-.5-.56-1-.87-1.54-.53,.45-.42,.99-.41,1.5,.02,.88,.21,1.71,.9,2.34,.15,.14,.46,.3,.56,.23,.16-.11,.3-.39,.29-.59-.03-.46-.15-.91-.24-1.36-.03-.13-.06-.26-.05-.41,.55,.75,1.2,1.34,2.05,1.69,.14,.06,.36,.09,.46,.02,.09-.06,.1-.29,.08-.44-.14-.91-.82-1.41-1.51-1.9-.11-.08-.17-.21-.26-.31,0,0,.01,.01,.01,.01Z"/>
          <path class="cls-1" d="M296.07,32.2c1.59,.75,4.36-.24,5.32-2.35-1.06-.39-2.01-.22-3.04,.2-1.08,.44-1.38,1.59-2.28,2.15Z"/>
          <path class="cls-1" d="M246.79,21.36c.37-.34,.74-.69,1.11-1.03,.04,.02,.08,.05,.11,.07-.16,.45-.33,.89-.49,1.34,.05,.03,.1,.06,.15,.09,.14-.17,.25-.41,.43-.51,.34-.18,.71-.34,1.09-.4,1.05-.18,1.2-.32,1.24-1.53-.55,.09-1.08,.18-1.5,.25,.1-.48,.24-.98,.29-1.49,.02-.21-.1-.5-.25-.65-.1-.1-.51-.09-.55-.01-.59,1.08-1.15,2.17-1.7,3.27-.08,.15-.05,.36-.08,.54l.14,.08Z"/>
          <path class="cls-1" d="M296.06,47.75c.85,.29,1.61,.59,2.39,.79,1.04,.27,1.96-.05,2.74-.74,.43-.38,.37-.81-.19-.96-1.6-.44-3.17-.45-4.58,.63-.09,.07-.18,.14-.36,.28Z"/>
          <path class="cls-1" d="M296.41,55.51c.98,.83,1.81,1.64,2.74,2.29,.78,.54,1.69,.38,2.58,.16-.33-1.35-2.86-2.97-5.32-2.45Z"/>
          <path class="cls-1" d="M295.72,38c.62,.19,1.38,.38,2.11,.64,.91,.33,2.43,.23,3.23-.89-.36-.63-1-.88-1.66-.91-.76-.04-1.52,.09-2.28,.18-.15,.02-.3,.14-.43,.24-.35,.26-.7,.53-.97,.74Z"/>
          <path class="cls-1" d="M213.75,28.45c-.3,.57-.18,.9,.36,1.32,1.27,.98,2.71,.96,4.2,.75,1.21-.17,1.97-.98,2.68-1.86,.13-.16,.24-.33,.45-.61,.07,.25,.15,.4,.15,.55,0,.46,.26,.72,.67,.7,.17-.01,.45-.35,.45-.53,0-.36-.12-.77-.65-.72-.13,.01-.26-.01-.44-.02,.2-.62,.38-1.21,.57-1.8-.07-.02-.14-.04-.22-.07-.07,.16-.16,.31-.19,.48-.31,1.46-1.26,2.46-2.53,3.04-1.3,.59-2.7,.63-4.01-.11-.29-.16-.5-.44-.76-.65-.23-.17-.48-.31-.72-.47Z"/>
          <path class="cls-1" d="M303.8,42.33c.2,.47,.36,.97,.62,1.41,.11,.19,.45,.37,.67,.36,.51-.04,.98-.25,1.21-.77,.49-1.14,.14-2.4-1.14-2.62-.44-.08-.64,.17-.8,.52-.18,.39-.38,.77-.55,1.11Z"/>
          <path class="cls-1" d="M249.7,23.12c.23-.34,.49-.64,.65-.99,.23-.48,.03-.73-.5-.64-.59,.1-1.12,.31-1.49,.82-.27,.38-.56,.73-.93,1.21,.63-.08,1.21-.16,1.83-.24-.05,.19-.09,.32-.12,.43,.52,.31,1.01,.66,1.55,.9,.27,.12,.65,.13,.93,.04,.12-.04,.22-.48,.16-.69-.11-.37-.3-.75-.78-.77-.42-.02-.83-.05-1.3-.08Z"/>
          <path class="cls-1" d="M216.7,24.21c-.2-.1-.39-.28-.6-.3-1.4-.1-2.81-.18-4.21-.22-.28,0-.7-.01-.65,.49,.01,.11,.07,.29,.12,.29,.76,.08,1.05,.99,1.92,.96,1.44-.05,2.88,.04,4.32,.07,.04,0,.09-.05,.17-.1-.83-.6-1.77-.4-2.64-.48-.88-.08-1.78,.06-2.75-.29,.74-.5,1.46-.33,2.15-.33,.7,0,1.4,.09,2.1,.13,.02-.07,.05-.15,.07-.22Z"/>
          <path class="cls-1" d="M231.08,23.48c-.04-.37,.02-.72-.11-.85-.18-.16-.52-.16-.85-.24,0-.04,0-.23-.04-.41-.03-.17-.09-.33-.13-.49-.16,.08-.35,.13-.48,.25-.5,.44-.57,1.05-.67,1.85,.49-.25,.85-.44,1.28-.66,.09,.13,.24,.34,.38,.54-.18,.06-.44,.14-.7,.22-.03,.06-.06,.12-.09,.18,.24,.11,.48,.21,.72,.32-.05,.07-.1,.15-.15,.22h-1.06c-.07,.09-.15,.18-.22,.26,.17,.07,.36,.12,.52,.2,.51,.27,1,.56,1.51,.81,.16,.08,.37,.06,.55,.08-.03-.25,0-.52-.1-.73-.06-.12-.32-.16-.48-.23,.06-.08,.12-.15,.19-.23,.08-.02,.17-.04,.25-.06,.19-.06,.37-.12,.56-.17-.11-.2-.17-.45-.33-.6-.17-.16-.42-.22-.53-.27Z"/>
          <path class="cls-1" d="M217.18,24.21c.29,.25,.61,.47,.85,.76,.27,.33,.45,.73,.7,1.09,.15,.22,.32,.43,.51,.62,.03,.03,.28-.06,.28-.09,0-.27,.03-.58-.09-.8-.13-.24-.4-.42-.63-.6-.22-.17-.47-.3-.7-.45,.06-.1,.12-.2,.18-.29,.42,0,.84-.01,1.27,0,1.35,.04,2.7,.11,4.05,.12,.38,0,.8-.11,.88-.62,.07-.42-.08-.67-.5-.8-.2-.06-.33-.33-.52-.41-.2-.08-.46-.08-.66,0-.07,.02-.08,.37-.03,.54,.03,.09,.24,.12,.4,.17,.22,.1,.43,.19,.64,.29,.08,.04,.18,.1,.2,.17,.01,.07-.05,.22-.1,.23-.27,.05-.54,.1-.81,.09-.25,0-.49-.13-.74-.14-.98-.05-1.96-.08-2.94-.09-.47,0-.95-.14-1.4,.22-.12,.1-.48-.09-.73-.14-.03,.05-.06,.1-.09,.15Z"/>
          <path class="cls-1" d="M228.15,23.66c-.36,.98-1.12,1.11-1.93,1.23-1.74,.27-3.48,.22-5.22,.13-.36-.02-.73,.06-1.09,.1,0,.05-.01,.11-.02,.16,.29,.05,.58,.13,.87,.13,1.41,.03,2.82,.02,4.23,.06,1.36,.03,1.73,.99,1.61,2.06-.08,.69-.52,.91-1.17,.7-.26-.08-.57,0-.86,0,.2,.19,.38,.41,.6,.57,.42,.3,.76-.02,1.06-.23,.69-.48,1-1.54,.7-2.33-.07-.19-.24-.37-.41-.5-.28-.23-.22-.33,.07-.47,.46-.21,.93-.42,1.34-.7,.24-.16,.53-.43,.2-.92Z"/>
          <path class="cls-1" d="M301.22,50.87c.66,.62,1.15,1.12,1.69,1.57,.41,.34,1.85,.12,2.13-.34,.08-.13,.01-.44-.1-.59-.56-.73-1.4-.8-2.23-.82-.46-.01-.93,.11-1.5,.18Z"/>
          <path class="cls-1" d="M238.64,35.78c.3,.11,.51,.24,.74,.27,.5,.05,.65,.36,.59,.78-.07,.42-.23,.82-.33,1.24-.17,.69-.26,1.36,.32,1.94,.54,.55,1.22,.46,1.53-.23,.15-.34,.32-.68,.37-1.04,.03-.2-.09-.48-.23-.65-.09-.11-.37-.14-.51-.08-.11,.04-.21,.29-.18,.43,.06,.34,.23,.67,.28,1.01,.04,.25,.13,.61-.31,.64-.39,.03-.75-.12-.81-.53-.05-.36-.02-.77,.09-1.12,.27-.87,.29-1.72-.05-2.57-.23-.58-.74-.64-1.5-.1Z"/>
          <path class="cls-1" d="M300.85,34.28c.46,.03,.87,.11,1.26,.06,.74-.1,1.41-.41,1.95-.94,.26-.26,.35-.52-.1-.74-.99-.48-1.81-.5-2.3,.66-.14,.32-.46,.56-.81,.97Z"/>
          <path class="cls-1" d="M300.18,31.96c.64,.12,1.3,.39,1.91,.3,.38-.06,.7-.64,.99-1.03,.23-.32,.02-.6-.24-.81-.47-.37-1.32-.11-1.62,.38-.24,.39-.61,.7-1.04,1.16Z"/>
          <path class="cls-1" d="M248.15,24.56c.18,.82,.5,1.54,1.26,2,.13,.08,.27,.17,.41,.17,.31,0,.61-.05,.92-.08-.04-.26-.03-.54-.12-.79-.37-1.02-1.57-1.65-2.47-1.3Z"/>
          <path class="cls-1" d="M300.63,36.71c.36,.54,1.67,.87,.36,1.69,.56,.06,1.06,.12,1.56,.14,.13,0,.28-.1,.38-.2,.32-.28,.63-.57,.94-.86-.62-.73-.95-.81-3.24-.78Z"/>
          <path class="cls-1" d="M304.19,54.14c-.3-.58-.61-1.07-1.35-1.24-.75-.16-1.17,.51-1.84,.49,.94,1.28,2.04,1.54,3.2,.75Z"/>
          <path class="cls-1" d="M298.96,41.21c.79,.87,1.5,1.63,2.69,1.4,.23-.04,.44-.17,.66-.26-.1-.21-.15-.46-.3-.63-.47-.52-1.02-.79-1.76-.61-.37,.09-.77,.07-1.29,.1Z"/>
          <path class="cls-1" d="M303.26,38.61c.35,.27,.62,.49,.79,.62-.22,.38-.4,.71-.59,1.04,.26,.13,.52,.33,.78,.35,.17,.01,.45-.22,.51-.41,.14-.43-.04-.76-.47-.86,.27-.32,.59-.58,.76-.93,.1-.19,.04-.67-.09-.73-.21-.1-.59-.06-.8,.07-.32,.2-.56,.52-.89,.84Z"/>
          <path class="cls-1" d="M301.75,34.92c.23,.42,.28,.8-.25,1.04-.1,.04-.12,.24-.18,.36,.12,.02,.25,.04,.38,.05,.91,.07,1.66-.23,2.26-.93,.28-.33,.21-.55-.19-.64-.66-.16-1.34-.34-2.01,.12Z"/>
          <path class="cls-1" d="M301.89,49.02c.02,.55,1.02,.59,.57,1.29,.81,.29,1.8,.06,2.19-.49-.86-1.18-1.6-1.4-2.76-.8Z"/>
          <path class="cls-1" d="M300.78,56.04c.35,.37,.7,.75,1.06,1.13,.26,.27,1.44,.14,1.64-.17,.03-.05,.05-.1,.05-.16,.04-.53-.94-1.34-1.44-1.19-.44,.13-.88,.26-1.32,.39Z"/>
          <path class="cls-1" d="M247.66,24.42c-.85,.5-1.07,2.39-.38,2.93,.35,.28,.57-.06,.68-.32,.31-.69,.17-1.39-.06-2.07-.06-.17-.15-.34-.24-.54Z"/>
          <path class="cls-1" d="M300.02,58.53c.38,1.36,1.28,1.5,2.27,1,.48-.24,.47-.83-.04-1-.45-.16-.98-.12-1.47-.13-.25,0-.51,.09-.76,.13Z"/>
          <path class="cls-1" d="M279.1,49.69c.66-.02,1.24-.38,1.23-.77-.01-.4-.81-.84-1.4-.77-.49,.05-1.02,.44-1.02,.75,0,.4,.61,.81,1.19,.79Z"/>
          <path class="cls-1" d="M263.03,52.95c-1.56-1.02-3.47-.56-3.65,.78,1.13-.61,2.47-.14,3.65-.78Z"/>
          <path class="cls-1" d="M261.7,52.14c.79,.11,1.55,.24,2.32,.31,.22,.02,.45-.14,.67-.21-.1-.22-.16-.48-.32-.64-.57-.56-1.84-.67-2.3,.18-.07,.14-.23,.22-.37,.35Z"/>
          <path class="cls-1" d="M301.07,38.88c.23,.52,1.05,.73,.59,1.58,.62-.1,1.12-.15,1.48-.56,.34-.39,.3-.74-.17-.94-.59-.25-1.22-.47-1.89-.08Z"/>
          <path class="cls-1" d="M261.35,50.57c.63,.18,1.19,.56,1.83,.19,.02,0,.04,0,.05-.02,.27-.31,.54-.61,.81-.92-.37-.07-.74-.2-1.1-.18-.64,.04-1.24,.24-1.59,.93Z"/>
          <path class="cls-1" d="M294.02,42.49c.55-.12,.49-.54,.46-.94-.02-.27-.06-.55-.03-.82,.07-.66-.14-1.03-.8-1.1-.26-.03-.54,.18-.81,.27,.15,.34,.21,.77,.46,.99,.24,.21,.79,.1,.85,.56,.05,.34-.07,.71-.12,1.07,0,0-.02-.02-.02-.02Z"/>
          <path class="cls-1" d="M224.63,42.81c.13,.19,.19,.33,.29,.42,.34,.32,.36,.71,.25,1.13-.06,.24-.2,.48-.17,.7,.03,.23,.22,.43,.35,.64,.15-.13,.36-.22,.45-.39,.2-.38,.38-.78,.48-1.19,.06-.26,.03-.57-.4-.59-.14,0-.3-.15-.39-.28-.19-.27-.36-.55-.86-.45Z"/>
          <path class="cls-1" d="M303.74,48.41c.37,.34,.6,.68,.92,.81,.22,.09,.62-.02,.84-.18,.33-.24,.51-.68,.22-1.03-.17-.2-.6-.36-.85-.29-.38,.1-.71,.42-1.13,.69Z"/>
          <path class="cls-1" d="M239.82,40.9c-.61,.59-.9,1.72-.54,2.31,.14,.24,.47,.37,.71,.55,.11-.25,.35-.53,.32-.76-.1-.7-.31-1.38-.48-2.1Z"/>
          <path class="cls-1" d="M280.39,49.97c-.5,.06-.88,.12-.9,.63-.01,.46,.28,.74,.79,.72,.31-.01,.63-.07,.92-.19,.19-.07,.39-.25,.45-.43,.03-.09-.2-.34-.36-.42-.31-.15-.66-.24-.9-.32Z"/>
          <path class="cls-1" d="M278.4,37.83c.28,.08,.57,.25,.65,.18,.25-.23,.45-.54,.6-.85,.02-.05-.31-.3-.51-.41-.5-.26-.94-.16-1.3,.27-.27,.33-.15,.81,.26,.93,.11,.03,.27-.11,.3-.12Z"/>
          <path class="cls-1" d="M259.47,52.68c.45-.25,.85-.5,1.28-.7,.41-.19,.84-.33,1.3-.51-.44-.49-1.02-.6-1.58-.36-.84,.36-1.05,.68-1,1.57Z"/>
          <path class="cls-1" d="M303.59,46.42c.34,.3,.67,.61,1.03,.87,.11,.08,.37,.06,.48-.02,.18-.13,.41-.35,.42-.55,.01-.21-.14-.52-.32-.64-.53-.36-1.2-.18-1.62,.33Z"/>
          <path class="cls-1" d="M301.68,40.91c.36,.4,.65,.77,.99,1.09,.26,.25,.55,.17,.78-.1,.27-.31,.42-.69,.09-.98-.21-.18-.58-.24-.88-.24-.32,0-.64,.14-.98,.23Z"/>
          <path class="cls-1" d="M241.16,35.28c-.5,0-.69,.28-.44,.71,.17,.29,.38,.56,.62,.79,.13,.12,.45,.21,.55,.14,.17-.13,.31-.4,.32-.61,.02-.58-.46-1.01-1.04-1.02Z"/>
          <path class="cls-1" d="M260.02,50.72c.78,.14,1.74-.86,1.53-1.55-.07-.23-.32-.41-.49-.62-.14,.17-.33,.33-.42,.52-.23,.54-.42,1.1-.62,1.64Z"/>
          <path class="cls-1" d="M228.76,29.63c.5-.95-.06-1.99-.98-2.01-.15,0-.32,.09-.43,.2-.05,.06-.03,.27,.04,.35,.43,.48,.87,.94,1.36,1.46Z"/>
          <path class="cls-1" d="M240.27,41.67c.28,.35,.53,.72,.86,1.02,.1,.09,.56,0,.58-.09,.06-.24,.05-.55-.05-.77-.14-.28-.39-.49-.61-.72-.1-.1-.22-.17-.33-.26-.08,.11-.19,.22-.25,.34-.05,.11-.06,.25-.08,.38l-.11,.11Z"/>
          <path class="cls-1" d="M304.76,37.26c.12-.16,.37-.39,.45-.67,.09-.3-.4-.74-.77-.75-.33-.01-.86,.4-.88,.68-.02,.3,.57,.73,1.19,.73Z"/>
          <path class="cls-1" d="M262.58,53.71c.49,.31,.84,.59,1.24,.78,.54,.25,.66-.25,.81-.58,.16-.37-.14-.47-.42-.56-.55-.17-1.04-.01-1.62,.36Z"/>
          <path class="cls-1" d="M241.16,40.67c.28,.28,.44,.56,.67,.65,.32,.13,.7,.12,1.05,.17,.01-.16,.1-.41,.03-.47-.38-.31-.78-.59-1.21-.83-.06-.03-.29,.25-.54,.48Z"/>
          <path class="cls-1" d="M239.24,40.52c-1.01-.03-1.38,.38-1.28,1.36,.88,.18,1.39-.35,1.28-1.36Z"/>
          <path class="cls-1" d="M261.49,55.63c.08,.4,.08,.83,.26,1.17,.11,.21,.49,.32,.77,.4,.13,.04,.31-.11,.47-.17-.1-.22-.15-.49-.31-.65-.33-.32-.71-.57-1.08-.85-.04,.03-.07,.07-.11,.1Z"/>
          <path class="cls-1" d="M283.29,51.24c-.3,.03-.58,.08-.86,.09-.2,0-.45-.14-.59-.07-.19,.11-.34,.35-.43,.56-.03,.06,.19,.29,.33,.34,.73,.27,1.47-.22,1.55-.93Z"/>
          <path class="cls-1" d="M226.97,28.14c-.05,.86-.09,1.6-.13,2.33,.1,.03,.19,.06,.29,.09,.17-.28,.42-.54,.48-.84,.13-.68-.09-1.21-.63-1.59Z"/>
          <path class="cls-1" d="M228.35,25.1c.5,.52,.99,1.04,1.5,1.57,.64-.72,.18-1.22-1.35-1.7-.05,.05-.1,.09-.15,.14Z"/>
          <path class="cls-1" d="M243.18,37.71c-.64,0-.74,.52-.88,.96-.11,.33,.19,.53,.56,.42,.6-.18,.74-.79,.32-1.38Z"/>
          <path class="cls-1" d="M281.32,35.41c.3,.79,.54,.92,1.2,.79,.26-.05,.54-.09,.43-.41-.07-.2-.31-.44-.5-.47-.35-.05-.71,.05-1.13,.09Z"/>
          <path class="cls-1" d="M303.52,44.97c.36,.23,.67,.51,1.03,.62,.1,.03,.41-.38,.51-.63,.04-.1-.19-.41-.35-.48-.41-.17-.8-.07-1.19,.48Z"/>
          <path class="cls-1" d="M282.75,34.74c-.79-.92-1.14-1-1.78-.41,.34,.67,.95,.82,1.78,.41Z"/>
          <path class="cls-1" d="M243.17,40.4c.11-.15,.37-.35,.37-.54,0-.47-.46-.52-.79-.52-.18,0-.5,.27-.51,.43-.05,.51,.41,.52,.92,.63Z"/>
          <path class="cls-1" d="M220.18,30.07c.33,.32,.51,.63,.77,.71,.35,.1,.45-.23,.46-.54,.02-.45-.31-.58-.65-.59-.14,0-.29,.21-.58,.42Z"/>
          <path class="cls-1" d="M222.23,26.74c.3,.33,.49,.55,.68,.76,.16-.17,.5-.42,.46-.51-.11-.25-.34-.47-.57-.64-.05-.03-.28,.19-.57,.38Z"/>
          <path class="cls-1" d="M223.79,45.38c.59-.27,.96-.56,.89-1.34-.42,.24-.78,.4-1.07,.66-.07,.06,.1,.41,.18,.69Z"/>
          <path class="cls-1" d="M271.48,43.96c.06,.16,.13,.32,.21,.52-.13,.09-.26,.17-.53,.35,.32,.15,.53,.27,.77,.34,.07,.02,.26-.1,.25-.14-.02-.24-.04-.51-.15-.72-.09-.17-.29-.29-.44-.43-.03,.03-.07,.06-.1,.09Z"/>
          <path class="cls-1" d="M221.86,23.94c0-.45,.05-.75-.02-1.03-.04-.14-.31-.21-.47-.31-.03,.19-.14,.41-.08,.56,.1,.24,.31,.44,.57,.78Z"/>
          <path class="cls-1" d="M239.26,40.25c.13-.52,0-.82-.37-.98-.08-.03-.36,.14-.36,.22,0,.45,.36,.57,.72,.76Z"/>
          <path class="cls-1" d="M257.59,55.83c.25,.01,.58,.15,.59-.3,0-.13-.12-.27-.19-.41-.19,.17-.37,.35-.56,.52,.05,.06,.11,.12,.16,.18Z"/>
          <path class="cls-1" d="M247.59,21.94c-.07,.32-.12,.56-.17,.81,.11,0,.29,.05,.33,0,.14-.21,.42-.45-.16-.8Z"/>
        </g>
        <g>
          <path class="cls-1" d="M322.34,42.48c.58,.08,1.15,.16,1.79,.24-.15-.73-1.03-.81-.98-1.66,.27,.16,.5,.23,.65,.38,.6,.6,1.31,.86,2.15,.91,1.18,.06,2.35,.22,3.53,.26,2.34,.08,4.67,.1,7.01,.15,1.72,.03,3.44,.08,5.16,.08,1.54,0,3.09-.06,4.63-.1,.11,0,.22-.04,.32-.08,.41-.16,.81-.34,1.33-.55-.73-.8-1.41-1.64-2.18-2.36-1.2-1.13-2.45-2.22-3.72-3.27-1.17-.97-2.57-1.39-4.06-1.53-.3-.03-.61,.08-.95,.13,.14,.51,.12,.95-.4,1.15-.53,.2-1.12-.06-1.39-.62,.26,.12,.45,.23,.64,.28,.11,.03,.24-.05,.36-.07-.09-.09-.16-.23-.27-.27-.15-.06-.32-.04-.49-.05-.02-.06-.04-.13-.05-.19,.32-.1,.63-.21,.96-.31,.08-.02,.23,.05,.26,.02,.64-.86,1.53-.44,2.28-.37,1.51,.15,2.76,1.02,3.93,1.92,1.28,.98,2.53,2.02,3.71,3.11,.89,.82,1.65,1.78,2.48,2.66,.5,.52,1.04,1.01,1.55,1.53,.21,.21,.38,.45,.57,.68,.06,.07,.09,.18,.16,.21,1.36,.59,2.7,1.24,4.1,1.72,1.52,.51,3.09,.87,4.64,1.25,1.36,.33,2.74,.59,4.12,.86,.42,.08,.86,.1,1.29,.13,1.74,.11,3.48,.31,5.22,.31,2.47-.01,4.95,0,7.36-.67,2.11-.57,4.25-1.05,6.32-1.74,1.55-.52,3.13-1.06,4.45-2.11,.21-.17,.53-.22,.81-.32,.19,.66,.07,1.01-.54,1.3-1.17,.55-2.34,1.11-3.55,1.55-1.6,.59-3.2,1.17-4.85,1.57-1.76,.43-3.57,.69-5.36,.92-1.28,.16-2.58,.22-3.87,.21-1.7,0-3.4-.06-5.1-.21-1.58-.14-3.15-.37-4.7-.68-1.25-.24-2.49-.61-3.71-.99-1.48-.46-2.94-.95-4.39-1.48-.71-.26-1.34-.72-2.05-.99-1.06-.41-1.85-1.2-2.71-1.88-.29-.23-.45-.63-.71-1-.33,.71-.92,1.01-1.62,1.05-.43,.03-.86-.14-1.29-.15-2.05-.05-4.1-.06-6.15-.11-1.77-.04-3.55-.11-5.32-.13-1.93-.03-3.86-.02-5.79-.05-.63-.01-1.27-.1-1.9-.14-.32-.02-.56,.03-.84,.3-.52,.5-1.15,.9-1.76,1.3-.28,.19-.37,.38-.29,.7,.12,.49-.09,.79-.58,.74-.45-.04-.61,.22-.81,.52-.96,1.46-1.34,3.09-1.52,4.81-.27,2.57,.26,4.99,1.38,7.26,.75,1.53,1.72,2.95,2.54,4.45,.78,1.43,1.3,2.95,1.05,4.62-.06,.38-.15,.76-.22,1.14-.08,.4-.34,.39-.64,.3-.5-.16-1.01-.84-.96-1.46,.06-.68,.18-1.37,.4-2.01,.43-1.22,.42-2.33-.53-3.31-.11-.12-.18-.28-.27-.42q-.48,.27-.32,2.23c.1-.17,.18-.35,.29-.51,.13-.18,.28-.34,.43-.51,.06,.05,.12,.07,.12,.09-.04,.85-.04,1.7-.13,2.55-.11,.97-.82,1.5-1.73,2.1-.13-.75-.25-1.4-.38-2.14-.32,.13-.74,.31-1.17,.49-.64-1.25,.2-2.12,.67-3.16-.21,.23-.47,.43-.62,.69-.24,.42-.62,.36-.98,.38-.34,.02-.68,0-1.16,0,.25-.63,.44-1.1,.61-1.51-.61,.11-1.23,.21-1.88,.33,.25-2.04,2.75-3.81,4.6-3.44-.21,.14-.36,.22-.49,.32-.15,.13-.4,.3-.39,.43,.05,.63-.46,.75-.81,1.03-.25,.2-.49,.41-.73,.62,.03,.04,.06,.08,.09,.12,.46-.32,.89-.67,1.37-.94,.5-.28,1.04-.47,1.57-.7-.46-1-.91-1.99-1.42-3.08-.28,.36-.7,.66-.79,1.05-.31,1.29-1.38,1.61-2.37,2.07-.05,.02-.1,.05-.15,.07,.02,1.14-.6,1.7-1.7,1.55-.38-.05-.49-.2-.4-.59,.12-.57,.51-.79,1-.92-.17-1.27,1.02-2.97,4.35-3.41-.2-.83-.41-1.65-.6-2.48-.06-.29-.06-.59-.1-.89-.01-.1-.07-.27-.12-.28-.11-.01-.26,.03-.33,.11-.17,.18-.32,.38-.44,.59-.75,1.31-2.4,1.68-3.72,1.45-.38-.07-.76-.15-1.25-.25,1.56-1.92,3.58-2.21,5.76-2.17,.02-.44,.05-.85,.07-1.27-.58-.27-.98,.09-1.35,.42-.68,.62-1.49,.9-2.37,.81-.65-.07-1.27-.34-1.93-.54,.81-1.33,2.48-1.89,3.8-1.4,.46,.17,.9,.53,1.43,.28,.18-.08,.39-.25,.43-.42,.11-.41,.14-.84,.2-1.27-.7-.15-1.27,.17-1.82,.52-.99,.64-2.27,.66-3.24,.03-.19-.13-.42-.2-.63-.31,.55-.99,1.47-1.18,2.48-1.07,1.07,.12,2.13,.33,3.19,.51,.45-1.05,.9-2.09,1.34-3.12-.39-.08-.92-.04-1.27-.28-.59-.4-1.02-.23-1.59,.03-.96,.43-2.79,.28-3.51-.62-.27-.34-.27-.53,.16-.71,1.1-.46,2.11-.17,3.1,.32,.08,.04,.15,.1,.25,.16-.15-.78-.79-1.27-1.53-1.25-.5,.02-1,0-1.5-.05-.63-.05-.95-.51-1.35-1.11,.49,.05,.83,.1,1.17,.13,.11,.01,.24,.03,.34,0,.67-.26,1.22-.09,1.65,.56,.11-.21,.19-.35,.26-.48,.04,.02,.1,.04,.1,.06,.16,.94,.79,1.58,1.53,2.04,.72,.44,1.56,.7,2.37,1,.11,.04,.31-.14,.48-.22-.77-1.09,.07-2.01,.15-2.99-.65-.12-.94,.15-.93,.83,0,.36-.03,.72-.05,1.08-1.22-.14-1.49-.57-1.05-1.56-.33-.02-.68,0-1-.09-.22-.06-.56-.31-.54-.43,.04-.23,.25-.53,.46-.61,.32-.13,.71-.09,1.09-.12-.03-.16-.1-.36-.11-.56-.03-.48,.5-.94,.93-.81,.1,.03,.19,.25,.21,.39,.05,.37,.03,.74,.1,1.1,.12,.56,.7,.72,1.17,.35l-.02,.02Zm2.79,.49s0-.09,0-.13c-.12-.03-.28-.13-.34-.09-.6,.42-1.26,.15-1.89,.17-.54,.02-1,.59-.78,1.08,.1,.22,.39,.38,.63,.49,.08,.04,.27-.17,.41-.27,.37-.29,.73-.61,1.12-.87,.26-.17,.57-.25,.85-.37Zm-4.2,20c.62-.53,1.17-1,1.73-1.48-.14-.26-.25-.53-.43-.73-.08-.09-.44-.1-.45-.06-.29,.7-.54,1.41-.86,2.27Zm-.36-20.64c-.13,.39-.23,.68-.33,.98,.05,.04,.09,.07,.14,.11,.29-.22,.58-.43,.97-.72-.35-.16-.56-.26-.78-.37Z"/>
          <path class="cls-1" d="M321.97,22.34c.36,.96,1.19,1.57,1.38,2.61,0,.02,.36,.06,.45-.02,.25-.24,.48-.51,.67-.8,.29-.46,.54-.95,.8-1.43l-.02,.02c.1-.03,.24-.04,.3-.11,.53-.62,.43-1.76-.18-2.4l.02,.02c.07-.61,.04-1.27,.25-1.83,.2-.53,.66-.96,1.04-1.41,.08-.1,.3-.08,.55-.14-.05,.85-.11,1.61-.15,2.37-.02,.3-.02,.6-.05,.89-.11,1.02-.69,1.82-1.26,2.63-.57,.8-1.09,1.64-1.63,2.46-1.08,1.62-2.03,3.31-2.69,5.15-.17,.49-.31,1.01-.34,1.52-.1,1.9-.23,3.81,.32,5.67,.16,.53,.39,1.05,.59,1.57,.05,.13,.07,.27,.08,.33-.57,.1-1.08,.19-1.6,.28-1.33,.24-2.19,1.04-2.74,2.24-.14,.3-.46,.53-.76,.71,.31-.5,.6-1.02,.95-1.5,.35-.47,.75-.9,1.1-1.44-.22,.1-.44,.19-.65,.3-.73,.38-1.4,.96-2.31,.65-.39-.13-.75-.35-1.16-.54,.53-.97,1.32-1.18,2.19-1.18,.81,0,1.63,.05,2.32,.58,.09,.07,.25,.09,.37,.07,.56-.11,1.11-.25,1.68-.38-.3-1.09-.62-2.24-.96-3.46-.8,.72-1.77,.84-2.78,.72-.93-.11-1.83-.32-2.64-.86-.37-.25-.28-.46,0-.65,.53-.37,1.14-.46,1.77-.38,.94,.11,1.83,.41,2.6,.95,.37,.26,.7,.32,1.11,.13-.04-.56-.08-1.13-.13-1.8-.99,.58-2.03,.56-3.08,.41-1.09-.15-1.98-.63-2.62-1.54,1.13-.81,3.44-.65,4.91,1.1,.82-.26,.93-.46,1.01-1.54,.03-.46,.1-.92,.24-1.36,.13-.42,.02-.59-.38-.67-.68-.14-1.34-.3-2.02-.44-.88-.18-1.57-.67-2.13-1.35-.06-.07-.14-.12-.31-.11,.14,.26,.28,.52,.46,.84-.5,.06-.99,.16-1.48,.16-.4,0-1.03-.85-.83-1.14,.16-.23,.53-.34,.83-.46,.36-.13,.74-.21,1.15-.32-.29-.36-.54-.56-.65-.82-.12-.29-.27-.82-.15-.91,.28-.21,.7-.26,1.07-.3,.29-.03,.59,.07,1.04,.14-.1-.26-.14-.46-.24-.61-.33-.45-.85-1.01-.47-1.46,.25-.31,1-.2,1.57-.29,.11-.85,.22-.88,1.69-.3-.04-.28-.07-.53-.12-.78-.05-.25-.13-.5-.2-.74,.72-.27,1.58,.05,1.92,.65m-2.87,3.07s.08-.06,.11-.08c.53,.38,1.15,.68,1.56,1.16,.37,.44,.53,1.06,.77,1.61,.18,.42,.5,.5,.73,.15,.53-.8,1.02-1.63,1.54-2.46-.82-.38-1.56-.73-2.4-1.12,.48,.65,.92,1.26,1.37,1.87-1.54-.09-2.77-.81-3.79-1.98,.03,.29,.06,.58,.1,.86Zm-.86,2.05c-.34-.06-.61-.13-.88-.15-.26-.02-.61-.18-.66,.33,.11,.01,.2,.03,.29,.03,1.64-.07,2.92,.46,3.61,2.06,.13,.31,.43,.55,.68,.86,.27-.7,.49-1.28,.69-1.8-.81-.28-1.68-.44-2.38-.87-.69-.43-1.2-1.14-1.79-1.72-.03,.01-.05,.03-.08,.04,.15,.37,.31,.73,.51,1.22Z"/>
          <path class="cls-1" d="M369.86,21.67c.05,.25,.15,.51,.15,.76,0,1.77,.16,3.52,.84,5.18,1.09,2.67,2.96,4.68,5.43,6.13,2.57,1.51,5.33,2.55,8.3,2.83,1.44,.14,2.91-.07,4.37-.16,1.63-.1,3.14-.65,4.61-1.34,1.43-.67,2.77-1.48,3.95-2.52,.35-.31,.61-.71,.89-1.08,.27-.36,.58-.51,1.15-.33-.34,.44-.61,.88-.95,1.25-1.73,1.9-3.86,3.25-6.27,4.04-2.47,.81-5.04,.97-7.63,.64-1.09-.14-2.21-.2-3.26-.51-1.46-.44-2.91-.98-4.26-1.66-1.15-.58-2.17-1.43-3.24-2.18-1.13-.79-1.84-1.94-2.65-3.01-.94-1.24-1.31-2.65-1.44-4.16-.08-.87-.24-1.74-.31-2.61-.03-.4,.08-.81,.12-1.21,.07-.02,.14-.03,.2-.05Z"/>
          <path class="cls-1" d="M391.81,43.58c.13-.52,.47-.87,.9-1.19,1.87-1.39,3.82-2.7,5.56-4.24,1.37-1.22,2.51-2.71,3.68-4.14,1.57-1.91,2.79-4.04,3.64-6.35,.31-.85,.4-1.78,.59-2.68,.02-.11,.02-.25,.08-.32,.2-.22,.43-.41,.66-.61,.13,.25,.33,.48,.37,.74,.15,1.15-.29,2.21-.72,3.21-.68,1.6-1.43,3.19-2.36,4.64-1.48,2.3-3.18,4.45-5.35,6.18-1.42,1.13-2.79,2.33-4.25,3.4-.82,.6-1.77,1.01-2.66,1.51-.04-.05-.09-.11-.13-.16Z"/>
          <path class="cls-1" d="M333.02,50.15c-.57,1.08,0,2.62,.95,2.74,.47,.06,.98-.25,1.48-.39,.19-.05,.4-.12,.59-.11,.45,.02,.7,.39,.46,.77-.19,.31-.53,.53-.82,.76-.12,.09-.3,.11-.56,.19,.27,.24,.46,.41,.74,.66-.39,.29-.71,.67-1.1,.77-.28,.07-.71-.18-.98-.39-.62-.48-1-1.09-.75-1.94,.05-.19,0-.48-.12-.63-.9-1.04-.67-2.14-.23-3.27,.05-.14,.05-.36-.02-.49-.87-1.74-.01-4.19,2.33-4.41,1.57-.14,3.17-.05,4.76-.09,.93-.02,1.86-.07,2.78-.16,.28-.03,.54-.23,.81-.33,.16-.06,.33-.06,.53-.1-.13,.61-.53,.98-1.23,1-1.1,.03-2.2-.02-3.29-.06-1.46-.05-2.92-.3-4.36,.1-.73,.2-1.24,.57-1.51,1.12,.52,.29,.96-.02,1.42-.15,.39-.12,.81-.46,1.17,0,.19,.25,.34,.56,.41,.87,.02,.09-.25,.35-.41,.37-.39,.05-.85,.05-1.04-.37-.23-.52-.63-.48-1.04-.41-.16,.03-.41,.2-.41,.31,0,.24,.06,.49,.45,.51,1.01,.06,1.29,.44,1.24,1.52,0,.08,.03,.18,.08,.25,.3,.39,.21,.76-.26,.9-.53,.15-1.06,.21-1.47-.3-.05-.06-.36,0-.44,.1-.12,.14-.15,.36-.25,.66,.61-.23,1.1-.29,1.29,.36,.03,.1-.15,.35-.26,.37-.45,.08-.87,.03-.91-.74Zm.45-1.06c.25-.17,.52-.37,.86-.6-.82-.27-.91-.39-.92-1.16,0-.17,.01-.34-.02-.51-.03-.16-.11-.31-.17-.47-.13,.14-.34,.27-.36,.43-.14,.82-.21,1.65,.61,2.31Zm0,3.81c-.06,.26-.16,.51-.12,.53,.37,.21,.76,.38,1.15,.56,.04-.07,.07-.13,.11-.2-.34-.27-.67-.53-1.14-.9Zm.86,1.58c-.1-.35-.33-.48-.66-.4-.06,.01-.14,.21-.11,.25,.18,.29,.43,.38,.77,.15Z"/>
          <path class="cls-1" d="M334.08,37.1c-.02-.66,.6-.59,.94-.66,.27-.06,.76,.18,.92,.44,.32,.51-.22,.73-.55,.98,.38,.84,.1,1.27-.88,1.34-.08,0-.16,0-.22,.03-.21,.08-.41,.17-.61,.25,.12,.19,.2,.46,.37,.55,.24,.12,.53,.27,.8-.09,.18-.24,.47-.46,.75-.51,.22-.05,.6,.09,.73,.28,.21,.31,.08,.62-.3,.79-.77,.35-1.46,.09-2.13-.28-.06-.04-.12-.08-.19-.12-.01,0-.03,0-.05,0-.19,.45-.11,.65,.38,.81,.23,.08,.48,.08,.7,.17,.21,.08,.39,.21,.59,.33-.14,.41-.42,.4-.73,.3-1.2-.42-1.99-1.92-1.65-3.16,.1-.37,.29-.72,.39-1.09,.03-.12-.03-.32-.11-.43-.76-1.03-.65-2.39,.17-3.37,.3-.36,.41-.88,.58-1.33,.1-.26,.17-.53,.25-.8,.2-.63,.82-.89,1.41-.59,.31,.15,.46,.67,.19,.9-.37,.32-.83,.55-1.25,.8-.17,.1-.35,.18-.52,.27,.03,.07,.06,.15,.09,.22,.32-.09,.64-.18,.96-.29,.25-.09,.48-.23,.72-.31,.46-.15,.99,.04,1.06,.36,.08,.37-.39,1-.81,.98-.34-.02-.66-.23-.99-.36,.18,.02,.38,.09,.55,.05,.09-.02,.13-.22,.2-.33-.21-.05-.42-.12-.63-.12-.05,0-.1,.24-.15,.38-1.11-.03-2.02,1.07-1.91,2.3,.08,.89,.28,1.16,.94,1.31,.17,.43,.51,.18,.78,.17,.03,0,.05-.18,.08-.27-.23,0-.46-.02-.7,0-.06,0-.12,.08-.18,.12Zm-.62,2.22c.29-.57,.31-1.28,1.01-1.65-.29-.12-.74-.27-.82-.15-.38,.53-.45,1.15-.19,1.8Zm1.24-1l-.11-.14c-.13,.05-.33,.06-.38,.15-.1,.18-.12,.4-.17,.61,.06,.02,.12,.04,.17,.07,.16-.23,.32-.45,.48-.68Z"/>
          <path class="cls-1" d="M355.98,56.59c-.28,.09-.55,.17-.86,.27-.05-1.06,.22-1.87,1.34-2.27-.1-.03-.22-.1-.3-.08-.34,.1-.7,.18-.99,.37-.66,.42-1.31,.48-2.02,.18-.09-.04-.21,0-.32,0-.02,.05-.04,.1-.06,.14,.33,.17,.67,.34,1,.51-.31,.54-1.66,1.1-2.25,.9-.15-.05-.35-.25-.35-.38,0-.19,.11-.46,.26-.56,.73-.5,1.49-.95,2.23-1.44,1.08-.71,2.21-.56,3.36-.21,.3,.09,.39,.02,.37-.33-.09-1.15-.22-2.29,.08-3.45,.13-.52,.46-.79,.79-1.1,.25-.24,.54-.44,.83-.68,.52,.21,.59,.45,.09,.75-1.2,.72-1.57,1.77-1.44,3.1,.08,.84,.11,1.68,.16,2.52,.01,.2,0,.41,0,.61-.07,.01-.13,.02-.2,.04-.09-.39-.17-.78-.24-1.09-.47,.71-.97,1.47-1.48,2.22h.01Z"/>
          <path class="cls-1" d="M321.99,22.25c-.15-.6-.35-1.2-.42-1.81-.04-.3,.14-.64,.28-.94,.04-.09,.34-.17,.45-.11,.35,.19,.66,.44,.98,.66,.11-.58,.23-1.16,.35-1.78,.88,.29,1.23,.92,1.55,1.58,.06,.13,.15,.24,.22,.36,0,0-.02-.02-.02-.02-.22,.83-.53,1.65-.12,2.51l.02-.02c-.34-.2-.68-.39-1.13-.65v2.01c-.52-.41-.98-.77-1.43-1.14-.26-.21-.49-.45-.73-.67l.02,.02Z"/>
          <path class="cls-1" d="M313.99,44.56c-.43-.11-.7-.16-.97-.25-.41-.14-.68-.49-.49-.86,.16-.3,.57-.48,.9-.66,.07-.04,.28,.1,.36,.2,.29,.37,.55,.76,.85,1.19-.24,.18-.63,.42-.34,.9,.19,.32,.4,.64,.63,.94,.08,.11,.23,.18,.45,.36h-1.04q.56,1.72,1.17,2.21c-1.13,0-2.11-.17-2.99-.82-.45-.34-.25-.6,.08-.77,.37-.19,.79-.26,1.19-.38,.13-.04,.26-.07,.44-.11-.36-.14-.67-.23-.94-.38-.22-.13-.59-.46-.56-.5,.2-.32,.46-.61,.74-.87,.11-.1,.3-.12,.53-.21Z"/>
          <path class="cls-1" d="M355.97,56.6c.32-.18,.64-.36,.99-.55-.05,.4-.1,.83-.15,1.26,.06,.02,.12,.03,.19,.05,.28-.5,.56-1,.87-1.54,.53,.45,.42,.99,.41,1.5-.02,.88-.21,1.71-.9,2.34-.15,.14-.46,.3-.56,.23-.16-.11-.3-.39-.29-.59,.03-.46,.15-.91,.24-1.36,.03-.13,.06-.26,.05-.41-.55,.75-1.2,1.34-2.05,1.69-.14,.06-.36,.09-.46,.02-.09-.06-.1-.29-.08-.44,.14-.91,.82-1.41,1.51-1.9,.11-.08,.17-.21,.26-.31,0,0-.01,.01-.01,.01Z"/>
          <path class="cls-1" d="M320.31,32.17c-1.59,.75-4.36-.24-5.32-2.35,1.06-.39,2.01-.22,3.04,.2,1.08,.44,1.38,1.59,2.28,2.15Z"/>
          <path class="cls-1" d="M369.6,21.34c-.37-.34-.74-.69-1.11-1.03-.04,.02-.08,.05-.11,.07,.16,.45,.33,.89,.49,1.34-.05,.03-.1,.06-.15,.09-.14-.17-.25-.41-.43-.51-.34-.18-.71-.34-1.09-.4-1.05-.18-1.2-.32-1.24-1.53,.55,.09,1.08,.18,1.5,.25-.1-.48-.24-.98-.29-1.49-.02-.21,.1-.5,.25-.65,.1-.1,.51-.09,.55-.01,.59,1.08,1.15,2.17,1.7,3.27,.08,.15,.05,.36,.08,.54l-.14,.08Z"/>
          <path class="cls-1" d="M320.32,47.72c-.85,.29-1.61,.59-2.39,.79-1.04,.27-1.96-.05-2.74-.74-.43-.38-.37-.81,.19-.96,1.6-.44,3.17-.45,4.58,.63,.09,.07,.18,.14,.36,.28Z"/>
          <path class="cls-1" d="M319.97,55.48c-.98,.83-1.81,1.64-2.74,2.29-.78,.54-1.69,.38-2.58,.16,.33-1.35,2.86-2.97,5.32-2.45Z"/>
          <path class="cls-1" d="M320.66,37.97c-.62,.19-1.38,.38-2.11,.64-.91,.33-2.43,.23-3.23-.89,.36-.63,1-.88,1.66-.91,.76-.04,1.52,.09,2.28,.18,.15,.02,.3,.14,.43,.24,.35,.26,.7,.53,.97,.74Z"/>
          <path class="cls-1" d="M402.63,28.43c.3,.57,.18,.9-.36,1.32-1.27,.98-2.71,.96-4.2,.75-1.21-.17-1.97-.98-2.68-1.86-.13-.16-.24-.33-.45-.61-.07,.25-.15,.4-.15,.55,0,.46-.26,.72-.67,.7-.17-.01-.45-.35-.45-.53,0-.36,.12-.77,.65-.72,.13,.01,.26-.01,.44-.02-.2-.62-.38-1.21-.57-1.8,.07-.02,.14-.04,.22-.07,.07,.16,.16,.31,.19,.48,.31,1.46,1.26,2.46,2.53,3.04,1.3,.59,2.7,.63,4.01-.11,.29-.16,.5-.44,.76-.65,.23-.17,.48-.31,.72-.47Z"/>
          <path class="cls-1" d="M312.58,42.3c-.2,.47-.36,.97-.62,1.41-.11,.19-.45,.37-.67,.36-.51-.04-.98-.25-1.21-.77-.49-1.14-.14-2.4,1.14-2.62,.44-.08,.64,.17,.8,.52,.18,.39,.38,.77,.55,1.11Z"/>
          <path class="cls-1" d="M366.68,23.1c-.23-.34-.49-.64-.65-.99-.23-.48-.03-.73,.5-.64,.59,.1,1.12,.31,1.49,.82,.27,.38,.56,.73,.93,1.21-.63-.08-1.21-.16-1.83-.24,.05,.19,.09,.32,.12,.43-.52,.31-1.01,.66-1.55,.9-.27,.12-.65,.13-.93,.04-.12-.04-.22-.48-.16-.69,.11-.37,.3-.75,.78-.77,.42-.02,.83-.05,1.3-.08Z"/>
          <path class="cls-1" d="M399.68,24.19c.2-.1,.39-.28,.6-.3,1.4-.1,2.81-.18,4.21-.22,.28,0,.7-.01,.65,.49-.01,.11-.07,.29-.12,.29-.76,.08-1.05,.99-1.92,.96-1.44-.05-2.88,.04-4.32,.07-.04,0-.09-.05-.17-.1,.83-.6,1.77-.4,2.64-.48,.88-.08,1.78,.06,2.75-.29-.74-.5-1.46-.33-2.15-.33-.7,0-1.4,.09-2.1,.13-.02-.07-.05-.15-.07-.22Z"/>
          <path class="cls-1" d="M385.31,23.45c.04-.37-.02-.72,.11-.85,.18-.16,.52-.16,.85-.24,0-.04,0-.23,.04-.41,.03-.17,.09-.33,.13-.49,.16,.08,.35,.13,.48,.25,.5,.44,.57,1.05,.67,1.85-.49-.25-.85-.44-1.28-.66-.09,.13-.24,.34-.38,.54,.18,.06,.44,.14,.7,.22,.03,.06,.06,.12,.09,.18-.24,.11-.48,.21-.72,.32,.05,.07,.1,.15,.15,.22h1.06c.07,.09,.15,.18,.22,.26-.17,.07-.36,.12-.52,.2-.51,.27-1,.56-1.51,.81-.16,.08-.37,.06-.55,.08,.03-.25,0-.52,.1-.73,.06-.12,.32-.16,.48-.23-.06-.08-.12-.15-.19-.23-.08-.02-.17-.04-.25-.06-.19-.06-.37-.12-.56-.17,.11-.2,.17-.45,.33-.6,.17-.16,.42-.22,.53-.27Z"/>
          <path class="cls-1" d="M399.2,24.19c-.29,.25-.61,.47-.85,.76-.27,.33-.45,.73-.7,1.09-.15,.22-.32,.43-.51,.62-.03,.03-.28-.06-.28-.09,0-.27-.03-.58,.09-.8,.13-.24,.4-.42,.63-.6,.22-.17,.47-.3,.7-.45-.06-.1-.12-.2-.18-.29-.42,0-.84-.01-1.27,0-1.35,.04-2.7,.11-4.05,.12-.38,0-.8-.11-.88-.62-.07-.42,.08-.67,.5-.8,.2-.06,.33-.33,.52-.41,.2-.08,.46-.08,.66,0,.07,.02,.08,.37,.03,.54-.03,.09-.24,.12-.4,.17-.22,.1-.43,.19-.64,.29-.08,.04-.18,.1-.2,.17-.01,.07,.05,.22,.1,.23,.27,.05,.54,.1,.81,.09,.25,0,.49-.13,.74-.14,.98-.05,1.96-.08,2.94-.09,.47,0,.95-.14,1.4,.22,.12,.1,.48-.09,.73-.14,.03,.05,.06,.1,.09,.15Z"/>
          <path class="cls-1" d="M388.23,23.64c.36,.98,1.12,1.11,1.93,1.23,1.74,.27,3.48,.22,5.22,.13,.36-.02,.73,.06,1.09,.1,0,.05,.01,.11,.02,.16-.29,.05-.58,.13-.87,.13-1.41,.03-2.82,.02-4.23,.06-1.36,.03-1.73,.99-1.61,2.06,.08,.69,.52,.91,1.17,.7,.26-.08,.57,0,.86,0-.2,.19-.38,.41-.6,.57-.42,.3-.76-.02-1.06-.23-.69-.48-1-1.54-.7-2.33,.07-.19,.24-.37,.41-.5,.28-.23,.22-.33-.07-.47-.46-.21-.93-.42-1.34-.7-.24-.16-.53-.43-.2-.92Z"/>
          <path class="cls-1" d="M315.16,50.85c-.66,.62-1.15,1.12-1.69,1.57-.41,.34-1.85,.12-2.13-.34-.08-.13-.01-.44,.1-.59,.56-.73,1.4-.8,2.23-.82,.46-.01,.93,.11,1.5,.18Z"/>
          <path class="cls-1" d="M377.74,35.75c-.3,.11-.51,.24-.74,.27-.5,.05-.65,.36-.59,.78,.07,.42,.23,.82,.33,1.24,.17,.69,.26,1.36-.32,1.94-.54,.55-1.22,.46-1.53-.23-.15-.34-.32-.68-.37-1.04-.03-.2,.09-.48,.23-.65,.09-.11,.37-.14,.51-.08,.11,.04,.21,.29,.18,.43-.06,.34-.23,.67-.28,1.01-.04,.25-.13,.61,.31,.64,.39,.03,.75-.12,.81-.53,.05-.36,.02-.77-.09-1.12-.27-.87-.29-1.72,.05-2.57,.23-.58,.74-.64,1.5-.1Z"/>
          <path class="cls-1" d="M315.53,34.26c-.46,.03-.87,.11-1.26,.06-.74-.1-1.41-.41-1.95-.94-.26-.26-.35-.52,.1-.74,.99-.48,1.81-.5,2.3,.66,.14,.32,.46,.56,.81,.97Z"/>
          <path class="cls-1" d="M316.2,31.93c-.64,.12-1.3,.39-1.91,.3-.38-.06-.7-.64-.99-1.03-.23-.32-.02-.6,.24-.81,.47-.37,1.32-.11,1.62,.38,.24,.39,.61,.7,1.04,1.16Z"/>
          <path class="cls-1" d="M368.23,24.53c-.18,.82-.5,1.54-1.26,2-.13,.08-.27,.17-.41,.17-.31,0-.61-.05-.92-.08,.04-.26,.03-.54,.12-.79,.37-1.02,1.57-1.65,2.47-1.3Z"/>
          <path class="cls-1" d="M315.75,36.69c-.36,.54-1.67,.87-.36,1.69-.56,.06-1.06,.12-1.56,.14-.13,0-.28-.1-.38-.2-.32-.28-.63-.57-.94-.86,.62-.73,.95-.81,3.24-.78Z"/>
          <path class="cls-1" d="M312.19,54.11c.3-.58,.61-1.07,1.35-1.24,.75-.16,1.17,.51,1.84,.49-.94,1.28-2.04,1.54-3.2,.75Z"/>
          <path class="cls-1" d="M317.42,41.19c-.79,.87-1.5,1.63-2.69,1.4-.23-.04-.44-.17-.66-.26,.1-.21,.15-.46,.3-.63,.47-.52,1.02-.79,1.76-.61,.37,.09,.77,.07,1.29,.1Z"/>
          <path class="cls-1" d="M313.12,38.59c-.35,.27-.62,.49-.79,.62,.22,.38,.4,.71,.59,1.04-.26,.13-.52,.33-.78,.35-.17,.01-.45-.22-.51-.41-.14-.43,.04-.76,.47-.86-.27-.32-.59-.58-.76-.93-.1-.19-.04-.67,.09-.73,.21-.1,.59-.06,.8,.07,.32,.2,.56,.52,.89,.84Z"/>
          <path class="cls-1" d="M314.63,34.89c-.23,.42-.28,.8,.25,1.04,.1,.04,.12,.24,.18,.36-.12,.02-.25,.04-.38,.05-.91,.07-1.66-.23-2.26-.93-.28-.33-.21-.55,.19-.64,.66-.16,1.34-.34,2.01,.12Z"/>
          <path class="cls-1" d="M314.49,48.99c-.02,.55-1.02,.59-.57,1.29-.81,.29-1.8,.06-2.19-.49,.86-1.18,1.6-1.4,2.76-.8Z"/>
          <path class="cls-1" d="M315.6,56.02c-.35,.37-.7,.75-1.06,1.13-.26,.27-1.44,.14-1.64-.17-.03-.05-.05-.1-.05-.16-.04-.53,.94-1.34,1.44-1.19,.44,.13,.88,.26,1.32,.39Z"/>
          <path class="cls-1" d="M368.72,24.39c.85,.5,1.07,2.39,.38,2.93-.35,.28-.57-.06-.68-.32-.31-.69-.17-1.39,.06-2.07,.06-.17,.15-.34,.24-.54Z"/>
          <path class="cls-1" d="M316.36,58.5c-.38,1.36-1.28,1.5-2.27,1-.48-.24-.47-.83,.04-1,.45-.16,.98-.12,1.47-.13,.25,0,.51,.09,.76,.13Z"/>
          <path class="cls-1" d="M337.28,49.67c-.66-.02-1.24-.38-1.23-.77,.01-.4,.81-.84,1.4-.77,.49,.05,1.02,.44,1.02,.75,0,.4-.61,.81-1.19,.79Z"/>
          <path class="cls-1" d="M353.35,52.93c1.56-1.02,3.47-.56,3.65,.78-1.13-.61-2.47-.14-3.65-.78Z"/>
          <path class="cls-1" d="M354.68,52.11c-.79,.11-1.55,.24-2.32,.31-.22,.02-.45-.14-.67-.21,.1-.22,.16-.48,.32-.64,.57-.56,1.84-.67,2.3,.18,.07,.14,.23,.22,.37,.35Z"/>
          <path class="cls-1" d="M315.31,38.85c-.23,.52-1.05,.73-.59,1.58-.62-.1-1.12-.15-1.48-.56-.34-.39-.3-.74,.17-.94,.59-.25,1.22-.47,1.89-.08Z"/>
          <path class="cls-1" d="M355.03,50.54c-.63,.18-1.19,.56-1.83,.19-.02,0-.04,0-.05-.02-.27-.31-.54-.61-.81-.92,.37-.07,.74-.2,1.1-.18,.64,.04,1.24,.24,1.59,.93Z"/>
          <path class="cls-1" d="M322.36,42.46c-.55-.12-.49-.54-.46-.94,.02-.27,.06-.55,.03-.82-.07-.66,.14-1.03,.8-1.1,.26-.03,.54,.18,.81,.27-.15,.34-.21,.77-.46,.99-.24,.21-.79,.1-.85,.56-.05,.34,.07,.71,.12,1.07,0,0,.02-.02,.02-.02Z"/>
          <path class="cls-1" d="M391.76,42.79c-.13,.19-.19,.33-.29,.42-.34,.32-.36,.71-.25,1.13,.06,.24,.2,.48,.17,.7-.03,.23-.22,.43-.35,.64-.15-.13-.36-.22-.45-.39-.2-.38-.38-.78-.48-1.19-.06-.26-.03-.57,.4-.59,.14,0,.3-.15,.39-.28,.19-.27,.36-.55,.86-.45Z"/>
          <path class="cls-1" d="M312.64,48.38c-.37,.34-.6,.68-.92,.81-.22,.09-.62-.02-.84-.18-.33-.24-.51-.68-.22-1.03,.17-.2,.6-.36,.85-.29,.38,.1,.71,.42,1.13,.69Z"/>
          <path class="cls-1" d="M376.56,40.87c.61,.59,.9,1.72,.54,2.31-.14,.24-.47,.37-.71,.55-.11-.25-.35-.53-.32-.76,.1-.7,.31-1.38,.48-2.1Z"/>
          <path class="cls-1" d="M335.99,49.94c.5,.06,.88,.12,.9,.63,.01,.46-.28,.74-.79,.72-.31-.01-.63-.07-.92-.19-.19-.07-.39-.25-.45-.43-.03-.09,.2-.34,.36-.42,.31-.15,.66-.24,.9-.32Z"/>
          <path class="cls-1" d="M337.98,37.8c-.28,.08-.57,.25-.65,.18-.25-.23-.45-.54-.6-.85-.02-.05,.31-.3,.51-.41,.5-.26,.94-.16,1.3,.27,.27,.33,.15,.81-.26,.93-.11,.03-.27-.11-.3-.12Z"/>
          <path class="cls-1" d="M356.91,52.65c-.45-.25-.85-.5-1.28-.7-.41-.19-.84-.33-1.3-.51,.44-.49,1.02-.6,1.58-.36,.84,.36,1.05,.68,1,1.57Z"/>
          <path class="cls-1" d="M312.8,46.39c-.34,.3-.67,.61-1.03,.87-.11,.08-.37,.06-.48-.02-.18-.13-.41-.35-.42-.55-.01-.21,.14-.52,.32-.64,.53-.36,1.2-.18,1.62,.33Z"/>
          <path class="cls-1" d="M314.7,40.89c-.36,.4-.65,.77-.99,1.09-.26,.25-.55,.17-.78-.1-.27-.31-.42-.69-.09-.98,.21-.18,.58-.24,.88-.24,.32,0,.64,.14,.98,.23Z"/>
          <path class="cls-1" d="M375.22,35.25c.5,0,.69,.28,.44,.71-.17,.29-.38,.56-.62,.79-.13,.12-.45,.21-.55,.14-.17-.13-.31-.4-.32-.61-.02-.58,.46-1.01,1.04-1.02Z"/>
          <path class="cls-1" d="M356.36,50.7c-.78,.14-1.74-.86-1.53-1.55,.07-.23,.32-.41,.49-.62,.14,.17,.33,.33,.42,.52,.23,.54,.42,1.1,.62,1.64Z"/>
          <path class="cls-1" d="M387.62,29.6c-.5-.95,.06-1.99,.98-2.01,.15,0,.32,.09,.43,.2,.05,.06,.03,.27-.04,.35-.43,.48-.87,.94-1.36,1.46Z"/>
          <path class="cls-1" d="M376.11,41.65c-.28,.35-.53,.72-.86,1.02-.1,.09-.56,0-.58-.09-.06-.24-.05-.55,.05-.77,.14-.28,.39-.49,.61-.72,.1-.1,.22-.17,.33-.26,.08,.11,.19,.22,.25,.34,.05,.11,.06,.25,.08,.38l.11,.11Z"/>
          <path class="cls-1" d="M311.62,37.24c-.12-.16-.37-.39-.45-.67-.09-.3,.4-.74,.77-.75,.33-.01,.86,.4,.88,.68,.02,.3-.57,.73-1.19,.73Z"/>
          <path class="cls-1" d="M353.8,53.69c-.49,.31-.84,.59-1.24,.78-.54,.25-.66-.25-.81-.58-.16-.37,.14-.47,.42-.56,.55-.17,1.04-.01,1.62,.36Z"/>
          <path class="cls-1" d="M375.22,40.64c-.28,.28-.44,.56-.67,.65-.32,.13-.7,.12-1.05,.17-.01-.16-.1-.41-.03-.47,.38-.31,.78-.59,1.21-.83,.06-.03,.29,.25,.54,.48Z"/>
          <path class="cls-1" d="M377.14,40.49c1.01-.03,1.38,.38,1.28,1.36-.88,.18-1.39-.35-1.28-1.36Z"/>
          <path class="cls-1" d="M354.89,55.61c-.08,.4-.08,.83-.26,1.17-.11,.21-.49,.32-.77,.4-.13,.04-.31-.11-.47-.17,.1-.22,.15-.49,.31-.65,.33-.32,.71-.57,1.08-.85,.04,.03,.07,.07,.11,.1Z"/>
          <path class="cls-1" d="M333.09,51.21c.3,.03,.58,.08,.86,.09,.2,0,.45-.14,.59-.07,.19,.11,.34,.35,.43,.56,.03,.06-.19,.29-.33,.34-.73,.27-1.47-.22-1.55-.93Z"/>
          <path class="cls-1" d="M389.41,28.12c.05,.86,.09,1.6,.13,2.33-.1,.03-.19,.06-.29,.09-.17-.28-.42-.54-.48-.84-.13-.68,.09-1.21,.63-1.59Z"/>
          <path class="cls-1" d="M388.03,25.07c-.5,.52-.99,1.04-1.5,1.57-.64-.72-.18-1.22,1.35-1.7,.05,.05,.1,.09,.15,.14Z"/>
          <path class="cls-1" d="M373.21,37.69c.64,0,.74,.52,.88,.96,.11,.33-.19,.53-.56,.42-.6-.18-.74-.79-.32-1.38Z"/>
          <path class="cls-1" d="M335.06,35.38c-.3,.79-.54,.92-1.2,.79-.26-.05-.54-.09-.43-.41,.07-.2,.31-.44,.5-.47,.35-.05,.71,.05,1.13,.09Z"/>
          <path class="cls-1" d="M312.86,44.94c-.36,.23-.67,.51-1.03,.62-.1,.03-.41-.38-.51-.63-.04-.1,.19-.41,.35-.48,.41-.17,.8-.07,1.19,.48Z"/>
          <path class="cls-1" d="M333.63,34.72c.79-.92,1.14-1,1.78-.41-.34,.67-.95,.82-1.78,.41Z"/>
          <path class="cls-1" d="M373.21,40.37c-.11-.15-.37-.35-.37-.54,0-.47,.46-.52,.79-.52,.18,0,.5,.27,.51,.43,.05,.51-.41,.52-.92,.63Z"/>
          <path class="cls-1" d="M396.2,30.04c-.33,.32-.51,.63-.77,.71-.35,.1-.45-.23-.46-.54-.02-.45,.31-.58,.65-.59,.14,0,.29,.21,.58,.42Z"/>
          <path class="cls-1" d="M394.15,26.71c-.3,.33-.49,.55-.68,.76-.16-.17-.5-.42-.46-.51,.11-.25,.34-.47,.57-.64,.05-.03,.28,.19,.57,.38Z"/>
          <path class="cls-1" d="M392.59,45.35c-.59-.27-.96-.56-.89-1.34,.42,.24,.78,.4,1.07,.66,.07,.06-.1,.41-.18,.69Z"/>
          <path class="cls-1" d="M344.9,43.93c-.06,.16-.13,.32-.21,.52,.13,.09,.26,.17,.53,.35-.32,.15-.53,.27-.77,.34-.07,.02-.26-.1-.25-.14,.02-.24,.04-.51,.15-.72,.09-.17,.29-.29,.44-.43,.03,.03,.07,.06,.1,.09Z"/>
          <path class="cls-1" d="M394.52,23.91c0-.45-.05-.75,.02-1.03,.04-.14,.31-.21,.47-.31,.03,.19,.14,.41,.08,.56-.1,.24-.31,.44-.57,.78Z"/>
          <path class="cls-1" d="M377.12,40.23c-.13-.52,0-.82,.37-.98,.08-.03,.36,.14,.36,.22,0,.45-.36,.57-.72,.76Z"/>
          <path class="cls-1" d="M358.79,55.81c-.25,.01-.58,.15-.59-.3,0-.13,.12-.27,.19-.41,.19,.17,.37,.35,.56,.52-.05,.06-.11,.12-.16,.18Z"/>
          <path class="cls-1" d="M368.79,21.92c.07,.32,.12,.56,.17,.81-.11,0-.29,.05-.33,0-.14-.21-.42-.45,.16-.8Z"/>
        </g>
      </g>
      <g>
        <g>
          <path class="cls-1" d="M113.79,27.19c-.47-.37-1.05-.21-1.17,.35-.08,.36-.05,.74-.1,1.1-.02,.14-.11,.36-.21,.39-.43,.13-.96-.33-.93-.81,.01-.2,.07-.39,.11-.56-.38-.03-.76,0-1.09-.12-.21-.08-.42-.38-.46-.61-.02-.11,.33-.36,.54-.43,.31-.09,.66-.06,1-.09-.44-.98-.16-1.42,1.05-1.56,.02,.36,.05,.72,.05,1.08-.02,.68,.28,.94,.93,.83-.08-.98-.92-1.9-.15-2.99-.17-.08-.36-.26-.48-.22-.8,.3-1.64,.55-2.37,1-.74,.45-1.37,1.09-1.53,2.04,0,.02-.06,.03-.1,.06-.07-.13-.14-.27-.26-.48-.43,.65-.98,.81-1.65,.56-.1-.04-.23-.02-.34,0-.34,.03-.68,.07-1.17,.13,.4-.6,.72-1.05,1.35-1.11,.5-.04,1-.07,1.5-.05,.73,.02,1.37-.46,1.53-1.25-.1,.07-.17,.12-.25,.16-.99,.49-2,.78-3.1,.32-.43-.18-.43-.37-.16-.71,.72-.91,2.55-1.06,3.51-.62,.57,.26,.99,.43,1.59,.03,.35-.24,.88-.2,1.27-.28-.44-1.03-.89-2.07-1.34-3.12-1.06,.17-2.12,.38-3.19,.51-1.01,.12-1.93-.07-2.48-1.07,.21-.1,.44-.18,.63-.31,.97-.63,2.24-.61,3.24,.03,.55,.36,1.13,.68,1.82,.52-.06-.43-.09-.86-.2-1.27-.05-.17-.26-.33-.43-.42-.53-.25-.97,.11-1.43,.28-1.32,.49-2.99-.07-3.8-1.4,.66-.19,1.29-.47,1.93-.54,.88-.09,1.69,.19,2.37,.81,.37,.33,.76,.69,1.35,.42-.02-.42-.04-.83-.07-1.27-2.18,.04-4.19-.25-5.76-2.17,.48-.1,.86-.18,1.25-.25,1.32-.23,2.97,.14,3.72,1.45,.12,.21,.27,.41,.44,.59,.07,.08,.23,.12,.33,.11,.05,0,.11-.18,.12-.28,.04-.3,.03-.6,.1-.89,.19-.83,.4-1.65,.6-2.48-3.33-.45-4.51-2.14-4.35-3.41-.49-.13-.88-.35-1-.92-.09-.4,.02-.54,.4-.59,1.1-.15,1.73,.4,1.7,1.55,.05,.02,.1,.05,.15,.07,.99,.46,2.06,.78,2.37,2.07,.09,.38,.51,.69,.79,1.05,.5-1.09,.96-2.08,1.42-3.08-.52-.23-1.07-.43-1.57-.7-.48-.27-.92-.62-1.37-.94-.03,.04-.06,.08-.09,.12,.24,.21,.48,.42,.73,.62,.35,.27,.86,.4,.81,1.03-.01,.13,.24,.3,.39,.43,.13,.11,.28,.19,.49,.32-1.85,.37-4.35-1.4-4.6-3.44,.65,.11,1.27,.22,1.88,.33-.17-.42-.36-.89-.61-1.51,.48,0,.82-.01,1.16,0,.36,.02,.74-.04,.98,.38,.15,.26,.41,.46,.62,.69-.47-1.04-1.31-1.91-.67-3.16,.43,.18,.85,.35,1.17,.49,.13-.75,.25-1.39,.38-2.14,.91,.6,1.63,1.13,1.73,2.1,.09,.84,.1,1.7,.13,2.55,0,.02-.05,.04-.12,.09-.14-.17-.3-.33-.43-.51-.11-.16-.2-.34-.29-.51q-.16,1.96,.32,2.23c.09-.14,.16-.31,.27-.42,.96-.98,.96-2.09,.53-3.31-.22-.64-.34-1.33-.4-2.01-.06-.61,.46-1.3,.96-1.46,.3-.1,.56-.1,.64,.3,.07,.38,.17,.76,.22,1.14,.24,1.67-.27,3.19-1.05,4.62-.82,1.5-1.78,2.92-2.54,4.45-1.12,2.28-1.65,4.69-1.38,7.26,.18,1.72,.56,3.35,1.52,4.81,.2,.3,.36,.56,.81,.52,.49-.04,.7,.26,.58,.74-.08,.32,0,.51,.29,.7,.61,.4,1.24,.8,1.76,1.3,.28,.27,.52,.32,.84,.3,.63-.05,1.27-.13,1.9-.14,1.93-.03,3.86-.02,5.79-.05,1.77-.03,3.55-.1,5.32-.13,2.05-.04,4.1-.06,6.15-.11,.43,0,.86-.18,1.29-.15,.7,.04,1.29,.35,1.62,1.05,.26-.37,.42-.77,.71-1,.86-.68,1.65-1.47,2.71-1.88,.71-.27,1.34-.73,2.05-.99,1.45-.54,2.91-1.03,4.39-1.48,1.22-.38,2.46-.75,3.71-.99,1.55-.3,3.13-.54,4.7-.68,1.69-.15,3.4-.2,5.1-.21,1.29,0,2.59,.05,3.87,.21,1.8,.23,3.6,.49,5.36,.92,1.65,.4,3.26,.98,4.85,1.57,1.21,.45,2.38,1,3.55,1.55,.61,.29,.73,.63,.54,1.3-.28-.11-.59-.15-.81-.32-1.32-1.06-2.9-1.6-4.45-2.11-2.07-.69-4.21-1.17-6.32-1.74-2.42-.66-4.9-.65-7.36-.67-1.74,0-3.48,.19-5.22,.31-.43,.03-.87,.04-1.29,.13-1.38,.27-2.75,.54-4.12,.86-1.56,.38-3.13,.74-4.64,1.25-1.4,.47-2.74,1.13-4.1,1.72-.07,.03-.11,.14-.16,.21-.19,.23-.36,.47-.57,.68-.51,.52-1.05,1-1.55,1.53-.84,.88-1.6,1.84-2.48,2.66-1.19,1.09-2.43,2.13-3.71,3.11-1.17,.9-2.42,1.76-3.93,1.92-.75,.08-1.64,.49-2.28-.37-.03-.04-.18,.04-.26,.02-.32-.09-.64-.2-.96-.31,.02-.06,.04-.13,.05-.19,.16-.01,.34,0,.49-.05,.11-.04,.18-.18,.27-.27-.12-.03-.25-.1-.36-.07-.2,.05-.38,.16-.64,.28,.28-.57,.87-.82,1.39-.62,.53,.2,.54,.64,.4,1.15,.34,.05,.65,.16,.95,.13,1.49-.14,2.89-.56,4.06-1.53,1.27-1.06,2.52-2.14,3.72-3.27,.77-.73,1.45-1.56,2.18-2.36-.52-.22-.92-.39-1.33-.55-.1-.04-.22-.08-.32-.08-1.54-.04-3.09-.1-4.63-.1-1.72,0-3.44,.05-5.16,.08-2.34,.04-4.67,.07-7.01,.15-1.18,.04-2.35,.2-3.53,.26-.84,.04-1.56,.3-2.15,.91-.15,.15-.38,.23-.65,.38-.05-.86,.84-.93,.98-1.66-.64,.09-1.21,.16-1.79,.24l.02,.02Zm1.93-.88c-.39-.26-.75-.58-1.12-.87-.13-.1-.33-.31-.41-.27-.24,.11-.53,.27-.63,.49-.22,.48,.24,1.06,.78,1.08,.63,.02,1.29-.25,1.89,.17,.06,.04,.23-.05,.34-.09,0-.04,0-.09,0-.13-.29-.12-.6-.21-.85-.37Zm-2.49-17.36s.37,.03,.45-.06c.18-.2,.28-.47,.43-.73-.56-.48-1.11-.95-1.73-1.48,.32,.86,.57,1.57,.86,2.27Zm-.44,18c-.39-.29-.68-.5-.97-.72-.05,.04-.09,.07-.14,.11,.1,.29,.2,.58,.33,.98,.22-.1,.43-.2,.78-.37Z"/>
          <path class="cls-1" d="M113.1,47.63c-.33,.61-1.2,.92-1.92,.65,.07-.24,.15-.49,.2-.74,.05-.25,.08-.5,.12-.78-1.47,.58-1.58,.55-1.69-.3-.57-.09-1.32,.02-1.57-.29-.37-.46,.15-1.01,.47-1.46,.11-.15,.14-.35,.24-.61-.45,.07-.75,.16-1.04,.14-.37-.03-.8-.09-1.07-.3-.12-.09,.03-.62,.15-.91,.11-.26,.36-.46,.65-.82-.41-.11-.79-.19-1.15-.32-.3-.11-.67-.22-.83-.46-.2-.3,.43-1.15,.83-1.14,.49,0,.97,.1,1.48,.16-.18,.33-.32,.58-.46,.84,.17,0,.26-.05,.31-.11,.56-.68,1.25-1.17,2.13-1.35,.67-.14,1.34-.3,2.02-.44,.4-.08,.51-.25,.38-.67-.14-.44-.21-.9-.24-1.36-.08-1.08-.19-1.28-1.01-1.54-1.47,1.75-3.78,1.9-4.91,1.1,.64-.91,1.53-1.39,2.62-1.54,1.05-.15,2.09-.17,3.08,.41,.05-.68,.09-1.24,.13-1.8-.41-.18-.74-.12-1.11,.13-.78,.54-1.66,.84-2.6,.95-.63,.08-1.24-.02-1.77-.38-.28-.19-.37-.4,0-.65,.8-.54,1.71-.75,2.64-.86,1.01-.12,1.98,0,2.78,.72,.34-1.22,.66-2.37,.96-3.46-.57-.13-1.12-.27-1.68-.38-.12-.02-.28,0-.37,.07-.69,.53-1.51,.58-2.32,.58-.87,0-1.66-.21-2.19-1.18,.41-.19,.77-.4,1.16-.54,.91-.31,1.58,.27,2.31,.65,.21,.11,.44,.2,.65,.3-.35-.54-.76-.97-1.1-1.44-.35-.48-.63-1-.95-1.5,.3,.18,.62,.4,.76,.71,.56,1.2,1.41,2.01,2.74,2.24,.52,.09,1.03,.18,1.6,.28-.01,.06-.03,.2-.08,.33-.19,.53-.43,1.04-.59,1.57-.55,1.86-.43,3.77-.32,5.67,.03,.51,.17,1.03,.34,1.52,.66,1.84,1.6,3.53,2.69,5.15,.55,.82,1.07,1.66,1.63,2.46,.57,.81,1.15,1.61,1.26,2.63,.03,.3,.03,.6,.05,.89,.05,.76,.1,1.52,.15,2.37-.25-.06-.47-.04-.55-.14-.38-.45-.83-.88-1.04-1.41-.22-.56-.18-1.21-.25-1.83l-.02,.02c.61-.64,.71-1.79,.18-2.4-.06-.07-.2-.07-.3-.11l.02,.02c-.26-.48-.51-.97-.8-1.43-.18-.29-.41-.57-.67-.8-.09-.08-.45-.05-.45-.02-.2,1.04-1.03,1.65-1.38,2.61m-3.27-1.89c1.02-1.17,2.24-1.89,3.79-1.98-.45,.61-.89,1.21-1.37,1.87,.83-.39,1.58-.74,2.4-1.12-.52-.83-1.01-1.66-1.54-2.46-.23-.36-.55-.27-.73,.15-.24,.55-.39,1.18-.77,1.61-.41,.48-1.03,.78-1.56,1.16-.04-.03-.08-.06-.11-.08-.03,.29-.06,.58-.1,.86Zm-1.27-1.69s.05,.03,.08,.04c.59-.59,1.1-1.29,1.79-1.72,.7-.43,1.57-.59,2.38-.87-.2-.52-.42-1.1-.69-1.8-.25,.31-.55,.54-.68,.86-.7,1.6-1.97,2.13-3.61,2.06-.09,0-.18,.02-.29,.03,.04,.51,.4,.35,.66,.33,.27-.02,.54-.09,.88-.15-.2,.48-.36,.85-.51,1.22Z"/>
          <path class="cls-1" d="M161.29,47.99c.05-.25,.15-.51,.15-.76,0-1.77,.16-3.52,.84-5.18,1.09-2.67,2.96-4.68,5.43-6.13,2.57-1.51,5.33-2.55,8.3-2.83,1.44-.14,2.91,.07,4.37,.16,1.63,.1,3.14,.65,4.61,1.34,1.43,.67,2.77,1.48,3.95,2.52,.35,.31,.61,.71,.89,1.08,.27,.36,.58,.51,1.15,.33-.34-.44-.61-.88-.95-1.25-1.73-1.9-3.86-3.25-6.27-4.04-2.47-.81-5.04-.97-7.63-.64-1.09,.14-2.21,.2-3.26,.51-1.46,.44-2.91,.98-4.26,1.66-1.15,.58-2.17,1.43-3.24,2.18-1.13,.79-1.84,1.94-2.65,3.01-.94,1.24-1.31,2.65-1.44,4.16-.08,.87-.24,1.74-.31,2.61-.03,.4,.08,.81,.12,1.21,.07,.02,.14,.03,.2,.05Z"/>
          <path class="cls-1" d="M183.24,26.07c.13,.52,.47,.87,.9,1.19,1.87,1.39,3.82,2.7,5.56,4.24,1.37,1.22,2.51,2.71,3.68,4.14,1.57,1.91,2.79,4.04,3.64,6.35,.31,.85,.4,1.78,.59,2.68,.02,.11,.02,.25,.08,.32,.2,.22,.43,.41,.66,.61,.13-.25,.33-.48,.37-.74,.15-1.15-.29-2.21-.72-3.21-.68-1.6-1.43-3.19-2.36-4.64-1.48-2.3-3.18-4.45-5.35-6.18-1.42-1.13-2.79-2.33-4.25-3.4-.82-.6-1.77-1.01-2.66-1.51-.04,.05-.09,.11-.13,.16Z"/>
          <path class="cls-1" d="M125.36,18.77c.11,.02,.28,.28,.26,.37-.19,.65-.68,.59-1.29,.36,.11,.3,.13,.52,.25,.66,.08,.1,.4,.16,.44,.1,.42-.52,.94-.46,1.47-.3,.47,.14,.56,.51,.26,.9-.05,.07-.09,.17-.08,.25,.05,1.07-.24,1.46-1.24,1.52-.38,.02-.44,.27-.45,.51,0,.11,.25,.29,.41,.31,.41,.07,.81,.1,1.04-.41,.19-.42,.65-.42,1.04-.37,.16,.02,.44,.28,.41,.37-.07,.31-.21,.62-.41,.87-.36,.46-.78,.12-1.17,0-.46-.14-.91-.45-1.42-.15,.27,.55,.79,.91,1.51,1.12,1.45,.41,2.91,.15,4.36,.1,1.1-.04,2.2-.09,3.29-.06,.7,.02,1.1,.4,1.23,1-.2-.03-.37-.04-.53-.1-.28-.1-.53-.31-.81-.33-.92-.09-1.85-.13-2.78-.16-1.59-.04-3.18,.06-4.76-.09-2.34-.21-3.2-2.66-2.33-4.41,.07-.13,.07-.35,.02-.49-.44-1.13-.67-2.23,.23-3.27,.12-.14,.17-.44,.12-.63-.25-.85,.13-1.46,.75-1.94,.28-.22,.7-.46,.98-.39,.39,.1,.71,.48,1.1,.77-.27,.24-.47,.42-.74,.66,.26,.08,.44,.1,.56,.19,.3,.23,.63,.46,.82,.76,.24,.39,0,.76-.46,.77-.2,0-.4-.06-.59-.11-.5-.13-1.01-.45-1.48-.39-.95,.12-1.52,1.66-.95,2.74,.04-.76,.46-.82,.91-.74Zm-1.07,4.11c.03,.16,.24,.29,.36,.43,.06-.16,.14-.31,.17-.47,.03-.16,.01-.34,.02-.51,0-.77,.09-.89,.92-1.16-.34-.23-.61-.43-.86-.6-.82,.66-.75,1.49-.61,2.31Zm1.74-7.02c-.04-.07-.07-.13-.11-.2-.39,.18-.78,.35-1.15,.56-.04,.02,.06,.27,.12,.53,.46-.36,.8-.63,1.14-.9Zm-1.04-.53s.06,.24,.11,.25c.33,.08,.56-.05,.66-.4-.34-.23-.59-.14-.77,.15Z"/>
          <path class="cls-1" d="M125.69,32.68c.23,.01,.46,0,.7,0-.03-.09-.05-.27-.08-.27-.27,0-.61-.25-.78,.17-.66,.14-.86,.42-.94,1.31-.11,1.24,.8,2.33,1.91,2.3,.05,.13,.1,.38,.15,.38,.21,0,.42-.07,.63-.12-.07-.12-.11-.32-.2-.33-.17-.04-.36,.03-.55,.05,.33-.13,.66-.34,.99-.36,.43-.02,.89,.61,.81,.98-.07,.32-.6,.51-1.06,.36-.25-.08-.48-.22-.72-.31-.31-.11-.64-.19-.96-.29-.03,.07-.06,.15-.09,.22,.17,.09,.35,.17,.52,.27,.42,.26,.88,.48,1.25,.8,.27,.23,.11,.75-.19,.9-.59,.3-1.2,.03-1.41-.59-.08-.27-.15-.54-.25-.8-.18-.45-.28-.98-.58-1.33-.83-.98-.93-2.34-.17-3.37,.08-.11,.14-.3,.11-.43-.1-.37-.29-.72-.39-1.09-.34-1.23,.45-2.74,1.65-3.16,.3-.11,.59-.11,.73,.3-.2,.11-.38,.25-.59,.33-.22,.08-.47,.09-.7,.17-.49,.16-.57,.35-.38,.81,.02,0,.04,.01,.05,0,.06-.04,.12-.08,.19-.12,.67-.37,1.36-.63,2.13-.28,.38,.17,.51,.48,.3,.79-.13,.18-.5,.32-.73,.28-.28-.06-.57-.28-.75-.51-.27-.36-.56-.21-.8-.09-.17,.09-.25,.36-.37,.55,.2,.08,.41,.17,.61,.25,.07,.03,.15,.02,.22,.03,.97,.07,1.26,.5,.88,1.34,.33,.25,.87,.47,.55,.98-.16,.25-.64,.49-.92,.44-.33-.07-.95,0-.94-.66,.06,.04,.12,.12,.18,.12Zm-.61-.53c.08,.11,.53-.03,.82-.15-.7-.37-.73-1.08-1.01-1.65-.26,.65-.18,1.28,.19,1.8Zm.56-1.49c-.06,.02-.12,.04-.17,.07,.05,.2,.07,.43,.17,.61,.05,.09,.25,.1,.38,.15l.11-.14c-.16-.23-.32-.45-.48-.68Z"/>
          <path class="cls-1" d="M147.41,13.06c-.28-.09-.55-.17-.86-.27-.05,1.06,.22,1.87,1.34,2.27-.1,.03-.22,.1-.3,.08-.34-.1-.7-.18-.99-.37-.66-.42-1.31-.48-2.02-.18-.09,.04-.21,0-.32,0-.02-.05-.04-.1-.06-.14,.33-.17,.67-.34,1-.51-.31-.54-1.66-1.1-2.25-.9-.15,.05-.35,.25-.35,.38,0,.19,.11,.46,.26,.56,.73,.5,1.49,.95,2.23,1.44,1.08,.71,2.21,.56,3.36,.21,.3-.09,.39-.02,.37,.33-.09,1.15-.22,2.29,.08,3.45,.13,.52,.46,.79,.79,1.1,.25,.24,.54,.44,.83,.68,.52-.21,.59-.45,.09-.75-1.2-.72-1.57-1.77-1.44-3.1,.08-.84,.11-1.68,.16-2.52,.01-.2,0-.41,0-.61-.07-.01-.13-.02-.2-.04-.09,.39-.17,.78-.24,1.09-.47-.71-.97-1.47-1.48-2.22h.01Z"/>
          <path class="cls-1" d="M113.43,47.4c-.15,.6-.35,1.2-.42,1.81-.04,.3,.14,.64,.28,.94,.04,.09,.34,.17,.45,.11,.35-.19,.66-.44,.98-.66,.11,.58,.23,1.16,.35,1.78,.88-.29,1.23-.92,1.55-1.58,.06-.13,.15-.24,.22-.36,0,0-.02,.02-.02,.02-.22-.83-.53-1.65-.12-2.51l.02,.02c-.34,.2-.68,.39-1.13,.65,0-.66,0-1.28,0-2.01-.52,.41-.98,.77-1.43,1.14-.26,.21-.49,.45-.73,.67l.02-.02Z"/>
          <path class="cls-1" d="M105.42,25.09c-.43,.11-.7,.16-.97,.25-.41,.14-.68,.49-.49,.86,.16,.3,.57,.48,.9,.66,.07,.04,.28-.1,.36-.2,.29-.37,.55-.76,.85-1.19-.24-.18-.63-.42-.34-.9,.19-.32,.4-.64,.63-.94,.08-.11,.23-.18,.45-.36h-1.04q.56-1.72,1.17-2.21c-1.13,0-2.11,.17-2.99,.82-.45,.34-.25,.6,.08,.77,.37,.19,.79,.26,1.19,.38,.13,.04,.26,.07,.44,.11-.36,.14-.67,.23-.94,.38-.22,.13-.59,.46-.56,.5,.2,.32,.46,.61,.74,.87,.11,.1,.3,.12,.53,.21Z"/>
          <path class="cls-1" d="M147.4,13.05c.32,.18,.64,.36,.99,.55-.05-.4-.1-.83-.15-1.26,.06-.02,.12-.03,.19-.05,.28,.5,.56,1,.87,1.54,.53-.45,.42-.99,.41-1.5-.02-.88-.21-1.71-.9-2.34-.15-.14-.46-.3-.56-.23-.16,.11-.3,.39-.29,.59,.03,.46,.15,.91,.24,1.36,.03,.13,.06,.26,.05,.41-.55-.75-1.2-1.34-2.05-1.69-.14-.06-.36-.09-.46-.02-.09,.06-.1,.29-.08,.44,.14,.91,.82,1.41,1.51,1.9,.11,.08,.17,.21,.26,.31,0,0-.01-.01-.01-.01Z"/>
          <path class="cls-1" d="M111.74,37.48c-1.59-.75-4.36,.24-5.32,2.35,1.06,.39,2.01,.22,3.04-.2,1.08-.44,1.38-1.59,2.28-2.15Z"/>
          <path class="cls-1" d="M161.03,48.32c-.37,.34-.74,.69-1.11,1.03-.04-.02-.08-.05-.11-.07,.16-.45,.33-.89,.49-1.34-.05-.03-.1-.06-.15-.09-.14,.17-.25,.41-.43,.51-.34,.18-.71,.34-1.09,.4-1.05,.18-1.2,.32-1.24,1.53,.55-.09,1.08-.18,1.5-.25-.1,.48-.24,.98-.29,1.49-.02,.21,.1,.5,.25,.65,.1,.1,.51,.09,.55,.01,.59-1.08,1.15-2.17,1.7-3.27,.08-.15,.05-.36,.08-.54l-.14-.08Z"/>
          <path class="cls-1" d="M111.75,21.93c-.85-.29-1.61-.59-2.39-.79-1.04-.27-1.96,.05-2.74,.74-.43,.38-.37,.81,.19,.96,1.6,.44,3.17,.45,4.58-.63,.09-.07,.18-.14,.36-.28Z"/>
          <path class="cls-1" d="M111.4,14.17c-.98-.83-1.81-1.64-2.74-2.29-.78-.54-1.69-.38-2.58-.16,.33,1.35,2.86,2.97,5.32,2.45Z"/>
          <path class="cls-1" d="M112.1,31.68c-.62-.19-1.38-.38-2.11-.64-.91-.33-2.43-.23-3.23,.89,.36,.63,1,.88,1.66,.91,.76,.04,1.52-.09,2.28-.18,.15-.02,.3-.14,.43-.24,.35-.26,.7-.53,.97-.74Z"/>
          <path class="cls-1" d="M194.06,41.22c.3-.57,.18-.9-.36-1.32-1.27-.98-2.71-.96-4.2-.75-1.21,.17-1.97,.98-2.68,1.86-.13,.16-.24,.33-.45,.61-.07-.25-.15-.4-.15-.55,0-.46-.26-.72-.67-.7-.17,.01-.45,.35-.45,.53,0,.36,.12,.77,.65,.72,.13-.01,.26,.01,.44,.02-.2,.62-.38,1.21-.57,1.8,.07,.02,.14,.04,.22,.07,.07-.16,.16-.31,.19-.48,.31-1.46,1.26-2.46,2.53-3.04,1.3-.59,2.7-.63,4.01,.11,.29,.16,.5,.44,.76,.65,.23,.17,.48,.31,.72,.47Z"/>
          <path class="cls-1" d="M104.01,27.35c-.2-.47-.36-.97-.62-1.41-.11-.19-.45-.37-.67-.36-.51,.04-.98,.25-1.21,.77-.49,1.14-.14,2.4,1.14,2.62,.44,.08,.64-.17,.8-.52,.18-.39,.38-.77,.55-1.11Z"/>
          <path class="cls-1" d="M158.11,46.56c-.23,.34-.49,.64-.65,.99-.23,.48-.03,.73,.5,.64,.59-.1,1.12-.31,1.49-.82,.27-.38,.56-.73,.93-1.21-.63,.08-1.21,.16-1.83,.24,.05-.19,.09-.32,.12-.43-.52-.31-1.01-.66-1.55-.9-.27-.12-.65-.13-.93-.04-.12,.04-.22,.48-.16,.69,.11,.37,.3,.75,.78,.77,.42,.02,.83,.05,1.3,.08Z"/>
          <path class="cls-1" d="M191.11,45.46c.2,.1,.39,.28,.6,.3,1.4,.1,2.81,.18,4.21,.22,.28,0,.7,.01,.65-.49-.01-.11-.07-.29-.12-.29-.76-.08-1.05-.99-1.92-.96-1.44,.05-2.88-.04-4.32-.07-.04,0-.09,.05-.17,.1,.83,.6,1.77,.4,2.64,.48,.88,.08,1.78-.06,2.75,.29-.74,.5-1.46,.33-2.15,.33-.7,0-1.4-.09-2.1-.13-.02,.07-.05,.15-.07,.22Z"/>
          <path class="cls-1" d="M176.74,46.2c.04,.37-.02,.72,.11,.85,.18,.16,.52,.16,.85,.24,0,.04,0,.23,.04,.41,.03,.17,.09,.33,.13,.49,.16-.08,.35-.13,.48-.25,.5-.44,.57-1.05,.67-1.85-.49,.25-.85,.44-1.28,.66-.09-.13-.24-.34-.38-.54,.18-.06,.44-.14,.7-.22,.03-.06,.06-.12,.09-.18-.24-.11-.48-.21-.72-.32,.05-.07,.1-.15,.15-.22h1.06c.07-.09,.15-.18,.22-.26-.17-.07-.36-.12-.52-.2-.51-.27-1-.56-1.51-.81-.16-.08-.37-.06-.55-.08,.03,.25,0,.52,.1,.73,.06,.12,.32,.16,.48,.23-.06,.08-.12,.15-.19,.23-.08,.02-.17,.04-.25,.06-.19,.06-.37,.12-.56,.17,.11,.2,.17,.45,.33,.6,.17,.16,.42,.22,.53,.27Z"/>
          <path class="cls-1" d="M190.63,45.46c-.29-.25-.61-.47-.85-.76-.27-.33-.45-.73-.7-1.09-.15-.22-.32-.43-.51-.62-.03-.03-.28,.06-.28,.09,0,.27-.03,.58,.09,.8,.13,.24,.4,.42,.63,.6,.22,.17,.47,.3,.7,.45-.06,.1-.12,.2-.18,.29-.42,0-.84,.01-1.27,0-1.35-.04-2.7-.11-4.05-.12-.38,0-.8,.11-.88,.62-.07,.42,.08,.67,.5,.8,.2,.06,.33,.33,.52,.41,.2,.08,.46,.08,.66,0,.07-.02,.08-.37,.03-.54-.03-.09-.24-.12-.4-.17-.22-.1-.43-.19-.64-.29-.08-.04-.18-.1-.2-.17-.01-.07,.05-.22,.1-.23,.27-.05,.54-.1,.81-.09,.25,0,.49,.13,.74,.14,.98,.05,1.96,.08,2.94,.09,.47,0,.95,.14,1.4-.22,.12-.1,.48,.09,.73,.14,.03-.05,.06-.1,.09-.15Z"/>
          <path class="cls-1" d="M179.66,46.01c.36-.98,1.12-1.11,1.93-1.23,1.74-.27,3.48-.22,5.22-.13,.36,.02,.73-.06,1.09-.1,0-.05,.01-.11,.02-.16-.29-.05-.58-.13-.87-.13-1.41-.03-2.82-.02-4.23-.06-1.36-.03-1.73-.99-1.61-2.06,.08-.69,.52-.91,1.17-.7,.26,.08,.57,0,.86,0-.2-.19-.38-.41-.6-.57-.42-.3-.76,.02-1.06,.23-.69,.48-1,1.54-.7,2.33,.07,.19,.24,.37,.41,.5,.28,.23,.22,.33-.07,.47-.46,.21-.93,.42-1.34,.7-.24,.16-.53,.43-.2,.92Z"/>
          <path class="cls-1" d="M106.59,18.8c-.66-.62-1.15-1.12-1.69-1.57-.41-.34-1.85-.12-2.13,.34-.08,.13-.01,.44,.1,.59,.56,.73,1.4,.8,2.23,.82,.46,.01,.93-.11,1.5-.18Z"/>
          <path class="cls-1" d="M169.17,33.9c-.3-.11-.51-.24-.74-.27-.5-.05-.65-.36-.59-.78,.07-.42,.23-.82,.33-1.24,.17-.69,.26-1.36-.32-1.94-.54-.55-1.22-.46-1.53,.23-.15,.34-.32,.68-.37,1.04-.03,.2,.09,.48,.23,.65,.09,.11,.37,.14,.51,.08,.11-.04,.21-.29,.18-.43-.06-.34-.23-.67-.28-1.01-.04-.25-.13-.61,.31-.64,.39-.03,.75,.12,.81,.53,.05,.36,.02,.77-.09,1.12-.27,.87-.29,1.72,.05,2.57,.23,.58,.74,.64,1.5,.1Z"/>
          <path class="cls-1" d="M106.96,35.39c-.46-.03-.87-.11-1.26-.06-.74,.1-1.41,.41-1.95,.94-.26,.26-.35,.52,.1,.74,.99,.48,1.81,.5,2.3-.66,.14-.32,.46-.56,.81-.97Z"/>
          <path class="cls-1" d="M107.63,37.72c-.64-.12-1.3-.39-1.91-.3-.38,.06-.7,.64-.99,1.03-.23,.32-.02,.6,.24,.81,.47,.37,1.32,.11,1.62-.38,.24-.39,.61-.7,1.04-1.16Z"/>
          <path class="cls-1" d="M159.66,45.12c-.18-.82-.5-1.54-1.26-2-.13-.08-.27-.17-.41-.17-.31,0-.61,.05-.92,.08,.04,.26,.03,.54,.12,.79,.37,1.02,1.57,1.65,2.47,1.3Z"/>
          <path class="cls-1" d="M107.18,32.97c-.36-.54-1.67-.87-.36-1.69-.56-.06-1.06-.12-1.56-.14-.13,0-.28,.1-.38,.2-.32,.28-.63,.57-.94,.86,.62,.73,.95,.81,3.24,.78Z"/>
          <path class="cls-1" d="M103.62,15.54c.3,.58,.61,1.07,1.35,1.24,.75,.16,1.17-.51,1.84-.49-.94-1.28-2.04-1.54-3.2-.75Z"/>
          <path class="cls-1" d="M108.85,28.47c-.79-.87-1.5-1.63-2.69-1.4-.23,.04-.44,.17-.66,.26,.1,.21,.15,.46,.3,.63,.47,.52,1.02,.79,1.76,.61,.37-.09,.77-.07,1.29-.1Z"/>
          <path class="cls-1" d="M104.55,31.07c-.35-.27-.62-.49-.79-.62,.22-.38,.4-.71,.59-1.04-.26-.13-.52-.33-.78-.35-.17-.01-.45,.22-.51,.41-.14,.43,.04,.76,.47,.86-.27,.32-.59,.58-.76,.93-.1,.19-.04,.67,.09,.73,.21,.1,.59,.06,.8-.07,.32-.2,.56-.52,.89-.84Z"/>
          <path class="cls-1" d="M106.07,34.76c-.23-.42-.28-.8,.25-1.04,.1-.04,.12-.24,.18-.36-.12-.02-.25-.04-.38-.05-.91-.07-1.66,.23-2.26,.93-.28,.33-.21,.55,.19,.64,.66,.16,1.34,.34,2.01-.12Z"/>
          <path class="cls-1" d="M105.92,20.66c-.02-.55-1.02-.59-.57-1.29-.81-.29-1.8-.06-2.19,.49,.86,1.18,1.6,1.4,2.76,.8Z"/>
          <path class="cls-1" d="M107.03,13.63c-.35-.37-.7-.75-1.06-1.13-.26-.27-1.44-.14-1.64,.17-.03,.05-.05,.1-.05,.16-.04,.53,.94,1.34,1.44,1.19,.44-.13,.88-.26,1.32-.39Z"/>
          <path class="cls-1" d="M160.15,45.26c.85-.5,1.07-2.39,.38-2.93-.35-.28-.57,.06-.68,.32-.31,.69-.17,1.39,.06,2.07,.06,.17,.15,.34,.24,.54Z"/>
          <path class="cls-1" d="M107.79,11.15c-.38-1.36-1.28-1.5-2.27-1-.48,.24-.47,.83,.04,1,.45,.16,.98,.12,1.47,.13,.25,0,.51-.09,.76-.13Z"/>
          <path class="cls-1" d="M128.71,19.99c-.66,.02-1.24,.38-1.23,.77,.01,.4,.81,.84,1.4,.77,.49-.05,1.02-.44,1.02-.75,0-.4-.61-.81-1.19-.79Z"/>
          <path class="cls-1" d="M144.78,16.73c1.56,1.02,3.47,.56,3.65-.78-1.13,.61-2.47,.14-3.65,.78Z"/>
          <path class="cls-1" d="M146.11,17.54c-.79-.11-1.55-.24-2.32-.31-.22-.02-.45,.14-.67,.21,.1,.22,.16,.48,.32,.64,.57,.56,1.84,.67,2.3-.18,.07-.14,.23-.22,.37-.35Z"/>
          <path class="cls-1" d="M106.74,30.8c-.23-.52-1.05-.73-.59-1.58-.62,.1-1.12,.15-1.48,.56-.34,.39-.3,.74,.17,.94,.59,.25,1.22,.47,1.89,.08Z"/>
          <path class="cls-1" d="M146.47,19.11c-.63-.18-1.19-.56-1.83-.19-.02,0-.04,0-.05,.02-.27,.31-.54,.61-.81,.92,.37,.07,.74,.2,1.1,.18,.64-.04,1.24-.24,1.59-.93Z"/>
          <path class="cls-1" d="M113.79,27.19c-.55,.12-.49,.54-.46,.94,.02,.27,.06,.55,.03,.82-.07,.66,.14,1.03,.8,1.1,.26,.03,.54-.18,.81-.27-.15-.34-.21-.77-.46-.99-.24-.21-.79-.1-.85-.56-.05-.34,.07-.71,.12-1.07,0,0,.02,.02,.02,.02Z"/>
          <path class="cls-1" d="M183.19,26.87c-.13-.19-.19-.33-.29-.42-.34-.32-.36-.71-.25-1.13,.06-.24,.2-.48,.17-.7-.03-.23-.22-.43-.35-.64-.15,.13-.36,.22-.45,.39-.2,.38-.38,.78-.48,1.19-.06,.26-.03,.57,.4,.59,.14,0,.3,.15,.39,.28,.19,.27,.36,.55,.86,.45Z"/>
          <path class="cls-1" d="M104.07,21.27c-.37-.34-.6-.68-.92-.81-.22-.09-.62,.02-.84,.18-.33,.24-.51,.68-.22,1.03,.17,.2,.6,.36,.85,.29,.38-.1,.71-.42,1.13-.69Z"/>
          <path class="cls-1" d="M167.99,28.78c.61-.59,.9-1.72,.54-2.31-.14-.24-.47-.37-.71-.55-.11,.25-.35,.53-.32,.76,.1,.7,.31,1.38,.48,2.1Z"/>
          <path class="cls-1" d="M127.42,19.71c.5-.06,.88-.12,.9-.63,.01-.46-.28-.74-.79-.72-.31,.01-.63,.07-.92,.19-.19,.07-.39,.25-.45,.43-.03,.09,.2,.34,.36,.42,.31,.15,.66,.24,.9,.32Z"/>
          <path class="cls-1" d="M129.41,31.85c-.28-.08-.57-.25-.65-.18-.25,.23-.45,.54-.6,.85-.02,.05,.31,.3,.51,.41,.5,.26,.94,.16,1.3-.27,.27-.33,.15-.81-.26-.93-.11-.03-.27,.11-.3,.12Z"/>
          <path class="cls-1" d="M148.34,17c-.45,.25-.85,.5-1.28,.7-.41,.19-.84,.33-1.3,.51,.44,.49,1.02,.6,1.58,.36,.84-.36,1.05-.68,1-1.57Z"/>
          <path class="cls-1" d="M104.23,23.26c-.34-.3-.67-.61-1.03-.87-.11-.08-.37-.06-.48,.02-.18,.13-.41,.35-.42,.55-.01,.21,.14,.52,.32,.64,.53,.36,1.2,.18,1.62-.33Z"/>
          <path class="cls-1" d="M106.13,28.76c-.36-.4-.65-.77-.99-1.09-.26-.25-.55-.17-.78,.1-.27,.31-.42,.69-.09,.98,.21,.18,.58,.24,.88,.24,.32,0,.64-.14,.98-.23Z"/>
          <path class="cls-1" d="M166.65,34.4c.5,0,.69-.28,.44-.71-.17-.29-.38-.56-.62-.79-.13-.12-.45-.21-.55-.14-.17,.13-.31,.4-.32,.61-.02,.58,.46,1.01,1.04,1.02Z"/>
          <path class="cls-1" d="M147.79,18.95c-.78-.14-1.74,.86-1.53,1.55,.07,.23,.32,.41,.49,.62,.14-.17,.33-.33,.42-.52,.23-.54,.42-1.1,.62-1.64Z"/>
          <path class="cls-1" d="M179.05,40.05c-.5,.95,.06,1.99,.98,2.01,.15,0,.32-.09,.43-.2,.05-.06,.03-.27-.04-.35-.43-.48-.87-.94-1.36-1.46Z"/>
          <path class="cls-1" d="M167.54,28.01c-.28-.35-.53-.72-.86-1.02-.1-.09-.56,0-.58,.09-.06,.24-.05,.55,.05,.77,.14,.28,.39,.49,.61,.72,.1,.1,.22,.17,.33,.26,.08-.11,.19-.22,.25-.34,.05-.11,.06-.25,.08-.38l.11-.11Z"/>
          <path class="cls-1" d="M103.05,32.42c-.12,.16-.37,.39-.45,.67-.09,.3,.4,.74,.77,.75,.33,.01,.86-.4,.88-.68,.02-.3-.57-.73-1.19-.73Z"/>
          <path class="cls-1" d="M145.23,15.97c-.49-.31-.84-.59-1.24-.78-.54-.25-.66,.25-.81,.58-.16,.37,.14,.47,.42,.56,.55,.17,1.04,.01,1.62-.36Z"/>
          <path class="cls-1" d="M166.66,29.01c-.28-.28-.44-.56-.67-.65-.32-.13-.7-.12-1.05-.17-.01,.16-.1,.41-.03,.47,.38,.31,.78,.59,1.21,.83,.06,.03,.29-.25,.54-.48Z"/>
          <path class="cls-1" d="M168.57,29.16c1.01,.03,1.38-.38,1.28-1.36-.88-.18-1.39,.35-1.28,1.36Z"/>
          <path class="cls-1" d="M146.32,14.04c-.08-.4-.08-.83-.26-1.17-.11-.21-.49-.32-.77-.4-.13-.04-.31,.11-.47,.17,.1,.22,.15,.49,.31,.65,.33,.32,.71,.57,1.08,.85,.04-.03,.07-.07,.11-.1Z"/>
          <path class="cls-1" d="M124.53,18.44c.3-.03,.58-.08,.86-.09,.2,0,.45,.14,.59,.07,.19-.11,.34-.35,.43-.56,.03-.06-.19-.29-.33-.34-.73-.27-1.47,.22-1.55,.93Z"/>
          <path class="cls-1" d="M180.84,41.54c.05-.86,.09-1.6,.13-2.33-.1-.03-.19-.06-.29-.09-.17,.28-.42,.54-.48,.84-.13,.68,.09,1.21,.63,1.59Z"/>
          <path class="cls-1" d="M179.46,44.58c-.5-.52-.99-1.04-1.5-1.57-.64,.72-.18,1.22,1.35,1.7,.05-.05,.1-.09,.15-.14Z"/>
          <path class="cls-1" d="M164.64,31.97c.64,0,.74-.52,.88-.96,.11-.33-.19-.53-.56-.42-.6,.18-.74,.79-.32,1.38Z"/>
          <path class="cls-1" d="M126.49,34.27c-.3-.79-.54-.92-1.2-.79-.26,.05-.54,.09-.43,.41,.07,.2,.31,.44,.5,.47,.35,.05,.71-.05,1.13-.09Z"/>
          <path class="cls-1" d="M104.29,24.71c-.36-.23-.67-.51-1.03-.62-.1-.03-.41,.38-.51,.63-.04,.1,.19,.41,.35,.48,.41,.17,.8,.07,1.19-.48Z"/>
          <path class="cls-1" d="M125.06,34.94c.79,.92,1.14,1,1.78,.41-.34-.67-.95-.82-1.78-.41Z"/>
          <path class="cls-1" d="M164.64,29.28c-.11,.15-.37,.35-.37,.54,0,.47,.46,.52,.79,.52,.18,0,.5-.27,.51-.43,.05-.51-.41-.52-.92-.63Z"/>
          <path class="cls-1" d="M187.63,39.61c-.33-.32-.51-.63-.77-.71-.35-.1-.45,.23-.46,.54-.02,.45,.31,.58,.65,.59,.14,0,.29-.21,.58-.42Z"/>
          <path class="cls-1" d="M185.58,42.94c-.3-.33-.49-.55-.68-.76-.16,.17-.5,.42-.46,.51,.11,.25,.34,.47,.57,.64,.05,.03,.28-.19,.57-.38Z"/>
          <path class="cls-1" d="M184.02,24.3c-.59,.27-.96,.56-.89,1.34,.42-.24,.78-.4,1.07-.66,.07-.06-.1-.41-.18-.69Z"/>
          <path class="cls-1" d="M136.33,25.72c-.06-.16-.13-.32-.21-.52,.13-.09,.26-.17,.53-.35-.32-.15-.53-.27-.77-.34-.07-.02-.26,.1-.25,.14,.02,.24,.04,.51,.15,.72,.09,.17,.29,.29,.44,.43,.03-.03,.07-.06,.1-.09Z"/>
          <path class="cls-1" d="M185.95,45.74c0,.45-.05,.75,.02,1.03,.04,.14,.31,.21,.47,.31,.03-.19,.14-.41,.08-.56-.1-.24-.31-.44-.57-.78Z"/>
          <path class="cls-1" d="M168.56,29.42c-.13,.52,0,.82,.37,.98,.08,.03,.36-.14,.36-.22,0-.45-.36-.57-.72-.76Z"/>
          <path class="cls-1" d="M150.22,13.85c-.25-.01-.58-.15-.59,.3,0,.13,.12,.27,.19,.41,.19-.17,.37-.35,.56-.52-.05-.06-.11-.12-.16-.18Z"/>
          <path class="cls-1" d="M160.22,47.74c.07-.32,.12-.56,.17-.81-.11,0-.29-.05-.33,0-.14,.21-.42,.45,.16,.8Z"/>
        </g>
        <g>
          <path class="cls-1" d="M85.47,27.2c-.58-.08-1.15-.16-1.79-.24,.15,.73,1.03,.81,.98,1.66-.27-.16-.5-.23-.65-.38-.6-.6-1.31-.86-2.15-.91-1.18-.06-2.35-.22-3.53-.26-2.34-.08-4.67-.1-7.01-.15-1.72-.03-3.44-.08-5.16-.08-1.54,0-3.09,.06-4.63,.1-.11,0-.22,.04-.32,.08-.41,.16-.81,.34-1.33,.55,.73,.8,1.41,1.64,2.18,2.36,1.2,1.13,2.45,2.22,3.72,3.27,1.17,.97,2.57,1.39,4.06,1.53,.3,.03,.61-.08,.95-.13-.14-.51-.12-.95,.4-1.15,.53-.2,1.12,.06,1.39,.62-.26-.12-.45-.23-.64-.28-.11-.03-.24,.05-.36,.07,.09,.09,.16,.23,.27,.27,.15,.06,.32,.04,.49,.05,.02,.06,.04,.13,.05,.19-.32,.1-.63,.21-.96,.31-.08,.02-.23-.05-.26-.02-.64,.86-1.53,.44-2.28,.37-1.51-.15-2.76-1.02-3.93-1.92-1.28-.98-2.53-2.02-3.71-3.11-.89-.82-1.65-1.78-2.48-2.66-.5-.52-1.04-1.01-1.55-1.53-.21-.21-.38-.45-.57-.68-.06-.07-.09-.18-.16-.21-1.36-.59-2.7-1.24-4.1-1.72-1.52-.51-3.09-.87-4.64-1.25-1.36-.33-2.74-.59-4.12-.86-.42-.08-.86-.1-1.29-.13-1.74-.11-3.48-.31-5.22-.31-2.47,.01-4.95,0-7.36,.67-2.11,.57-4.25,1.05-6.32,1.74-1.55,.52-3.13,1.06-4.45,2.11-.21,.17-.53,.22-.81,.32-.19-.66-.07-1.01,.54-1.3,1.17-.55,2.34-1.11,3.55-1.55,1.6-.59,3.2-1.17,4.85-1.57,1.76-.43,3.57-.69,5.36-.92,1.28-.16,2.58-.22,3.87-.21,1.7,0,3.4,.06,5.1,.21,1.58,.14,3.15,.37,4.7,.68,1.25,.24,2.49,.61,3.71,.99,1.48,.46,2.94,.95,4.39,1.48,.71,.26,1.34,.72,2.05,.99,1.06,.41,1.85,1.2,2.71,1.88,.29,.23,.45,.63,.71,1,.33-.71,.92-1.01,1.62-1.05,.43-.03,.86,.14,1.29,.15,2.05,.05,4.1,.06,6.15,.11,1.77,.04,3.55,.11,5.32,.13,1.93,.03,3.86,.02,5.79,.05,.63,.01,1.27,.1,1.9,.14,.32,.02,.56-.03,.84-.3,.52-.5,1.15-.9,1.76-1.3,.28-.19,.37-.38,.29-.7-.12-.49,.09-.79,.58-.74,.45,.04,.61-.22,.81-.52,.96-1.46,1.34-3.09,1.52-4.81,.27-2.57-.26-4.99-1.38-7.26-.75-1.53-1.72-2.95-2.54-4.45-.78-1.43-1.3-2.95-1.05-4.62,.06-.38,.15-.76,.22-1.14,.08-.4,.34-.39,.64-.3,.5,.16,1.01,.84,.96,1.46-.06,.68-.18,1.37-.4,2.01-.43,1.22-.42,2.33,.53,3.31,.11,.12,.18,.28,.27,.42q.48-.27,.32-2.23c-.1,.17-.18,.35-.29,.51-.13,.18-.28,.34-.43,.51-.06-.05-.12-.07-.12-.09,.04-.85,.04-1.7,.13-2.55,.11-.97,.82-1.5,1.73-2.1,.13,.75,.25,1.4,.38,2.14,.32-.13,.74-.31,1.17-.49,.64,1.25-.2,2.12-.67,3.16,.21-.23,.47-.43,.62-.69,.24-.42,.62-.36,.98-.38,.34-.02,.68,0,1.16,0-.25,.63-.44,1.1-.61,1.51,.61-.11,1.23-.21,1.88-.33-.25,2.04-2.75,3.81-4.6,3.44,.21-.14,.36-.22,.49-.32,.15-.13,.4-.3,.39-.43-.05-.63,.46-.75,.81-1.03,.25-.2,.49-.41,.73-.62-.03-.04-.06-.08-.09-.12-.46,.32-.89,.67-1.37,.94-.5,.28-1.04,.47-1.57,.7,.46,1,.91,1.99,1.42,3.08,.28-.36,.7-.66,.79-1.05,.31-1.29,1.38-1.61,2.37-2.07,.05-.02,.1-.05,.15-.07-.02-1.14,.6-1.7,1.7-1.55,.38,.05,.49,.2,.4,.59-.12,.57-.51,.79-1,.92,.17,1.27-1.02,2.97-4.35,3.41,.2,.83,.41,1.65,.6,2.48,.06,.29,.06,.59,.1,.89,.01,.1,.07,.27,.12,.28,.11,.01,.26-.03,.33-.11,.17-.18,.32-.38,.44-.59,.75-1.31,2.4-1.68,3.72-1.45,.38,.07,.76,.15,1.25,.25-1.56,1.92-3.58,2.21-5.76,2.17-.02,.44-.05,.85-.07,1.27,.58,.27,.98-.09,1.35-.42,.68-.62,1.49-.9,2.37-.81,.65,.07,1.27,.34,1.93,.54-.81,1.33-2.48,1.89-3.8,1.4-.46-.17-.9-.53-1.43-.28-.18,.08-.39,.25-.43,.42-.11,.41-.14,.84-.2,1.27,.7,.15,1.27-.17,1.82-.52,.99-.64,2.27-.66,3.24-.03,.19,.13,.42,.2,.63,.31-.55,.99-1.47,1.18-2.48,1.07-1.07-.12-2.13-.33-3.19-.51-.45,1.05-.9,2.09-1.34,3.12,.39,.08,.92,.04,1.27,.28,.59,.4,1.02,.23,1.59-.03,.96-.43,2.79-.28,3.51,.62,.27,.34,.27,.53-.16,.71-1.1,.46-2.11,.17-3.1-.32-.08-.04-.15-.1-.25-.16,.15,.78,.79,1.27,1.53,1.25,.5-.02,1,0,1.5,.05,.63,.05,.95,.51,1.35,1.11-.49-.05-.83-.1-1.17-.13-.11-.01-.24-.03-.34,0-.67,.26-1.22,.09-1.65-.56-.11,.21-.19,.35-.26,.48-.04-.02-.1-.04-.1-.06-.16-.94-.79-1.58-1.53-2.04-.72-.44-1.56-.7-2.37-1-.11-.04-.31,.14-.48,.22,.77,1.09-.07,2.01-.15,2.99,.65,.12,.94-.15,.93-.83,0-.36,.03-.72,.05-1.08,1.22,.14,1.49,.57,1.05,1.56,.33,.02,.68,0,1,.09,.22,.06,.56,.31,.54,.43-.04,.23-.25,.53-.46,.61-.32,.13-.71,.09-1.09,.12,.03,.16,.1,.36,.11,.56,.03,.48-.5,.94-.93,.81-.1-.03-.19-.25-.21-.39-.05-.37-.03-.74-.1-1.1-.12-.56-.7-.72-1.17-.35l.02-.02Zm-2.79-.49s0,.09,0,.13c.12,.03,.28,.13,.34,.09,.6-.42,1.26-.15,1.89-.17,.54-.02,1-.59,.78-1.08-.1-.22-.39-.38-.63-.49-.08-.04-.27,.17-.41,.27-.37,.29-.73,.61-1.12,.87-.26,.17-.57,.25-.85,.37Zm4.2-20c-.62,.53-1.17,1-1.73,1.48,.14,.26,.25,.53,.43,.73,.08,.09,.44,.1,.45,.06,.29-.7,.54-1.41,.86-2.27Zm.36,20.64c.13-.39,.23-.68,.33-.98-.05-.04-.09-.07-.14-.11-.29,.22-.58,.43-.97,.72,.35,.16,.56,.26,.78,.37Z"/>
          <path class="cls-1" d="M85.84,47.34c-.36-.96-1.19-1.57-1.38-2.61,0-.02-.36-.06-.45,.02-.25,.24-.48,.51-.67,.8-.29,.46-.54,.95-.8,1.43l.02-.02c-.1,.03-.24,.04-.3,.11-.53,.62-.43,1.76,.18,2.4l-.02-.02c-.07,.61-.04,1.27-.25,1.83-.2,.53-.66,.96-1.04,1.41-.08,.1-.3,.08-.55,.14,.05-.85,.11-1.61,.15-2.37,.02-.3,.02-.6,.05-.89,.11-1.02,.69-1.82,1.26-2.63,.57-.8,1.09-1.64,1.63-2.46,1.08-1.62,2.03-3.31,2.69-5.15,.17-.49,.31-1.01,.34-1.52,.1-1.9,.23-3.81-.32-5.67-.16-.53-.39-1.05-.59-1.57-.05-.13-.07-.27-.08-.33,.57-.1,1.08-.19,1.6-.28,1.33-.24,2.19-1.04,2.74-2.24,.14-.3,.46-.53,.76-.71-.31,.5-.6,1.02-.95,1.5-.35,.47-.75,.9-1.1,1.44,.22-.1,.44-.19,.65-.3,.73-.38,1.4-.96,2.31-.65,.39,.13,.75,.35,1.16,.54-.53,.97-1.32,1.18-2.19,1.18-.81,0-1.63-.05-2.32-.58-.09-.07-.25-.09-.37-.07-.56,.11-1.11,.25-1.68,.38,.3,1.09,.62,2.24,.96,3.46,.8-.72,1.77-.84,2.78-.72,.93,.11,1.83,.32,2.64,.86,.37,.25,.28,.46,0,.65-.53,.37-1.14,.46-1.77,.38-.94-.11-1.83-.41-2.6-.95-.37-.26-.7-.32-1.11-.13,.04,.56,.08,1.13,.13,1.8,.99-.58,2.03-.56,3.08-.41,1.09,.15,1.98,.63,2.62,1.54-1.13,.81-3.44,.65-4.91-1.1-.82,.26-.93,.46-1.01,1.54-.03,.46-.1,.92-.24,1.36-.13,.42-.02,.59,.38,.67,.68,.14,1.34,.3,2.02,.44,.88,.18,1.57,.67,2.13,1.35,.06,.07,.14,.12,.31,.11-.14-.26-.28-.52-.46-.84,.5-.06,.99-.16,1.48-.16,.4,0,1.03,.85,.83,1.14-.16,.23-.53,.34-.83,.46-.36,.13-.74,.21-1.15,.32,.29,.36,.54,.56,.65,.82,.12,.29,.27,.82,.15,.91-.28,.21-.7,.26-1.07,.3-.29,.03-.59-.07-1.04-.14,.1,.26,.14,.46,.24,.61,.33,.45,.85,1.01,.47,1.46-.25,.31-1,.2-1.57,.29-.11,.85-.22,.88-1.69,.3,.04,.28,.07,.53,.12,.78,.05,.25,.13,.5,.2,.74-.72,.27-1.58-.05-1.92-.65m2.87-3.07s-.08,.06-.11,.08c-.53-.38-1.15-.68-1.56-1.16-.37-.44-.53-1.06-.77-1.61-.18-.42-.5-.5-.73-.15-.53,.8-1.02,1.63-1.54,2.46,.82,.38,1.56,.73,2.4,1.12-.48-.65-.92-1.26-1.37-1.87,1.54,.09,2.77,.81,3.79,1.98-.03-.29-.06-.58-.1-.86Zm.86-2.05c.34,.06,.61,.13,.88,.15,.26,.02,.61,.18,.66-.33-.11-.01-.2-.03-.29-.03-1.64,.07-2.92-.46-3.61-2.06-.13-.31-.43-.55-.68-.86-.27,.7-.49,1.28-.69,1.8,.81,.28,1.68,.44,2.38,.87,.69,.43,1.2,1.14,1.79,1.72,.03-.01,.05-.03,.08-.04-.15-.37-.31-.73-.51-1.22Z"/>
          <path class="cls-1" d="M37.95,48.01c-.05-.25-.15-.51-.15-.76,0-1.77-.16-3.52-.84-5.18-1.09-2.67-2.96-4.68-5.43-6.13-2.57-1.51-5.33-2.55-8.3-2.83-1.44-.14-2.91,.07-4.37,.16-1.63,.1-3.14,.65-4.61,1.34-1.43,.67-2.77,1.48-3.95,2.52-.35,.31-.61,.71-.89,1.08-.27,.36-.58,.51-1.15,.33,.34-.44,.61-.88,.95-1.25,1.73-1.9,3.86-3.25,6.27-4.04,2.47-.81,5.04-.97,7.63-.64,1.09,.14,2.21,.2,3.26,.51,1.46,.44,2.91,.98,4.26,1.66,1.15,.58,2.17,1.43,3.24,2.18,1.13,.79,1.84,1.94,2.65,3.01,.94,1.24,1.31,2.65,1.44,4.16,.08,.87,.24,1.74,.31,2.61,.03,.4-.08,.81-.12,1.21-.07,.02-.14,.03-.2,.05Z"/>
          <path class="cls-1" d="M16,26.1c-.13,.52-.47,.87-.9,1.19-1.87,1.39-3.82,2.7-5.56,4.24-1.37,1.22-2.51,2.71-3.68,4.14-1.57,1.91-2.79,4.04-3.64,6.35-.31,.85-.4,1.78-.59,2.68-.02,.11-.02,.25-.08,.32-.2,.22-.43,.41-.66,.61-.13-.25-.33-.48-.37-.74-.15-1.15,.29-2.21,.72-3.21,.68-1.6,1.43-3.19,2.36-4.64,1.48-2.3,3.18-4.45,5.35-6.18,1.42-1.13,2.79-2.33,4.25-3.4,.82-.6,1.77-1.01,2.66-1.51,.04,.05,.09,.11,.13,.16Z"/>
          <path class="cls-1" d="M74.79,19.53c.57-1.08,0-2.62-.95-2.74-.47-.06-.98,.25-1.48,.39-.19,.05-.4,.12-.59,.11-.45-.02-.7-.39-.46-.77,.19-.31,.53-.53,.82-.76,.12-.09,.3-.11,.56-.19-.27-.24-.46-.41-.74-.66,.39-.29,.71-.67,1.1-.77,.28-.07,.71,.18,.98,.39,.62,.48,1,1.09,.75,1.94-.05,.19,0,.48,.12,.63,.9,1.04,.67,2.14,.23,3.27-.05,.14-.05,.36,.02,.49,.87,1.74,.01,4.19-2.33,4.41-1.57,.14-3.17,.05-4.76,.09-.93,.02-1.86,.07-2.78,.16-.28,.03-.54,.23-.81,.33-.16,.06-.33,.06-.53,.1,.13-.61,.53-.98,1.23-1,1.1-.03,2.2,.02,3.29,.06,1.46,.05,2.92,.3,4.36-.1,.73-.2,1.24-.57,1.51-1.12-.52-.29-.96,.02-1.42,.15-.39,.12-.81,.46-1.17,0-.19-.25-.34-.56-.41-.87-.02-.09,.25-.35,.41-.37,.39-.05,.85-.05,1.04,.37,.23,.52,.63,.48,1.04,.41,.16-.03,.41-.2,.41-.31,0-.24-.06-.49-.45-.51-1.01-.06-1.29-.44-1.24-1.52,0-.08-.03-.18-.08-.25-.3-.39-.21-.76,.26-.9,.53-.15,1.06-.21,1.47,.3,.05,.06,.36,0,.44-.1,.12-.14,.15-.36,.25-.66-.61,.23-1.1,.29-1.29-.36-.03-.1,.15-.35,.26-.37,.45-.08,.87-.03,.91,.74Zm-.45,1.06c-.25,.17-.52,.37-.86,.6,.82,.27,.91,.39,.92,1.16,0,.17-.01,.34,.02,.51,.03,.16,.11,.31,.17,.47,.13-.14,.34-.27,.36-.43,.14-.82,.21-1.65-.61-2.31Zm0-3.81c.06-.26,.16-.51,.12-.53-.37-.21-.76-.38-1.15-.56-.04,.07-.07,.13-.11,.2,.34,.27,.67,.53,1.14,.9Zm-.86-1.58c.1,.35,.33,.48,.66,.4,.06-.01,.14-.21,.11-.25-.18-.29-.43-.38-.77-.15Z"/>
          <path class="cls-1" d="M73.74,32.58c.02,.66-.6,.59-.94,.66-.27,.06-.76-.18-.92-.44-.32-.51,.22-.73,.55-.98-.38-.84-.1-1.27,.88-1.34,.08,0,.16,0,.22-.03,.21-.08,.41-.17,.61-.25-.12-.19-.2-.46-.37-.55-.24-.12-.53-.27-.8,.09-.18,.24-.47,.46-.75,.51-.22,.05-.6-.09-.73-.28-.21-.31-.08-.62,.3-.79,.77-.35,1.46-.09,2.13,.28,.06,.04,.12,.08,.19,.12,.01,0,.03,0,.05,0,.19-.45,.11-.65-.38-.81-.23-.08-.48-.08-.7-.17-.21-.08-.39-.21-.59-.33,.14-.41,.42-.4,.73-.3,1.2,.42,1.99,1.92,1.65,3.16-.1,.37-.29,.72-.39,1.09-.03,.12,.03,.32,.11,.43,.76,1.03,.65,2.39-.17,3.37-.3,.36-.41,.88-.58,1.33-.1,.26-.17,.53-.25,.8-.2,.63-.82,.89-1.41,.59-.31-.15-.46-.67-.19-.9,.37-.32,.83-.55,1.25-.8,.17-.1,.35-.18,.52-.27-.03-.07-.06-.15-.09-.22-.32,.09-.64,.18-.96,.29-.25,.09-.48,.23-.72,.31-.46,.15-.99-.04-1.06-.36-.08-.37,.39-1,.81-.98,.34,.02,.66,.23,.99,.36-.18-.02-.38-.09-.55-.05-.09,.02-.13,.22-.2,.33,.21,.05,.42,.12,.63,.12,.05,0,.1-.24,.15-.38,1.11,.03,2.02-1.07,1.91-2.3-.08-.89-.28-1.16-.94-1.31-.17-.43-.51-.18-.78-.17-.03,0-.05,.18-.08,.27,.23,0,.46,.02,.7,0,.06,0,.12-.08,.18-.12Zm.62-2.22c-.29,.57-.31,1.28-1.01,1.65,.29,.12,.74,.27,.82,.15,.38-.53,.45-1.15,.19-1.8Zm-1.24,1l.11,.14c.13-.05,.33-.06,.38-.15,.1-.18,.12-.4,.17-.61-.06-.02-.12-.04-.17-.07-.16,.23-.32,.45-.48,.68Z"/>
          <path class="cls-1" d="M51.83,13.09c.28-.09,.55-.17,.86-.27,.05,1.06-.22,1.87-1.34,2.27,.1,.03,.22,.1,.3,.08,.34-.1,.7-.18,.99-.37,.66-.42,1.31-.48,2.02-.18,.09,.04,.21,0,.32,0,.02-.05,.04-.1,.06-.14-.33-.17-.67-.34-1-.51,.31-.54,1.66-1.1,2.25-.9,.15,.05,.35,.25,.35,.38,0,.19-.11,.46-.26,.56-.73,.5-1.49,.95-2.23,1.44-1.08,.71-2.21,.56-3.36,.21-.3-.09-.39-.02-.37,.33,.09,1.15,.22,2.29-.08,3.45-.13,.52-.46,.79-.79,1.1-.25,.24-.54,.44-.83,.68-.52-.21-.59-.45-.09-.75,1.2-.72,1.57-1.77,1.44-3.1-.08-.84-.11-1.68-.16-2.52-.01-.2,0-.41,0-.61,.07-.01,.13-.02,.2-.04,.09,.39,.17,.78,.24,1.09,.47-.71,.97-1.47,1.48-2.22h-.01Z"/>
          <path class="cls-1" d="M85.82,47.43c.15,.6,.35,1.2,.42,1.81,.04,.3-.14,.64-.28,.94-.04,.09-.34,.17-.45,.11-.35-.19-.66-.44-.98-.66-.11,.58-.23,1.16-.35,1.78-.88-.29-1.23-.92-1.55-1.58-.06-.13-.15-.24-.22-.36,0,0,.02,.02,.02,.02,.22-.83,.53-1.65,.12-2.51l-.02,.02c.34,.2,.68,.39,1.13,.65v-2.01c.52,.41,.98,.77,1.43,1.14,.26,.21,.49,.45,.73,.67l-.02-.02Z"/>
          <path class="cls-1" d="M93.83,25.12c.43,.11,.7,.16,.97,.25,.41,.14,.68,.49,.49,.86-.16,.3-.57,.48-.9,.66-.07,.04-.28-.1-.36-.2-.29-.37-.55-.76-.85-1.19,.24-.18,.63-.42,.34-.9-.19-.32-.4-.64-.63-.94-.08-.11-.23-.18-.45-.36h1.04q-.56-1.72-1.17-2.21c1.13,0,2.11,.17,2.99,.82,.45,.34,.25,.6-.08,.77-.37,.19-.79,.26-1.19,.38-.13,.04-.26,.07-.44,.11,.36,.14,.67,.23,.94,.38,.22,.13,.59,.46,.56,.5-.2,.32-.46,.61-.74,.87-.11,.1-.3,.12-.53,.21Z"/>
          <path class="cls-1" d="M51.85,13.08c-.32,.18-.64,.36-.99,.55,.05-.4,.1-.83,.15-1.26-.06-.02-.12-.03-.19-.05-.28,.5-.56,1-.87,1.54-.53-.45-.42-.99-.41-1.5,.02-.88,.21-1.71,.9-2.34,.15-.14,.46-.3,.56-.23,.16,.11,.3,.39,.29,.59-.03,.46-.15,.91-.24,1.36-.03,.13-.06,.26-.05,.41,.55-.75,1.2-1.34,2.05-1.69,.14-.06,.36-.09,.46-.02,.09,.06,.1,.29,.08,.44-.14,.91-.82,1.41-1.51,1.9-.11,.08-.17,.21-.26,.31,0,0,.01-.01,.01-.01Z"/>
          <path class="cls-1" d="M87.5,37.51c1.59-.75,4.36,.24,5.32,2.35-1.06,.39-2.01,.22-3.04-.2-1.08-.44-1.38-1.59-2.28-2.15Z"/>
          <path class="cls-1" d="M38.22,48.34c.37,.34,.74,.69,1.11,1.03,.04-.02,.08-.05,.11-.07-.16-.45-.33-.89-.49-1.34,.05-.03,.1-.06,.15-.09,.14,.17,.25,.41,.43,.51,.34,.18,.71,.34,1.09,.4,1.05,.18,1.2,.32,1.24,1.53-.55-.09-1.08-.18-1.5-.25,.1,.48,.24,.98,.29,1.49,.02,.21-.1,.5-.25,.65-.1,.1-.51,.09-.55,.01-.59-1.08-1.15-2.17-1.7-3.27-.08-.15-.05-.36-.08-.54l.14-.08Z"/>
          <path class="cls-1" d="M87.5,21.96c.85-.29,1.61-.59,2.39-.79,1.04-.27,1.96,.05,2.74,.74,.43,.38,.37,.81-.19,.96-1.6,.44-3.17,.45-4.58-.63-.09-.07-.18-.14-.36-.28Z"/>
          <path class="cls-1" d="M87.84,14.2c.98-.83,1.81-1.64,2.74-2.29,.78-.54,1.69-.38,2.58-.16-.33,1.35-2.86,2.97-5.32,2.45Z"/>
          <path class="cls-1" d="M87.15,31.7c.62-.19,1.38-.38,2.11-.64,.91-.33,2.43-.23,3.23,.89-.36,.63-1,.88-1.66,.91-.76,.04-1.52-.09-2.28-.18-.15-.02-.3-.14-.43-.24-.35-.26-.7-.53-.97-.74Z"/>
          <path class="cls-1" d="M5.18,41.25c-.3-.57-.18-.9,.36-1.32,1.27-.98,2.71-.96,4.2-.75,1.21,.17,1.97,.98,2.68,1.86,.13,.16,.24,.33,.45,.61,.07-.25,.15-.4,.15-.55,0-.46,.26-.72,.67-.7,.17,.01,.45,.35,.45,.53,0,.36-.12,.77-.65,.72-.13-.01-.26,.01-.44,.02,.2,.62,.38,1.21,.57,1.8-.07,.02-.14,.04-.22,.07-.07-.16-.16-.31-.19-.48-.31-1.46-1.26-2.46-2.53-3.04-1.3-.59-2.7-.63-4.01,.11-.29,.16-.5,.44-.76,.65-.23,.17-.48,.31-.72,.47Z"/>
          <path class="cls-1" d="M95.23,27.37c.2-.47,.36-.97,.62-1.41,.11-.19,.45-.37,.67-.36,.51,.04,.98,.25,1.21,.77,.49,1.14,.14,2.4-1.14,2.62-.44,.08-.64-.17-.8-.52-.18-.39-.38-.77-.55-1.11Z"/>
          <path class="cls-1" d="M41.14,46.58c.23,.34,.49,.64,.65,.99,.23,.48,.03,.73-.5,.64-.59-.1-1.12-.31-1.49-.82-.27-.38-.56-.73-.93-1.21,.63,.08,1.21,.16,1.83,.24-.05-.19-.09-.32-.12-.43,.52-.31,1.01-.66,1.55-.9,.27-.12,.65-.13,.93-.04,.12,.04,.22,.48,.16,.69-.11,.37-.3,.75-.78,.77-.42,.02-.83,.05-1.3,.08Z"/>
          <path class="cls-1" d="M8.14,45.49c-.2,.1-.39,.28-.6,.3-1.4,.1-2.81,.18-4.21,.22-.28,0-.7,.01-.65-.49,.01-.11,.07-.29,.12-.29,.76-.08,1.05-.99,1.92-.96,1.44,.05,2.88-.04,4.32-.07,.04,0,.09,.05,.17,.1-.83,.6-1.77,.4-2.64,.48-.88,.08-1.78-.06-2.75,.29,.74,.5,1.46,.33,2.15,.33,.7,0,1.4-.09,2.1-.13,.02,.07,.05,.15,.07,.22Z"/>
          <path class="cls-1" d="M22.51,46.23c-.04,.37,.02,.72-.11,.85-.18,.16-.52,.16-.85,.24,0,.04,0,.23-.04,.41-.03,.17-.09,.33-.13,.49-.16-.08-.35-.13-.48-.25-.5-.44-.57-1.05-.67-1.85,.49,.25,.85,.44,1.28,.66,.09-.13,.24-.34,.38-.54-.18-.06-.44-.14-.7-.22-.03-.06-.06-.12-.09-.18,.24-.11,.48-.21,.72-.32-.05-.07-.1-.15-.15-.22h-1.06c-.07-.09-.15-.18-.22-.26,.17-.07,.36-.12,.52-.2,.51-.27,1-.56,1.51-.81,.16-.08,.37-.06,.55-.08-.03,.25,0,.52-.1,.73-.06,.12-.32,.16-.48,.23,.06,.08,.12,.15,.19,.23,.08,.02,.17,.04,.25,.06,.19,.06,.37,.12,.56,.17-.11,.2-.17,.45-.33,.6-.17,.16-.42,.22-.53,.27Z"/>
          <path class="cls-1" d="M8.61,45.49c.29-.25,.61-.47,.85-.76,.27-.33,.45-.73,.7-1.09,.15-.22,.32-.43,.51-.62,.03-.03,.28,.06,.28,.09,0,.27,.03,.58-.09,.8-.13,.24-.4,.42-.63,.6-.22,.17-.47,.3-.7,.45,.06,.1,.12,.2,.18,.29,.42,0,.84,.01,1.27,0,1.35-.04,2.7-.11,4.05-.12,.38,0,.8,.11,.88,.62,.07,.42-.08,.67-.5,.8-.2,.06-.33,.33-.52,.41-.2,.08-.46,.08-.66,0-.07-.02-.08-.37-.03-.54,.03-.09,.24-.12,.4-.17,.22-.1,.43-.19,.64-.29,.08-.04,.18-.1,.2-.17,.01-.07-.05-.22-.1-.23-.27-.05-.54-.1-.81-.09-.25,0-.49,.13-.74,.14-.98,.05-1.96,.08-2.94,.09-.47,0-.95,.14-1.4-.22-.12-.1-.48,.09-.73,.14-.03-.05-.06-.1-.09-.15Z"/>
          <path class="cls-1" d="M19.59,46.04c-.36-.98-1.12-1.11-1.93-1.23-1.74-.27-3.48-.22-5.22-.13-.36,.02-.73-.06-1.09-.1,0-.05-.01-.11-.02-.16,.29-.05,.58-.13,.87-.13,1.41-.03,2.82-.02,4.23-.06,1.36-.03,1.73-.99,1.61-2.06-.08-.69-.52-.91-1.17-.7-.26,.08-.57,0-.86,0,.2-.19,.38-.41,.6-.57,.42-.3,.76,.02,1.06,.23,.69,.48,1,1.54,.7,2.33-.07,.19-.24,.37-.41,.5-.28,.23-.22,.33,.07,.47,.46,.21,.93,.42,1.34,.7,.24,.16,.53,.43,.2,.92Z"/>
          <path class="cls-1" d="M92.66,18.83c.66-.62,1.15-1.12,1.69-1.57,.41-.34,1.85-.12,2.13,.34,.08,.13,.01,.44-.1,.59-.56,.73-1.4,.8-2.23,.82-.46,.01-.93-.11-1.5-.18Z"/>
          <path class="cls-1" d="M30.08,33.92c.3-.11,.51-.24,.74-.27,.5-.05,.65-.36,.59-.78-.07-.42-.23-.82-.33-1.24-.17-.69-.26-1.36,.32-1.94,.54-.55,1.22-.46,1.53,.23,.15,.34,.32,.68,.37,1.04,.03,.2-.09,.48-.23,.65-.09,.11-.37,.14-.51,.08-.11-.04-.21-.29-.18-.43,.06-.34,.23-.67,.28-1.01,.04-.25,.13-.61-.31-.64-.39-.03-.75,.12-.81,.53-.05,.36-.02,.77,.09,1.12,.27,.87,.29,1.72-.05,2.57-.23,.58-.74,.64-1.5,.1Z"/>
          <path class="cls-1" d="M92.28,35.42c.46-.03,.87-.11,1.26-.06,.74,.1,1.41,.41,1.95,.94,.26,.26,.35,.52-.1,.74-.99,.48-1.81,.5-2.3-.66-.14-.32-.46-.56-.81-.97Z"/>
          <path class="cls-1" d="M91.61,37.74c.64-.12,1.3-.39,1.91-.3,.38,.06,.7,.64,.99,1.03,.23,.32,.02,.6-.24,.81-.47,.37-1.32,.11-1.62-.38-.24-.39-.61-.7-1.04-1.16Z"/>
          <path class="cls-1" d="M39.59,45.14c.18-.82,.5-1.54,1.26-2,.13-.08,.27-.17,.41-.17,.31,0,.61,.05,.92,.08-.04,.26-.03,.54-.12,.79-.37,1.02-1.57,1.65-2.47,1.3Z"/>
          <path class="cls-1" d="M92.06,32.99c.36-.54,1.67-.87,.36-1.69,.56-.06,1.06-.12,1.56-.14,.13,0,.28,.1,.38,.2,.32,.28,.63,.57,.94,.86-.62,.73-.95,.81-3.24,.78Z"/>
          <path class="cls-1" d="M95.63,15.57c-.3,.58-.61,1.07-1.35,1.24-.75,.16-1.17-.51-1.84-.49,.94-1.28,2.04-1.54,3.2-.75Z"/>
          <path class="cls-1" d="M90.39,28.49c.79-.87,1.5-1.63,2.69-1.4,.23,.04,.44,.17,.66,.26-.1,.21-.15,.46-.3,.63-.47,.52-1.02,.79-1.76,.61-.37-.09-.77-.07-1.29-.1Z"/>
          <path class="cls-1" d="M94.7,31.09c.35-.27,.62-.49,.79-.62-.22-.38-.4-.71-.59-1.04,.26-.13,.52-.33,.78-.35,.17-.01,.45,.22,.51,.41,.14,.43-.04,.76-.47,.86,.27,.32,.59,.58,.76,.93,.1,.19,.04,.67-.09,.73-.21,.1-.59,.06-.8-.07-.32-.2-.56-.52-.89-.84Z"/>
          <path class="cls-1" d="M93.18,34.78c.23-.42,.28-.8-.25-1.04-.1-.04-.12-.24-.18-.36,.12-.02,.25-.04,.38-.05,.91-.07,1.66,.23,2.26,.93,.28,.33,.21,.55-.19,.64-.66,.16-1.34,.34-2.01-.12Z"/>
          <path class="cls-1" d="M93.32,20.69c.02-.55,1.02-.59,.57-1.29,.81-.29,1.8-.06,2.19,.49-.86,1.18-1.6,1.4-2.76,.8Z"/>
          <path class="cls-1" d="M92.22,13.66c.35-.37,.7-.75,1.06-1.13,.26-.27,1.44-.14,1.64,.17,.03,.05,.05,.1,.05,.16,.04,.53-.94,1.34-1.44,1.19-.44-.13-.88-.26-1.32-.39Z"/>
          <path class="cls-1" d="M39.09,45.29c-.85-.5-1.07-2.39-.38-2.93,.35-.28,.57,.06,.68,.32,.31,.69,.17,1.39-.06,2.07-.06,.17-.15,.34-.24,.54Z"/>
          <path class="cls-1" d="M91.46,11.18c.38-1.36,1.28-1.5,2.27-1,.48,.24,.47,.83-.04,1-.45,.16-.98,.12-1.47,.13-.25,0-.51-.09-.76-.13Z"/>
          <path class="cls-1" d="M70.53,20.01c.66,.02,1.24,.38,1.23,.77-.01,.4-.81,.84-1.4,.77-.49-.05-1.02-.44-1.02-.75,0-.4,.61-.81,1.19-.79Z"/>
          <path class="cls-1" d="M54.46,16.75c-1.56,1.02-3.47,.56-3.65-.78,1.13,.61,2.47,.14,3.65,.78Z"/>
          <path class="cls-1" d="M53.14,17.57c.79-.11,1.55-.24,2.32-.31,.22-.02,.45,.14,.67,.21-.1,.22-.16,.48-.32,.64-.57,.56-1.84,.67-2.3-.18-.07-.14-.23-.22-.37-.35Z"/>
          <path class="cls-1" d="M92.5,30.82c.23-.52,1.05-.73,.59-1.58,.62,.1,1.12,.15,1.48,.56,.34,.39,.3,.74-.17,.94-.59,.25-1.22,.47-1.89,.08Z"/>
          <path class="cls-1" d="M52.78,19.14c.63-.18,1.19-.56,1.83-.19,.02,0,.04,0,.05,.02,.27,.31,.54,.61,.81,.92-.37,.07-.74,.2-1.1,.18-.64-.04-1.24-.24-1.59-.93Z"/>
          <path class="cls-1" d="M85.45,27.22c.55,.12,.49,.54,.46,.94-.02,.27-.06,.55-.03,.82,.07,.66-.14,1.03-.8,1.1-.26,.03-.54-.18-.81-.27,.15-.34,.21-.77,.46-.99,.24-.21,.79-.1,.85-.56,.05-.34-.07-.71-.12-1.07,0,0-.02,.02-.02,.02Z"/>
          <path class="cls-1" d="M16.06,26.89c.13-.19,.19-.33,.29-.42,.34-.32,.36-.71,.25-1.13-.06-.24-.2-.48-.17-.7,.03-.23,.22-.43,.35-.64,.15,.13,.36,.22,.45,.39,.2,.38,.38,.78,.48,1.19,.06,.26,.03,.57-.4,.59-.14,0-.3,.15-.39,.28-.19,.27-.36,.55-.86,.45Z"/>
          <path class="cls-1" d="M95.17,21.3c.37-.34,.6-.68,.92-.81,.22-.09,.62,.02,.84,.18,.33,.24,.51,.68,.22,1.03-.17,.2-.6,.36-.85,.29-.38-.1-.71-.42-1.13-.69Z"/>
          <path class="cls-1" d="M31.26,28.81c-.61-.59-.9-1.72-.54-2.31,.14-.24,.47-.37,.71-.55,.11,.25,.35,.53,.32,.76-.1,.7-.31,1.38-.48,2.1Z"/>
          <path class="cls-1" d="M71.82,19.74c-.5-.06-.88-.12-.9-.63-.01-.46,.28-.74,.79-.72,.31,.01,.63,.07,.92,.19,.19,.07,.39,.25,.45,.43,.03,.09-.2,.34-.36,.42-.31,.15-.66,.24-.9,.32Z"/>
          <path class="cls-1" d="M69.83,31.88c.28-.08,.57-.25,.65-.18,.25,.23,.45,.54,.6,.85,.02,.05-.31,.3-.51,.41-.5,.26-.94,.16-1.3-.27-.27-.33-.15-.81,.26-.93,.11-.03,.27,.11,.3,.12Z"/>
          <path class="cls-1" d="M50.9,17.03c.45,.25,.85,.5,1.28,.7,.41,.19,.84,.33,1.3,.51-.44,.49-1.02,.6-1.58,.36-.84-.36-1.05-.68-1-1.57Z"/>
          <path class="cls-1" d="M95.02,23.29c.34-.3,.67-.61,1.03-.87,.11-.08,.37-.06,.48,.02,.18,.13,.41,.35,.42,.55,.01,.21-.14,.52-.32,.64-.53,.36-1.2,.18-1.62-.33Z"/>
          <path class="cls-1" d="M93.11,28.79c.36-.4,.65-.77,.99-1.09,.26-.25,.55-.17,.78,.1,.27,.31,.42,.69,.09,.98-.21,.18-.58,.24-.88,.24-.32,0-.64-.14-.98-.23Z"/>
          <path class="cls-1" d="M32.6,34.42c-.5,0-.69-.28-.44-.71,.17-.29,.38-.56,.62-.79,.13-.12,.45-.21,.55-.14,.17,.13,.31,.4,.32,.61,.02,.58-.46,1.01-1.04,1.02Z"/>
          <path class="cls-1" d="M51.46,18.98c.78-.14,1.74,.86,1.53,1.55-.07,.23-.32,.41-.49,.62-.14-.17-.33-.33-.42-.52-.23-.54-.42-1.1-.62-1.64Z"/>
          <path class="cls-1" d="M20.2,40.07c.5,.95-.06,1.99-.98,2.01-.15,0-.32-.09-.43-.2-.05-.06-.03-.27,.04-.35,.43-.48,.87-.94,1.36-1.46Z"/>
          <path class="cls-1" d="M31.7,28.03c.28-.35,.53-.72,.86-1.02,.1-.09,.56,0,.58,.09,.06,.24,.05,.55-.05,.77-.14,.28-.39,.49-.61,.72-.1,.1-.22,.17-.33,.26-.08-.11-.19-.22-.25-.34-.05-.11-.06-.25-.08-.38l-.11-.11Z"/>
          <path class="cls-1" d="M96.19,32.44c.12,.16,.37,.39,.45,.67,.09,.3-.4,.74-.77,.75-.33,.01-.86-.4-.88-.68-.02-.3,.57-.73,1.19-.73Z"/>
          <path class="cls-1" d="M54.01,15.99c.49-.31,.84-.59,1.24-.78,.54-.25,.66,.25,.81,.58,.16,.37-.14,.47-.42,.56-.55,.17-1.04,.01-1.62-.36Z"/>
          <path class="cls-1" d="M32.59,29.04c.28-.28,.44-.56,.67-.65,.32-.13,.7-.12,1.05-.17,.01,.16,.1,.41,.03,.47-.38,.31-.78,.59-1.21,.83-.06,.03-.29-.25-.54-.48Z"/>
          <path class="cls-1" d="M30.68,29.19c-1.01,.03-1.38-.38-1.28-1.36,.88-.18,1.39,.35,1.28,1.36Z"/>
          <path class="cls-1" d="M52.92,14.07c.08-.4,.08-.83,.26-1.17,.11-.21,.49-.32,.77-.4,.13-.04,.31,.11,.47,.17-.1,.22-.15,.49-.31,.65-.33,.32-.71,.57-1.08,.85-.04-.03-.07-.07-.11-.1Z"/>
          <path class="cls-1" d="M74.72,18.47c-.3-.03-.58-.08-.86-.09-.2,0-.45,.14-.59,.07-.19-.11-.34-.35-.43-.56-.03-.06,.19-.29,.33-.34,.73-.27,1.47,.22,1.55,.93Z"/>
          <path class="cls-1" d="M18.41,41.56c-.05-.86-.09-1.6-.13-2.33,.1-.03,.19-.06,.29-.09,.17,.28,.42,.54,.48,.84,.13,.68-.09,1.21-.63,1.59Z"/>
          <path class="cls-1" d="M19.79,44.6c.5-.52,.99-1.04,1.5-1.57,.64,.72,.18,1.22-1.35,1.7-.05-.05-.1-.09-.15-.14Z"/>
          <path class="cls-1" d="M34.61,31.99c-.64,0-.74-.52-.88-.96-.11-.33,.19-.53,.56-.42,.6,.18,.74,.79,.32,1.38Z"/>
          <path class="cls-1" d="M72.75,34.3c.3-.79,.54-.92,1.2-.79,.26,.05,.54,.09,.43,.41-.07,.2-.31,.44-.5,.47-.35,.05-.71-.05-1.13-.09Z"/>
          <path class="cls-1" d="M94.95,24.74c.36-.23,.67-.51,1.03-.62,.1-.03,.41,.38,.51,.63,.04,.1-.19,.41-.35,.48-.41,.17-.8,.07-1.19-.48Z"/>
          <path class="cls-1" d="M74.18,34.96c-.79,.92-1.14,1-1.78,.41,.34-.67,.95-.82,1.78-.41Z"/>
          <path class="cls-1" d="M34.61,29.31c.11,.15,.37,.35,.37,.54,0,.47-.46,.52-.79,.52-.18,0-.5-.27-.51-.43-.05-.51,.41-.52,.92-.63Z"/>
          <path class="cls-1" d="M11.61,39.64c.33-.32,.51-.63,.77-.71,.35-.1,.45,.23,.46,.54,.02,.45-.31,.58-.65,.59-.14,0-.29-.21-.58-.42Z"/>
          <path class="cls-1" d="M13.67,42.96c.3-.33,.49-.55,.68-.76,.16,.17,.5,.42,.46,.51-.11,.25-.34,.47-.57,.64-.05,.03-.28-.19-.57-.38Z"/>
          <path class="cls-1" d="M15.22,24.33c.59,.27,.96,.56,.89,1.34-.42-.24-.78-.4-1.07-.66-.07-.06,.1-.41,.18-.69Z"/>
          <path class="cls-1" d="M62.91,25.75c.06-.16,.13-.32,.21-.52-.13-.09-.26-.17-.53-.35,.32-.15,.53-.27,.77-.34,.07-.02,.26,.1,.25,.14-.02,.24-.04,.51-.15,.72-.09,.17-.29,.29-.44,.43-.03-.03-.07-.06-.1-.09Z"/>
          <path class="cls-1" d="M13.3,45.77c0,.45,.05,.75-.02,1.03-.04,.14-.31,.21-.47,.31-.03-.19-.14-.41-.08-.56,.1-.24,.31-.44,.57-.78Z"/>
          <path class="cls-1" d="M30.69,29.45c.13,.52,0,.82-.37,.98-.08,.03-.36-.14-.36-.22,0-.45,.36-.57,.72-.76Z"/>
          <path class="cls-1" d="M49.03,13.87c.25-.01,.58-.15,.59,.3,0,.13-.12,.27-.19,.41-.19-.17-.37-.35-.56-.52,.05-.06,.11-.12,.16-.18Z"/>
          <path class="cls-1" d="M39.02,47.76c-.07-.32-.12-.56-.17-.81,.11,0,.29-.05,.33,0,.14,.21,.42,.45-.16,.8Z"/>
        </g>
      </g>
    </g>
  </g>
</svg>