<?xml version="1.0" encoding="UTF-8"?>
<svg id="Layer_2" data-name="Layer 2" xmlns="http://www.w3.org/2000/svg" viewBox="0 0 746.41 303.14">
  <defs>
    <style>
      .cls-1 {
        fill: #572841;
      }
    </style>
  </defs>
  <g id="names">
    <g id="Layer_11" data-name="Layer 11">
      <g id="ArieVina">
        <g>
          <path class="cls-1" d="M246.42,160.91c1.13-2.01,2.31-4.04,3.54-6.09,1.23-2.05,2.38-4.12,3.48-6.23,3.48-6.07,6.86-12.12,10.14-18.16,3.27-6.04,6.58-12.12,9.93-18.25,5.08-9.49,9.93-18.41,14.55-26.77,4.62-8.36,9.16-15.82,13.64-22.38,4.47-6.56,8.94-12.05,13.4-16.48,4.46-4.42,9.05-7.49,13.77-9.21,.39-.15,.71-.05,.96,.3,.25,.35,.27,.68,.05,.99-.47,.52-1.72,3.02-3.74,7.51-2.02,4.49-4.61,10.35-7.76,17.57-3.15,7.23-6.73,15.52-10.73,24.87-4.01,9.36-8.23,19.16-12.68,29.42-2.51,5.69-4.98,11.42-7.4,17.18-2.42,5.77-4.85,11.59-7.29,17.48,5.99-2.21,11.6-4.83,16.82-7.87,5.22-3.03,9.94-6.57,14.15-10.62,4.21-4.05,7.89-8.67,11.04-13.88,3.15-5.2,5.64-11.08,7.48-17.63,.1-.6,.41-.83,.91-.69,.5,.14,.7,.51,.6,1.11-1.96,6.82-4.57,12.91-7.82,18.27-3.26,5.36-7.1,10.14-11.54,14.32-4.44,4.19-9.39,7.85-14.86,10.98-5.47,3.13-11.31,5.79-17.54,7.98-3.63,8.59-7.16,16.95-10.58,25.06-3.42,8.12-6.61,15.75-9.56,22.9-2.95,7.15-5.6,13.56-7.95,19.25-2.35,5.68-4.21,10.36-5.59,14.04-.18,.41-.52,.54-1.03,.4-.5-.14-.64-.48-.4-1.02,1.42-3.58,3.28-8.2,5.57-13.86,2.29-5.66,4.88-11.96,7.74-18.91,2.86-6.95,5.97-14.44,9.31-22.47,3.34-8.03,6.8-16.28,10.37-24.73-4.47,1.51-9.08,2.85-13.85,4.02-4.77,1.17-9.75,2.15-14.95,2.93-6.35,12.01-12.84,23.42-19.48,34.24-6.64,10.82-14.25,21.1-22.83,30.82-13.23,15.12-27.97,27.76-44.23,37.94-16.26,10.18-33.63,18.96-52.1,26.34-6.89,2.78-14.33,5.24-22.31,7.39-7.99,2.14-16.03,3.46-24.14,3.97-8.11,.51-16.06,0-23.83-1.54-7.78-1.53-14.86-4.6-21.25-9.19-4.67-3.35-8.42-7.23-11.25-11.64-2.83-4.4-4.82-9.1-5.97-14.1-1.15-5-1.5-10.17-1.04-15.51,.46-5.34,1.65-10.58,3.59-15.71,2.4-6.54,6.03-12.97,10.88-19.29,4.85-6.31,10.9-12.2,18.17-17.65,7.26-5.45,15.78-10.33,25.57-14.63,9.79-4.3,20.88-7.67,33.29-10.13,12.37-2.55,25.53-4.23,39.48-5.03,13.95-.8,28.05-1.5,42.3-2.08,12.6-.51,25.06-1.1,37.37-1.77,12.31-.67,24.17-1.93,35.58-3.77ZM109.28,290.19c18.37-7.35,35.17-16.58,50.39-27.7,15.22-11.12,29.34-24.09,42.35-38.9,8.11-9.2,15.69-18.9,22.74-29.1,7.05-10.2,13.89-20.79,20.52-31.78-11.22,1.77-22.87,2.97-34.97,3.62-12.1,.65-24.35,1.19-36.76,1.62-14.25,.59-28.32,1.3-42.2,2.13-13.88,.83-26.96,2.51-39.23,5.02-11.98,2.4-22.74,5.7-32.28,9.9-9.54,4.2-17.84,9.02-24.88,14.44-7.05,5.43-12.92,11.27-17.62,17.52-4.7,6.26-8.23,12.59-10.57,19-1.88,5-3.05,10.08-3.52,15.26-.46,5.18-.16,10.17,.92,14.97,1.08,4.8,2.97,9.35,5.7,13.62,2.72,4.28,6.35,8.06,10.89,11.36,6.11,4.48,12.93,7.45,20.46,8.91,7.53,1.46,15.22,1.9,23.08,1.33,7.86-.58,15.67-1.92,23.44-4.03,7.77-2.11,14.95-4.51,21.55-7.18ZM327.39,39.61c-4.41,1.94-8.73,5.15-12.93,9.64-4.21,4.49-8.45,9.93-12.71,16.29-4.27,6.37-8.6,13.58-13,21.63-4.4,8.05-9,16.6-13.8,25.64-3.25,6.09-6.49,12.14-9.71,18.16-3.22,6.02-6.41,12.06-9.57,18.11-1.03,1.97-2.06,3.89-3.08,5.74-1.02,1.86-2,3.75-2.93,5.68,5.16-.88,10.12-1.9,14.89-3.08,4.77-1.17,9.36-2.56,13.79-4.17,2.49-6.02,5.03-12,7.61-17.94,2.58-5.94,5.12-11.92,7.61-17.94,3.87-9.13,7.64-17.95,11.31-26.44,3.67-8.49,7-16.19,10-23.07,3-6.89,5.59-12.8,7.77-17.75,2.18-4.94,3.77-8.45,4.76-10.52Z"/>
          <path class="cls-1" d="M299.32,176.61c-.38,.48-.76,.58-1.15,.28-.39-.29-.45-.67-.18-1.11,1.6-2.53,3.31-5.15,5.11-7.88,1.81-2.72,3.57-5.48,5.29-8.28-1.33-.83-2.18-1.57-2.54-2.21-.44-.84-.4-1.75,.12-2.74,.52-.98,1.25-1.83,2.21-2.54,1.79-1.48,3.31-2.04,4.57-1.69,1.26,.35,1.27,1.84,.04,4.45-.3,.68-.63,1.34-1,1.99-.37,.65-.78,1.4-1.23,2.25,1.47,.89,2.68,1.99,3.64,3.3,.96,1.31,1.51,2.89,1.67,4.74,.01,2.35-.53,4.78-1.64,7.29-1.11,2.51-2.21,4.93-3.33,7.27-.97,1.84-1.8,3.48-2.47,4.92-.68,1.44-.86,2.55-.56,3.33,.23,.59,.62,.88,1.19,.89,.56,0,1.09-.08,1.58-.27,1.27-.49,2.89-1.46,4.86-2.89,1.97-1.44,4.1-3.11,6.4-5,2.45-2.07,4.98-4.37,7.6-6.9,2.61-2.53,5.08-5,7.4-7.41,2.32-2.41,4.4-4.65,6.24-6.71,1.84-2.06,3.24-3.72,4.21-5,.41-.38,.82-.43,1.21-.13,.39,.3,.41,.68,.03,1.17-1.06,1.31-2.52,3-4.36,5.06-1.84,2.06-3.92,4.3-6.24,6.71-2.32,2.42-4.79,4.89-7.4,7.41-2.61,2.53-5.14,4.83-7.6,6.9-2.35,2.04-4.55,3.76-6.59,5.16-2.04,1.41-3.84,2.41-5.4,3.02-.78,.3-1.57,.44-2.37,.41-.8-.03-1.48-.49-2.06-1.39-.82-1.25-.89-2.94-.19-5.06,.69-2.12,1.61-4.47,2.74-7.04,.8-1.99,1.59-4.01,2.37-6.05,.78-2.04,1.28-3.95,1.49-5.71,.11-1.73-.1-3.08-.64-4.05-.54-.97-1.41-1.84-2.61-2.61-1.66,2.66-3.39,5.38-5.18,8.15-1.79,2.77-3.53,5.44-5.23,8.01Zm9.91-18.32c.45-.85,.87-1.6,1.23-2.25,.37-.65,.67-1.24,.91-1.78,.78-1.76,.85-2.58,.23-2.45-.62,.13-1.44,.62-2.46,1.46-.67,.6-1.19,1.19-1.58,1.79-.39,.6-.48,1.14-.29,1.63,.11,.29,.35,.54,.71,.74,.36,.2,.78,.49,1.26,.86Z"/>
          <path class="cls-1" d="M361.4,141.27c-.13,.84-.35,1.85-.67,3.04-.32,1.19-.75,2.56-1.27,4.11-.54,1.78-1.15,3.76-1.83,5.93-.67,2.17-1.28,4.31-1.8,6.42-.51,1.88-.9,3.63-1.16,5.25-.27,1.62-.41,3-.42,4.12,.04,1.56,.39,2.46,1.05,2.71,.66,.25,1.65,.06,2.98-.57,1.37-.53,2.93-1.41,4.69-2.66,1.76-1.24,3.61-2.69,5.56-4.34,2.45-2.07,4.97-4.4,7.57-6.98,2.59-2.58,5.03-5.12,7.31-7.63,2.28-2.51,4.33-4.82,6.15-6.93,1.82-2.11,3.26-3.82,4.33-5.13,.41-.38,.82-.43,1.21-.13,.39,.3,.4,.69,.03,1.17-1.06,1.31-2.53,3.03-4.4,5.16-1.87,2.13-3.97,4.46-6.3,6.99-2.33,2.53-4.79,5.09-7.39,7.66-2.59,2.58-5.12,4.9-7.57,6.98-2.04,1.69-3.97,3.17-5.78,4.43-1.81,1.26-3.43,2.23-4.86,2.89-3.71,1.44-5.93,.34-6.67-3.31-.42-2.53-.2-5.87,.66-10.02,.39-2.17,.95-4.43,1.66-6.79,.71-2.35,1.53-4.66,2.45-6.93l-8.37,10.99c-.32,.35-.7,.36-1.17,.03-.46-.33-.49-.68-.08-1.07l12.83-16.42c.28-.44,.58-.53,.91-.27,.33,.27,.44,.7,.34,1.3Zm0-14.32c.97-1.27,1.38-2.3,1.24-3.09s-.35-1.41-.64-1.86c-.4-.74-.53-1.37-.39-1.87,.14-.5,.42-.81,.83-.91,.41-.1,.82,.02,1.24,.36,.41,.35,.67,.95,.78,1.8,.22,1.15,.14,2.31-.26,3.47-.39,1.16-.93,2.16-1.62,2.99-.41,.39-.82,.43-1.21,.13-.4-.29-.39-.63,.03-1.02Z"/>
          <path class="cls-1" d="M415.06,126.36c-1.73,1.91-4.05,3.76-6.94,5.55-1.76,1.25-3.6,2.44-5.52,3.57-1.92,1.14-3.67,2.12-5.25,2.96-.32,.35-.56,.72-.74,1.13-.18,.41-.38,.76-.59,1.07-.7,1.39-1.31,2.7-1.85,3.92-.54,1.22-.98,2.4-1.32,3.54-.51,2.44-.45,4.33,.17,5.66,.55,1.13,1.35,1.89,2.4,2.27,1.05,.38,2.16,.51,3.35,.39,1.35-.3,2.97-.95,4.88-1.97,1.91-1.02,4.1-2.52,6.59-4.49,3.12-2.67,6.64-6.17,10.58-10.5,3.93-4.33,8.28-9.78,13.03-16.33,.37-.48,.77-.55,1.18-.21,.41,.35,.48,.74,.21,1.18-4.85,6.6-9.27,12.07-13.25,16.42-3.98,4.35-7.58,7.88-10.8,10.59-2.55,2.11-4.85,3.71-6.9,4.78-2.05,1.07-3.87,1.75-5.45,2.03-1.71,.22-3.26,0-4.63-.65-1.37-.65-2.43-1.78-3.17-3.4-.51-1.04-.79-2.19-.84-3.46-.04-1.27,.07-2.58,.33-3.92,.37-1.38,.84-2.77,1.42-4.17,.58-1.4,1.25-2.87,2-4.4,1.92-3.44,4.27-6.73,7.03-9.88,2.76-3.15,5.47-5.51,8.11-7.1,1.64-.97,3.14-1.52,4.49-1.66,1.35-.13,2.36,.07,3.01,.6,.65,.53,.92,1.36,.79,2.47-.13,1.12-.9,2.45-2.32,4.01Zm-16.05,9.42c1.29-.72,2.67-1.51,4.14-2.36,1.47-.85,2.86-1.75,4.17-2.71,1.31-.96,2.55-1.89,3.72-2.79,1.17-.9,2.14-1.78,2.93-2.65,1.1-1.21,1.7-2.2,1.8-2.97,.1-.77-.1-1.28-.6-1.54-.49-.26-1.17-.27-2.04-.05-.87,.23-1.73,.67-2.6,1.34-1.27,1.06-3,2.85-5.16,5.37-2.17,2.52-4.29,5.31-6.36,8.36Z"/>
        </g>
        <g>
          <path class="cls-1" d="M612.88,185.05c0-.57,.27-.83,.78-.81,.51,.02,.77,.32,.76,.88,.36,8.17-.4,16.21-2.27,24.12-1.88,7.91-4.65,15.53-8.32,22.84-3.68,7.32-8.15,14.24-13.42,20.78-5.27,6.53-11.05,12.54-17.35,18.01-6.71,5.86-13.87,10.93-21.46,15.22-7.6,4.29-15.44,7.73-23.54,10.3-8.04,2.44-16.08,3.85-24.13,4.22-8.05,.37-15.91-.49-23.56-2.57-9.98-2.87-19.21-7.99-27.68-15.37-8.48-7.38-15.65-17.62-21.51-30.73-3.13-7.21-5.6-14.89-7.42-23.06-1.82-8.16-2.99-16.61-3.5-25.33-.52-8.72-.39-17.59,.39-26.59,.78-9,2.19-17.94,4.25-26.82,1.92-8.38,4.44-16.57,7.57-24.57,3.13-8,6.77-15.62,10.93-22.84,4.16-7.22,8.87-13.96,14.14-20.22,5.27-6.25,11.05-11.83,17.34-16.74,3.86-3.07,8.31-6,13.35-8.79,5.03-2.79,10.2-4.88,15.51-6.26,6.65-1.68,12.88-1.74,18.71-.18,5.82,1.56,10.8,5.19,14.91,10.89,3.2,4.49,5.19,9.69,5.97,15.62,.78,5.93,.72,12.29-.18,19.1-.9,6.81-2.34,13.87-4.32,21.21-1.98,7.34-4.07,14.69-6.27,22.05-1.49,4.85-2.92,9.64-4.28,14.37-1.36,4.74-2.53,9.32-3.52,13.74-1.47,6.63-2.7,12.67-3.68,18.1-.98,5.43-1.37,10.02-1.15,13.75,.1,3.44,.8,5.89,2.09,7.36,1.29,1.46,3.45,1.72,6.45,.78,1.6-.51,3.52-2.66,5.75-6.44,2.24-3.79,4.72-8.74,7.46-14.85,2.74-6.11,5.69-13.18,8.87-21.2,3.18-8.02,6.53-16.59,10.07-25.71,4.08-10.34,8.31-21.07,12.69-32.2,4.38-11.13,8.91-21.98,13.57-32.54,4.66-10.56,9.42-20.52,14.27-29.87,4.85-9.35,9.74-17.44,14.66-24.29,4.92-6.85,9.81-12.11,14.68-15.79,4.86-3.68,9.68-5.15,14.45-4.42,.56,0,.81,.28,.73,.81-.07,.53-.41,.75-1.01,.65-4.54-.71-9.18,.78-13.93,4.47-4.74,3.69-9.5,8.93-14.28,15.72-4.78,6.79-9.54,14.84-14.3,24.15-4.76,9.31-9.43,19.18-14.04,29.61-4.6,10.43-9.09,21.15-13.47,32.16-4.38,11.02-8.55,21.67-12.53,31.97-3.54,9.12-6.93,17.76-10.16,25.92-3.24,8.16-6.26,15.34-9.08,21.54-2.82,6.2-5.39,11.24-7.7,15.11-2.32,3.87-4.37,6.1-6.17,6.68-3.79,1.24-6.5,.98-8.14-.8-1.64-1.78-2.46-4.69-2.46-8.73-.25-3.83,.1-8.49,1.07-13.97,.96-5.48,2.18-11.54,3.65-18.17,1.04-4.55,2.2-9.38,3.48-14.48,1.9-8.14,3.79-16.51,5.68-25.1,1.89-8.59,3.36-16.88,4.42-24.87,1.06-7.99,1.49-15.42,1.29-22.31-.2-6.88-1.39-12.71-3.57-17.48-1.41-3.05-3.22-5.49-5.45-7.32-2.23-1.83-4.67-3.13-7.32-3.9-2.65-.77-5.48-1.1-8.47-1.01-2.99,.1-6.01,.56-9.05,1.4-5.2,1.34-10.28,3.39-15.21,6.15-4.94,2.76-9.31,5.6-13.11,8.53-6.19,4.87-11.89,10.39-17.08,16.55-5.19,6.17-9.85,12.83-13.98,19.98-4.13,7.16-7.72,14.7-10.77,22.61-3.05,7.92-5.55,16.02-7.51,24.3-2.1,8.79-3.55,17.63-4.37,26.53-.82,8.9-.97,17.69-.47,26.37,.5,8.68,1.67,17.06,3.52,25.16,1.85,8.1,4.32,15.7,7.41,22.81,5.79,12.91,12.82,23.01,21.09,30.3,8.27,7.29,17.31,12.29,27.12,15,7.56,2.12,15.3,2.97,23.21,2.54,7.92-.43,15.79-1.83,23.63-4.19,7.9-2.5,15.62-5.89,23.17-10.16,7.55-4.27,14.65-9.27,21.3-14.99,6.2-5.43,11.87-11.37,17.02-17.79,5.14-6.43,9.53-13.27,13.18-20.52,3.64-7.25,6.4-14.77,8.26-22.57,1.86-7.79,2.63-15.73,2.31-23.8Z"/>
          <path class="cls-1" d="M599.1,132.13c-.13,.84-.35,1.85-.67,3.04-.32,1.19-.75,2.56-1.27,4.11-.54,1.78-1.15,3.76-1.83,5.93-.67,2.17-1.28,4.31-1.8,6.42-.51,1.88-.9,3.63-1.16,5.25-.27,1.62-.41,3-.42,4.12,.04,1.56,.39,2.46,1.05,2.71,.66,.25,1.65,.06,2.98-.57,1.37-.53,2.93-1.41,4.69-2.66,1.76-1.24,3.61-2.69,5.56-4.34,2.45-2.07,4.97-4.4,7.57-6.98,2.59-2.58,5.03-5.12,7.31-7.63,2.28-2.51,4.33-4.82,6.15-6.93,1.82-2.11,3.26-3.82,4.33-5.13,.41-.38,.82-.43,1.21-.13,.39,.3,.4,.69,.03,1.17-1.06,1.31-2.53,3.03-4.4,5.16-1.87,2.13-3.97,4.46-6.3,6.99-2.33,2.53-4.79,5.09-7.39,7.66-2.59,2.58-5.12,4.9-7.57,6.98-2.04,1.69-3.97,3.17-5.78,4.43-1.81,1.26-3.43,2.23-4.86,2.89-3.71,1.44-5.93,.34-6.67-3.31-.42-2.53-.2-5.87,.66-10.02,.39-2.17,.95-4.43,1.66-6.79,.71-2.35,1.53-4.66,2.45-6.93l-8.37,10.99c-.32,.35-.7,.36-1.17,.03-.46-.33-.49-.68-.08-1.07l12.83-16.42c.28-.44,.58-.53,.91-.27,.33,.27,.44,.7,.34,1.3Zm0-14.32c.97-1.27,1.38-2.3,1.24-3.09s-.35-1.41-.64-1.86c-.4-.74-.53-1.37-.39-1.87,.14-.5,.42-.81,.83-.91,.41-.1,.82,.02,1.24,.36,.41,.35,.67,.95,.78,1.8,.22,1.15,.14,2.31-.26,3.47-.39,1.16-.93,2.16-1.62,2.99-.41,.39-.82,.43-1.21,.13-.4-.29-.39-.63,.03-1.02Z"/>
          <path class="cls-1" d="M688.53,107.4c.41-.38,.82-.43,1.21-.13,.39,.3,.4,.69,.03,1.17-1.06,1.31-2.48,3.01-4.25,5.1-1.77,2.09-3.77,4.32-5.99,6.7-2.22,2.38-4.54,4.79-6.96,7.24-2.42,2.45-4.8,4.7-7.16,6.73-2.16,1.96-4.21,3.63-6.15,4.99-1.94,1.37-3.61,2.27-5.02,2.7-2.67,.92-4.11-.03-4.31-2.87-.03-1.22,.18-2.73,.6-4.53,.43-1.79,.98-3.69,1.66-5.7,.68-2,1.43-4.06,2.24-6.17,.81-2.11,1.63-4.11,2.47-6.01,.72-1.63,1.34-3.13,1.87-4.51,.53-1.38,.92-2.46,1.19-3.24-1.18,1.02-3.06,3.18-5.65,6.49-2.59,3.31-5.44,7.02-8.56,11.15-1.83,2.51-3.67,5.02-5.5,7.52-1.83,2.51-3.54,4.85-5.11,7.03-1.57,2.18-2.91,4.16-4.01,5.93-1.11,1.78-1.87,3.14-2.29,4.09-.46,.85-.88,1.13-1.28,.83-.39-.3-.44-.78-.14-1.46l14.07-31.05-8.66,11.1c-.32,.35-.7,.36-1.17,.03-.46-.33-.49-.68-.08-1.07l12.45-16.11c.47-.52,.91-.69,1.32-.51s.62,.6,.66,1.26c.11,.86-.06,1.96-.49,3.3-.43,1.35-1.04,2.9-1.81,4.66-1,2.07-2.14,4.34-3.43,6.8-1.29,2.47-2.65,5.04-4.08,7.73l-.59,1.07c1.36-1.99,2.8-4,4.31-6.05,1.51-2.04,3.06-4.05,4.66-6.02,2.92-4.05,5.72-7.69,8.4-10.92,2.68-3.23,4.76-5.52,6.26-6.89,.73-.73,1.5-1.11,2.33-1.16,.83-.04,1.24,.67,1.25,2.13-.04,1.36-.59,3.34-1.65,5.95-1.07,2.6-2.31,5.42-3.72,8.43-1.38,3.12-2.71,6.13-3.99,9.04-1.29,2.91-1.96,5.17-2.01,6.76-.09,1.5,.73,2.02,2.46,1.57,1.11-.32,2.61-1.15,4.5-2.5,1.89-1.35,3.91-3,6.07-4.96,2.26-2,4.59-4.22,7.01-6.68,2.42-2.45,4.74-4.87,6.96-7.24,2.22-2.38,4.2-4.6,5.92-6.67,1.72-2.07,3.12-3.76,4.18-5.07Z"/>
          <path class="cls-1" d="M716.39,90.2c.35,.32,.38,.69,.1,1.14-.28,.44-.61,.46-.99,.05-1.37-.93-3-1.14-4.88-.64-1.88,.51-3.87,1.53-5.97,3.07-2.1,1.54-4.23,3.43-6.39,5.68-2.16,2.24-4.16,4.62-6,7.12-1.24,1.72-2.38,3.36-3.39,4.94-1.02,1.57-1.95,3.14-2.81,4.71-.75,1.53-1.4,2.98-1.93,4.37-.53,1.38-.89,2.56-1.07,3.53-.33,2.04-.07,3.23,.79,3.57,.86,.34,2.01-.1,3.44-1.33,1.59-1.4,3.49-3.54,5.68-6.41,2.2-2.87,4.33-5.83,6.41-8.88,2.07-3.05,3.91-5.84,5.51-8.37,1.6-2.53,2.68-4.24,3.23-5.13,.67-1.16,1.3-2.16,1.87-3,.57-.84,1.05-1.5,1.42-1.98,.34-.58,.8-.62,1.39-.12,.59,.5,.7,1.44,.33,2.82-.19,.97-.59,2.11-1.2,3.41-.62,1.31-1.3,2.72-2.06,4.25-1.2,2.71-2.4,5.48-3.6,8.3-1.21,2.83-1.62,5.01-1.25,6.55,.18,1.05,.64,1.66,1.38,1.82,.74,.16,1.49,.09,2.28-.21,1.4-.43,3.03-1.31,4.87-2.64,1.84-1.33,3.83-2.86,5.97-4.59,2.45-2.07,4.97-4.4,7.57-6.98,2.59-2.58,5.03-5.12,7.31-7.63,2.28-2.51,4.33-4.82,6.15-6.93,1.82-2.11,3.26-3.82,4.33-5.13,.41-.38,.82-.43,1.21-.13,.39,.3,.4,.69,.03,1.17-1.06,1.31-2.53,3.03-4.4,5.16-1.87,2.13-3.95,4.45-6.23,6.96-2.28,2.51-4.72,5.06-7.31,7.63-2.59,2.58-5.16,4.92-7.72,7.03-2.2,1.86-4.24,3.47-6.13,4.82-1.89,1.35-3.59,2.26-5.09,2.73-1.41,.43-2.62,.48-3.65,.15-1.03-.33-1.8-1.18-2.33-2.55-.74-1.62-.81-3.75-.21-6.4,.6-2.65,1.5-5.32,2.7-8.03-.56,.89-1.48,2.34-2.77,4.36-1.3,2.02-2.78,4.19-4.46,6.53-1.68,2.33-3.42,4.64-5.23,6.91-1.81,2.28-3.46,4.09-4.96,5.46-2.41,2.17-4.27,2.73-5.59,1.66-1.31-1.06-1.75-3.08-1.33-6.05,.44-2.64,1.56-5.82,3.37-9.56,.91-1.7,1.94-3.47,3.07-5.32,1.14-1.84,2.33-3.62,3.57-5.34,1.83-2.51,3.83-4.82,5.98-6.95,2.15-2.12,4.33-3.81,6.54-5.06,2.21-1.25,4.37-1.97,6.48-2.18,2.11-.2,4.09,.35,5.95,1.65Z"/>
        </g>
      </g>
    </g>
  </g>
</svg>